<?xml version="1.0" standalone="no"?>
<!DOCTYPE svg PUBLIC "-//W3C//DTD SVG 1.1//EN" "http://www.w3.org/Graphics/SVG/1.1/DTD/svg11.dtd" >
<svg>
<metadata>
Created by FontForge 20120731 at Wed May 30 10:53:36 2018
 By www
Copyright 2015 Indian Type Foundry. All rights reserved.
</metadata>
<defs>
<font id="BegumW03-Light" horiz-adv-x="600" >
  <font-face 
    font-family="BegumW03-Light"
    font-weight="300"
    font-stretch="normal"
    units-per-em="1000"
    panose-1="2 0 0 0 0 0 0 0 0 0"
    ascent="800"
    descent="-200"
    x-height="508"
    cap-height="674"
    bbox="-48 -275 1523 931"
    underline-thickness="50"
    underline-position="-75"
    unicode-range="U+000D-FB02"
  />
<missing-glyph horiz-adv-x="750" 
d="M180 0v701h390v-701h-390zM234 651v-601h282v601h-282z" />
    <glyph glyph-name="uniFB01" unicode="fi" horiz-adv-x="631" 
d="M517 519v-413q0 -46 8.5 -67.5t30.5 -30.5v-8h-143v8q22 9 30.5 30.5t8.5 67.5v291q0 38 -13 53t-45 15h-215v-359q0 -35 8 -61t41 -37v-8h-153v8q22 9 30.5 30.5t8.5 67.5v359h-85v24l85 3v81q0 89 55.5 138.5t153.5 49.5q88 0 146.5 -31.5t58.5 -78.5q0 -24 -16.5 -41
t-40.5 -17q-23 0 -38.5 15t-15.5 39q0 14 10 30t35 23q-50 36 -138 36q-145 0 -145 -156v-85l306 12z" />
    <glyph glyph-name="uniFB02" unicode="fl" horiz-adv-x="631" 
d="M517 750v-644q0 -46 8.5 -67.5t30.5 -30.5v-8h-143v8q22 9 30.5 30.5t8.5 67.5v515q0 58 -32 86.5t-98 28.5q-143 0 -143 -156v-83l191 11l-9 -43h-182v-359q0 -35 8 -61t41 -37v-8h-153v8q22 9 30.5 30.5t8.5 67.5v359h-85v24l85 5v79q0 89 55.5 138.5t153.5 49.5
q83 0 140 -30z" />
    <glyph glyph-name=".notdef" horiz-adv-x="750" 
d="M180 0v701h390v-701h-390zM234 651v-601h282v601h-282z" />
    <glyph glyph-name="glyph1" horiz-adv-x="0" 
 />
    <glyph glyph-name="glyph1" horiz-adv-x="0" 
 />
    <glyph glyph-name="uni000D" unicode="&#xd;" horiz-adv-x="300" 
 />
    <glyph glyph-name="space" unicode=" " horiz-adv-x="300" 
 />
    <glyph glyph-name="exclam" unicode="!" horiz-adv-x="320" 
d="M100 52q0 24 18 42t42 18t42 -18t18 -42t-18 -42t-42 -18t-42 18t-18 42zM164 206h-10l-36 327q-1 6 -3 27t-3 32t-1 18q0 33 12 54t36 21t36 -21t12 -54q0 -3 -0.5 -12.5t-3 -34t-3.5 -30.5z" />
    <glyph glyph-name="quotedbl" unicode="&#x22;" horiz-adv-x="380" 
d="M107 706q22 0 33.5 -23.5t11.5 -60.5q0 -19 -4.5 -55.5t-35.5 -148.5h-10q-21 76 -30.5 121t-9.5 83q0 37 11.5 60.5t33.5 23.5zM272 706q22 0 33.5 -23.5t11.5 -60.5q0 -19 -4.5 -55.5t-35.5 -148.5h-10q-21 76 -30.5 121t-9.5 83q0 37 11.5 60.5t33.5 23.5z" />
    <glyph glyph-name="numbersign" unicode="#" horiz-adv-x="747" 
d="M446 230l44 206h-186l-44 -206h186zM692 436h-164l-44 -206h174v-34h-181l-42 -196h-37l41 196h-186l-42 -196h-37l41 196h-150v34h157l44 206h-167v34h174l43 204h38l-43 -204h186l43 204h38l-43 -204h157v-34z" />
    <glyph glyph-name="dollar" unicode="$" horiz-adv-x="486" 
d="M257 297l-2 -282q45 4 77 26.5t43.5 50t11.5 48.5q0 29 -13 57t-42.5 52t-74.5 48zM230 389l-1 272q-52 -3 -86.5 -36.5t-34.5 -79.5q0 -40 20 -70.5t48 -50.5t54 -35zM259 660l-2 -285q78 -40 109.5 -60.5t50.5 -43t29 -47.5t10 -55q0 -27 -10 -56t-34 -55t-63.5 -45.5
t-93.5 -22.5l-1 -109h-21l-1 108q-46 1 -99.5 12t-102.5 37v133h10q6 -20 19.5 -48t38 -52.5t59.5 -40t75 -16.5l-1 296q-64 32 -93.5 50.5t-51 39.5t-36.5 49.5t-15 68.5q0 33 13 59.5t34 47.5t59 39t88 21l-1 105h32l-1 -105q41 -2 87 -11.5t79 -31.5v-138h-10
q-8 32 -28.5 66.5t-55 59t-72.5 30.5z" />
    <glyph glyph-name="percent" unicode="%" horiz-adv-x="769" 
d="M172 0l386 654h38l-387 -654h-37zM68 495q0 29 12 67t44 66t76 28t74 -20.5t44.5 -57.5t14.5 -82q0 -31 -11 -70.5t-42.5 -68.5t-79.5 -29q-40 0 -71.5 22t-46 62t-14.5 83zM127 495q0 -57 18.5 -101t54.5 -44q27 0 42.5 18.5t23 51t7.5 75.5q0 57 -19 98t-54 41
q-24 0 -40 -16.5t-24.5 -48t-8.5 -74.5zM436 164q0 29 12 67t44 66t76 28t74 -20.5t44.5 -57.5t14.5 -82q0 -31 -11 -70.5t-42.5 -68.5t-79.5 -29q-40 0 -71.5 22t-46 62t-14.5 83zM495 164q0 -57 18.5 -101t54.5 -44q27 0 42.5 18.5t23 51t7.5 75.5q0 57 -19 98t-54 41
q-24 0 -40 -16.5t-24.5 -48t-8.5 -74.5z" />
    <glyph glyph-name="ampersand" unicode="&#x26;" horiz-adv-x="797" 
d="M253 336l-13 16q-52 -29 -76.5 -73.5t-24.5 -97.5q0 -64 41.5 -104.5t107.5 -40.5q50 0 93.5 21t85.5 65q-48 41 -110.5 101.5t-103.5 112.5zM327 667q-22 0 -46 -10.5t-39.5 -37t-15.5 -58.5q0 -66 66 -155q120 62 120 165q0 21 -8 43.5t-29 37.5t-48 15zM738 365v-10
q-41 -14 -81 -43t-105 -123l-19 -27q116 -95 224 -143v-10q-5 -3 -21 -7.5t-49 -4.5q-67 0 -182 93l-19 16q-103 -115 -227 -115q-90 0 -144.5 48.5t-54.5 127.5q0 70 46.5 119.5t120.5 80.5q-41 50 -55.5 89t-14.5 74q0 25 9 53t30.5 51.5t57.5 40t86 16.5q29 0 64.5 -11
t60 -41t24.5 -74q0 -49 -38.5 -90.5t-145.5 -84.5q41 -52 118 -129q48 -48 90 -83l17 24q76 108 -7 153v10h215z" />
    <glyph glyph-name="quotesingle" unicode="'" horiz-adv-x="201" 
d="M107 706q22 0 33.5 -23.5t11.5 -60.5q0 -19 -4.5 -55.5t-35.5 -148.5h-10q-21 76 -30.5 121t-9.5 83q0 37 11.5 60.5t33.5 23.5z" />
    <glyph glyph-name="parenleft" unicode="(" horiz-adv-x="413" 
d="M136 301q0 -88 17.5 -171t49 -143t78 -94.5t110.5 -36.5l2 -8q-31 -7 -50 -7q-56 0 -101 24.5t-79 67.5t-56.5 97t-37 123.5t-14.5 146.5q0 78 14.5 148t37 124t56.5 97t79 67.5t101 24.5q19 0 50 -7l-2 -8q-46 -1 -90 -23.5t-84.5 -83.5t-60.5 -155.5t-20 -182.5z" />
    <glyph glyph-name="parenright" unicode=")" horiz-adv-x="413" 
d="M277 301q0 88 -17.5 171t-49 143t-78 94.5t-110.5 36.5l-2 8q32 7 50 7q56 0 101 -24.5t79 -67.5t56.5 -97t37 -123.5t14.5 -146.5q0 -78 -14.5 -148t-37 -124t-56.5 -97t-79 -67.5t-101 -24.5q-18 0 -50 7l2 8q46 1 90 23.5t84.5 83.5t60.5 155.5t20 182.5z" />
    <glyph glyph-name="asterisk" unicode="*" horiz-adv-x="500" 
d="M297 631q0 -18 -14 -53.5t-20 -57t-8 -46.5q39 17 79.5 49.5t58.5 38.5q16 5 33 3t26.5 -10.5t12.5 -18.5q6 -19 -7.5 -38t-36.5 -27q-18 -6 -69.5 -2.5t-92.5 -6.5q28 -31 71.5 -59t54.5 -43q14 -20 14.5 -42t-16.5 -35q-16 -11 -38.5 -4t-36.5 26q-4 6 -8.5 14.5
t-17 56t-32.5 81.5q-13 -22 -21 -43t-18 -58t-20 -51q-14 -19 -35.5 -26.5t-38.5 4.5q-16 12 -16 35t14 43q11 15 48 38.5t54 39.5t24 24q-41 10 -92.5 6.5t-69.5 2.5q-23 8 -36.5 26t-7.5 38q7 19 28.5 26.5t44.5 -0.5q16 -5 45 -29t48.5 -36.5t42.5 -22.5
q-4 41 -20.5 83.5t-18.5 55t-2 18.5q0 24 13 42.5t34 18.5q20 0 33.5 -18.5t13.5 -42.5z" />
    <glyph glyph-name="plus" unicode="+" horiz-adv-x="629" 
d="M564 358v-34h-231v-230h-37v230h-231v34h231v227h37v-227h231z" />
    <glyph glyph-name="comma" unicode="," horiz-adv-x="264" 
d="M131 112q28 0 46.5 -20.5t18.5 -54.5q0 -30 -15.5 -65t-49 -68.5t-67.5 -48.5l-3 7q36 23 58.5 59.5t23.5 76.5l-18 -2q-21 0 -37 16t-16 41q0 24 17 41.5t42 17.5z" />
    <glyph glyph-name="hyphen" unicode="-" horiz-adv-x="367" 
d="M60 248v54h247v-54h-247z" />
    <glyph glyph-name="period" unicode="." horiz-adv-x="264" 
d="M72 52q0 24 18 42t42 18t42 -18t18 -42t-18 -42t-42 -18t-42 18t-18 42z" />
    <glyph glyph-name="slash" unicode="/" horiz-adv-x="402" 
d="M10 -112l334 873h48l-334 -873h-48z" />
    <glyph glyph-name="zero" unicode="0" horiz-adv-x="592" 
d="M297 -11q-43 0 -87 15t-85 58.5t-60.5 113.5t-19.5 147q0 79 17 143.5t49.5 109.5t79 68.5t103.5 23.5q43 0 87.5 -15.5t85.5 -60t60.5 -116.5t19.5 -151q0 -158 -66.5 -247t-183.5 -89zM297 13q48 0 89 38t62 113t21 161q0 70 -12.5 129.5t-35.5 101.5t-56 65t-71 23
q-28 0 -57.5 -15.5t-54.5 -53t-42 -100.5t-17 -152q0 -68 12.5 -126t35.5 -99t55.5 -63t70.5 -22z" />
    <glyph glyph-name="one" unicode="1" horiz-adv-x="332" 
d="M208 668v-562q0 -46 8.5 -67.5t30.5 -30.5v-8h-147v8q22 9 30.5 30.5t8.5 67.5v465l-79 -20v8z" />
    <glyph glyph-name="two" unicode="2" horiz-adv-x="485" 
d="M432 0h-418v47q18 15 93 76t124 108.5t77 91.5t37.5 80.5t9.5 64.5q0 80 -38.5 128t-105.5 48q-34 0 -62 -10t-45 -27.5t-25 -35.5q18 -5 29.5 -18t11.5 -32q0 -20 -14.5 -33.5t-34.5 -13.5q-22 0 -37 16.5t-15 39.5q0 33 25.5 66.5t72.5 52.5t95 19q38 0 77 -10
t74.5 -37.5t52.5 -67.5t17 -79q0 -43 -19 -85.5t-51 -82t-78.5 -81t-122.5 -98.5t-91 -69h197q65 0 107.5 15t70.5 43h8z" />
    <glyph glyph-name="three" unicode="3" horiz-adv-x="510" 
d="M141 330v10q77 16 125 40.5t72.5 57t24.5 74.5q0 26 -11.5 57.5t-44 53t-80.5 21.5q-49 0 -85.5 -19t-54.5 -54q18 -5 29.5 -18t11.5 -32q0 -20 -14.5 -33.5t-34.5 -13.5q-23 0 -37.5 15.5t-14.5 41.5q0 27 16 52t44 44.5t64.5 30t76.5 10.5q94 0 153.5 -41.5
t59.5 -108.5q0 -25 -12 -54.5t-43.5 -55t-74.5 -42.5q72 -8 115.5 -55t43.5 -118q0 -36 -13.5 -72t-45 -65.5t-79.5 -48t-108 -18.5q-83 1 -143.5 41.5t-60.5 96.5q0 27 16 43t39 15q20 1 34.5 -12.5t14.5 -34.5q0 -13 -9 -28t-32 -22q18 -35 55 -54.5t85 -19.5
q43 0 83 19.5t61.5 58.5t21.5 83q0 79 -46.5 118.5t-142.5 39.5q-24 0 -59 -3z" />
    <glyph glyph-name="four" unicode="4" horiz-adv-x="515" 
d="M74 218h248v391zM474 160h-83v-54q0 -46 8.5 -67.5t30.5 -30.5v-8h-147v8q22 9 30.5 30.5t8.5 67.5v54h-302v47l311 450h60v-439h93z" />
    <glyph glyph-name="five" unicode="5" horiz-adv-x="516" 
d="M228 -11q-50 0 -97.5 18.5t-73.5 52t-26 68.5q0 26 15.5 42t38.5 15q20 1 34.5 -12.5t14.5 -34.5q0 -13 -9 -28t-32 -22q17 -35 51.5 -54.5t81.5 -19.5q82 0 126.5 47t44.5 132q0 83 -43 126t-126 43q-92 0 -160 -42l37 337h343l-10 -58h-319l-8 -219q28 12 67 21t72 9
q106 0 166 -53t60 -148q0 -48 -19 -89t-53.5 -70t-80 -45t-95.5 -16z" />
    <glyph glyph-name="six" unicode="6" horiz-adv-x="555" 
d="M291 -11q-114 0 -180 84t-66 225q0 36 8 82t29 93.5t58.5 92t96 73.5t123.5 29q45 0 80 -11l-3 -10q-93 4 -158 -32.5t-103.5 -105.5t-48.5 -165q22 20 55.5 40.5t69 30.5t62.5 10q44 0 77 -13t58.5 -34.5t45.5 -60.5t20 -92q0 -51 -17.5 -95t-48.5 -75.5t-72 -48.5
t-86 -17zM124 315l-1 -29q0 -85 22 -146.5t59 -94t88 -32.5q66 0 104 52t38 133q0 51 -16 93t-54 63.5t-91 21.5q-38 0 -80 -18.5t-69 -42.5z" />
    <glyph glyph-name="seven" unicode="7" horiz-adv-x="475" 
d="M201 0h-101q34 145 118.5 317t169.5 282h-180q-61 0 -106 -16t-72 -42h-10l21 116h404v-15q-90 -120 -158.5 -298.5t-85.5 -343.5z" />
    <glyph glyph-name="eight" unicode="8" horiz-adv-x="549" 
d="M288 16q50 0 87 22.5t51 53.5t14 54q0 27 -10.5 49.5t-29 40t-46 33.5t-73 35.5t-54.5 23.5q-33 -15 -58.5 -44.5t-35 -60.5t-9.5 -56q0 -67 45.5 -109t118.5 -42zM304 362q50 24 74.5 59.5t24.5 87.5q0 27 -11 59t-43.5 53.5t-84.5 21.5q-59 0 -95 -31t-36 -78
q0 -49 33 -88.5t138 -83.5zM322 354q66 -28 102 -50t58 -52.5t22 -73.5q0 -37 -16.5 -72t-47.5 -61t-74.5 -41t-93.5 -15q-68 0 -119.5 23.5t-79.5 61.5t-28 87q0 64 45 111t116 65q-48 23 -79 47t-47.5 53.5t-16.5 67.5q0 72 60.5 117.5t153.5 45.5q90 0 147.5 -44
t57.5 -115q0 -30 -14.5 -61.5t-54 -57t-91.5 -36.5z" />
    <glyph glyph-name="nine" unicode="9" horiz-adv-x="552" 
d="M267 668q43 0 86 -14.5t77 -51t55.5 -96.5t21.5 -147q0 -77 -20 -145t-59.5 -118.5t-97.5 -78.5t-129 -28q-26 0 -60.5 4t-50.5 12l3 10q37 -1 75.5 2.5t76.5 16.5t77.5 42.5t69 90t33.5 152.5q-16 -21 -45 -42.5t-64.5 -32t-65.5 -10.5q-62 0 -109.5 25t-74 71
t-26.5 113q0 66 28.5 115.5t80.5 79.5t118 30zM428 348l1 40q0 51 -11 97.5t-32.5 82t-54 56t-72.5 20.5q-28 0 -50 -11t-40 -30t-33 -56t-15 -91q0 -166 166 -166q37 0 78 17.5t63 40.5z" />
    <glyph glyph-name="colon" unicode=":" horiz-adv-x="264" 
d="M72 459q0 24 18 42t42 18t42 -18t18 -42t-18 -42t-42 -18t-42 18t-18 42zM72 52q0 24 18 42t42 18t42 -18t18 -42t-18 -42t-42 -18t-42 18t-18 42z" />
    <glyph glyph-name="semicolon" unicode=";" horiz-adv-x="264" 
d="M72 459q0 24 18 42t42 18t42 -18t18 -42t-18 -42t-42 -18t-42 18t-18 42zM131 112q28 0 46.5 -20.5t18.5 -54.5q0 -30 -15.5 -65t-49 -68.5t-67.5 -48.5l-3 7q36 23 58.5 59.5t23.5 76.5l-18 -2q-21 0 -37 16t-16 41q0 24 17 41.5t42 17.5z" />
    <glyph glyph-name="less" unicode="&#x3c;" horiz-adv-x="629" 
d="M90 314v34l449 174v-36l-410 -155l408 -155v-36z" />
    <glyph glyph-name="equal" unicode="=" horiz-adv-x="629" 
d="M65 434v34h499v-34h-499zM65 215v34h499v-34h-499z" />
    <glyph glyph-name="greater" unicode="&#x3e;" horiz-adv-x="629" 
d="M539 350v-34l-447 -174v36l408 155l-410 155v36z" />
    <glyph glyph-name="question" unicode="?" horiz-adv-x="509" 
d="M235 112q24 0 42 -18t18 -42t-18 -42t-42 -18t-42 18t-18 42t18 42t42 18zM227 206l-27 162q93 6 143.5 43t50.5 105t-41 106.5t-113 38.5q-48 0 -85.5 -19.5t-54.5 -53.5q18 -5 29.5 -18t11.5 -32q0 -20 -14.5 -33.5t-34.5 -13.5q-23 0 -37.5 16t-14.5 42q0 21 10.5 44
t36 43.5t65 34.5t89.5 14q66 0 119.5 -23.5t78.5 -65t25 -84.5q0 -28 -10.5 -57.5t-34.5 -55t-63 -45t-91 -28.5l-24 -120h-14z" />
    <glyph glyph-name="at" unicode="@" horiz-adv-x="890" 
d="M570 355l16 94q-22 28 -67 28q-35 0 -71 -27t-65 -72t-46.5 -99t-17.5 -105q0 -37 8 -65t21.5 -38.5t27.5 -10.5q40 0 90 74.5t104 220.5zM634 -79l9 -18q-50 -29 -113 -44.5t-131 -15.5q-72 0 -134.5 24.5t-108 71t-71 113.5t-25.5 148q0 67 22 141t78 146t141 116
t180 44q73 0 137.5 -24t112 -69.5t73.5 -109.5t26 -140q0 -51 -14.5 -103.5t-42 -95t-67.5 -68t-87 -25.5q-32 0 -52.5 14.5t-29 52t3.5 109.5l14 83q-26 -68 -61 -126.5t-70.5 -92t-68.5 -33.5q-46 0 -71.5 38.5t-25.5 104.5q0 55 23 115t61.5 109.5t85.5 79.5t92 30
q35 0 64.5 -8t66.5 -35q-7 -15 -12 -32.5t-11 -57.5l-31 -190q-11 -70 4 -100t48 -30q32 0 59.5 23t47 61.5t29.5 85.5t10 87q0 68 -21 128t-61.5 104.5t-100 69t-132.5 24.5q-35 0 -80.5 -11t-91.5 -40t-82 -72t-60.5 -96.5t-33.5 -105.5t-9 -92q0 -78 23 -142t63.5 -108
t94.5 -67t115 -23q125 0 215 52z" />
    <glyph glyph-name="A" unicode="A" horiz-adv-x="665" 
d="M184 237h269l-137 334zM342 685l237 -576q15 -35 30.5 -59.5t45.5 -41.5v-8h-162v8q44 23 7 114l-37 91h-288l-22 -55q-24 -60 -22.5 -96.5t29.5 -53.5v-8h-160v8q31 15 56 47.5t53 98.5l224 531h9z" />
    <glyph glyph-name="B" unicode="B" horiz-adv-x="612" 
d="M276 24h20q98 0 146.5 41t48.5 115q0 73 -64 115t-177 42h-55v-246q0 -35 19 -51t62 -16zM266 650h-71v-291l53 2q200 9 200 147q0 71 -44 106.5t-138 35.5zM85 674h225q100 0 159.5 -43t59.5 -123q0 -64 -53 -105.5t-142 -51.5q107 -5 172.5 -49t65.5 -115
q0 -88 -73.5 -137.5t-218.5 -49.5h-195v8q22 9 30.5 30.5t8.5 67.5v462q0 46 -8.5 67.5t-30.5 30.5v8z" />
    <glyph glyph-name="C" unicode="C" horiz-adv-x="649" 
d="M55 342q0 69 24.5 132t69.5 110.5t108 74t137 26.5q123 0 220 -54v-136h-10q-29 82 -79 124t-132 42q-54 0 -101.5 -22.5t-82.5 -65t-54 -102.5t-19 -130q0 -73 19.5 -134t55 -104.5t85 -66.5t108.5 -23q80 0 128 37.5t71 115.5h10v-126q-72 -51 -211 -51
q-74 0 -138.5 24.5t-111 70.5t-72 112.5t-25.5 145.5z" />
    <glyph glyph-name="D" unicode="D" horiz-adv-x="725" 
d="M276 24h18q67 0 122 21.5t93.5 62t59 98.5t20.5 127q0 72 -21 131.5t-61.5 100.5t-100 63t-133.5 22h-78v-559q0 -35 19 -51t62 -16zM85 674h205q91 0 163.5 -25t120.5 -70t72 -106.5t24 -133.5q0 -71 -26 -133.5t-75.5 -108.5t-120.5 -71.5t-155 -25.5h-208v8
q22 9 30.5 30.5t8.5 67.5v462q0 46 -8.5 67.5t-30.5 30.5v8z" />
    <glyph glyph-name="E" unicode="E" horiz-adv-x="578" 
d="M533 153h10v-153h-458v8q22 9 30.5 30.5t8.5 67.5v462q0 46 -8.5 67.5t-30.5 30.5v8h443v-134h-10q-19 54 -55 81.5t-126 27.5h-142v-297l121 4q45 1 68.5 22t33.5 68h8v-201h-8q-11 46 -35 65t-70 20l-118 4v-243q0 -35 19 -51t62 -16h82q55 0 88 10t53 35.5t34 83.5z
" />
    <glyph glyph-name="F" unicode="F" horiz-adv-x="553" 
d="M518 674v-134h-10q-19 54 -55 81.5t-126 27.5h-132v-317l111 4q45 1 68.5 22t33.5 68h8v-201h-8q-11 46 -35 65t-70 20l-108 4v-208q0 -36 8.5 -62t46.5 -36v-8h-165v8q22 9 30.5 30.5t8.5 67.5v462q0 46 -8.5 67.5t-30.5 30.5v8h433z" />
    <glyph glyph-name="G" unicode="G" horiz-adv-x="701" 
d="M497 324h169v-8q-22 -9 -30.5 -30.5t-8.5 -67.5v-96q0 -67 12 -82q-44 -24 -105 -37.5t-130 -13.5q-72 0 -136 23.5t-105.5 62.5t-65.5 84.5t-33 94t-9 88.5q0 69 24.5 132t69.5 110.5t108 74t137 26.5q56 0 120.5 -14t109.5 -37v-136h-10q-33 82 -87 122.5t-134 40.5
q-54 0 -101.5 -22.5t-82.5 -65t-54 -102.5t-19 -130q0 -71 19.5 -132t55 -104.5t85 -67.5t107.5 -24q75 0 114 28t39 91v86q0 35 -9.5 61t-49.5 37v8z" />
    <glyph glyph-name="H" unicode="H" horiz-adv-x="765" 
d="M680 674v-8q-22 -9 -30.5 -30.5t-8.5 -67.5v-462q0 -46 8.5 -67.5t30.5 -30.5v-8h-149v8q22 9 30.5 30.5t8.5 67.5v221h-375v-221q0 -46 8.5 -67.5t30.5 -30.5v-8h-149v8q22 9 30.5 30.5t8.5 67.5v462q0 46 -8.5 67.5t-30.5 30.5v8h149v-8q-22 -9 -30.5 -30.5t-8.5 -67.5
v-217h375v217q0 46 -8.5 67.5t-30.5 30.5v8h149z" />
    <glyph glyph-name="I" unicode="I" horiz-adv-x="319" 
d="M195 568v-462q0 -46 8.5 -67.5t30.5 -30.5v-8h-149v8q22 9 30.5 30.5t8.5 67.5v462q0 46 -8.5 67.5t-30.5 30.5v8h149v-8q-22 -9 -30.5 -30.5t-8.5 -67.5z" />
    <glyph glyph-name="J" unicode="J" horiz-adv-x="314" 
d="M195 568v-443q0 -57 -6 -90t-16 -55.5t-34.5 -48t-95.5 -60.5l-3 6q46 44 65 106.5t19 162.5v422q0 46 -8.5 67.5t-30.5 30.5v8h149v-8q-22 -9 -30.5 -30.5t-8.5 -67.5z" />
    <glyph glyph-name="K" unicode="K" horiz-adv-x="649" 
d="M252 325v6l184 222q29 35 30.5 65t-24.5 48v8h166v-8q-58 -23 -128 -103l-171 -196l139 -173q122 -151 191 -176v-8q-8 -9 -22.5 -15t-33.5 -6q-39 0 -74 27t-90 97zM195 568v-462q0 -46 8.5 -67.5t30.5 -30.5v-8h-149v8q22 9 30.5 30.5t8.5 67.5v462q0 46 -8.5 67.5
t-30.5 30.5v8h149v-8q-22 -9 -30.5 -30.5t-8.5 -67.5z" />
    <glyph glyph-name="L" unicode="L" horiz-adv-x="550" 
d="M520 173h10v-173h-445v8q22 9 30.5 30.5t8.5 67.5v462q0 46 -8.5 67.5t-30.5 30.5v8h149v-8q-22 -9 -30.5 -30.5t-8.5 -67.5v-477q0 -35 19 -51t62 -16h69q55 0 88 11.5t53 41t34 96.5z" />
    <glyph glyph-name="M" unicode="M" horiz-adv-x="885" 
d="M124 505q1 69 -11.5 107t-47.5 54v8h108l278 -586l239 586h110v-8q-22 -9 -30.5 -30.5t-8.5 -67.5v-462q0 -46 8.5 -67.5t30.5 -30.5v-8h-149v8q22 9 30.5 30.5t8.5 67.5v479l-257 -595h-13l-271 570l7 -386q1 -48 8 -80.5t20.5 -53.5t34.5 -32v-8h-159v8q27 13 43.5 54
t17.5 111z" />
    <glyph glyph-name="N" unicode="N" horiz-adv-x="723" 
d="M603 515l-9 -527h-14l-431 558l6 -378q3 -128 64 -160v-8h-159v8q27 13 43.5 53t17.5 108l3 336q1 69 -11.5 107t-47.5 54v8h80l427 -564v406q0 120 -59 150v8h149v-8q-19 -9 -33 -32.5t-19.5 -56t-6.5 -62.5z" />
    <glyph glyph-name="O" unicode="O" horiz-adv-x="768" 
d="M383 13q55 0 101 23t79 66.5t50.5 104.5t17.5 134q0 65 -18 124t-51 103t-79 68.5t-100 24.5t-100 -24.5t-79 -68.5t-50.5 -102.5t-17.5 -124.5q0 -72 18 -133t50.5 -104.5t78.5 -67t100 -23.5zM382 -11q-71 0 -132 24.5t-104.5 71t-67 112.5t-23.5 145q0 68 23.5 131
t67 110.5t105 74.5t132.5 27q73 0 134.5 -26.5t105.5 -73.5t67 -110t23 -133q0 -77 -24.5 -142.5t-69.5 -112.5t-106 -72.5t-131 -25.5z" />
    <glyph glyph-name="P" unicode="P" horiz-adv-x="580" 
d="M85 674h192q129 0 198.5 -50.5t69.5 -141.5q0 -37 -13.5 -74t-49 -69t-88 -46.5t-104.5 -14.5q-33 0 -56 5v8q113 3 171.5 50.5t58.5 133.5q0 87 -56 130.5t-159 43.5h-54v-543q0 -46 8.5 -67.5t30.5 -30.5v-8h-149v8q22 9 30.5 30.5t8.5 67.5v462q0 46 -8.5 67.5
t-30.5 30.5v8z" />
    <glyph glyph-name="Q" unicode="Q" horiz-adv-x="768" 
d="M136 341q0 -72 18 -133t50.5 -104.5t78.5 -67t100 -23.5q55 0 101 23t79 66.5t50.5 104.5t17.5 134q0 65 -18 124t-51 103t-79 68.5t-100 24.5t-100 -24.5t-79 -68.5t-50.5 -102.5t-17.5 -124.5zM744 -128l3 -8q-20 -20 -50 -32.5t-68 -12.5q-141 0 -258 170
q-69 2 -128 27.5t-101 71.5t-64.5 111t-22.5 143q0 68 23.5 131t67 110.5t105 74.5t132.5 27q73 0 134.5 -26.5t105.5 -73.5t67 -110t23 -133q0 -73 -22.5 -137t-64 -110.5t-98 -73.5t-122.5 -31q69 -48 164.5 -81t173.5 -37z" />
    <glyph glyph-name="R" unicode="R" horiz-adv-x="619" 
d="M563 -11q-30 0 -62 18.5t-123 130.5l-144 175v8q107 3 163.5 45.5t56.5 115.5q0 82 -54 124.5t-151 42.5h-54v-543q0 -46 8.5 -67.5t30.5 -30.5v-8h-149v8q22 9 30.5 30.5t8.5 67.5v462q0 46 -8.5 67.5t-30.5 30.5v8h192q124 0 191 -49.5t67 -135.5q0 -29 -11 -58.5
t-37 -53.5t-67 -41.5t-97 -24.5l104 -120q47 -54 80.5 -90.5t58 -55.5t53.5 -27v-8q-8 -9 -22.5 -15t-33.5 -6z" />
    <glyph glyph-name="S" unicode="S" horiz-adv-x="486" 
d="M61 181q25 -83 73.5 -124.5t104.5 -42.5q41 0 70 15t46 43t17 65q0 41 -19.5 72t-50.5 54t-100 61t-98.5 67t-43 59.5t-13.5 67.5q0 35 14.5 66t41 53.5t63 35t77.5 12.5q107 0 172 -43v-138h-10q-9 37 -30 73.5t-58.5 60t-78.5 23.5q-26 0 -55 -11.5t-48 -40.5t-19 -64
q0 -49 29.5 -88t118 -89t114.5 -75t38 -46.5t16.5 -43t4.5 -39.5q0 -36 -14 -68t-39.5 -56t-62 -37.5t-79.5 -13.5q-46 0 -91.5 10.5t-99.5 38.5v143h10z" />
    <glyph glyph-name="T" unicode="T" horiz-adv-x="605" 
d="M30 674h545v-171h-10q-13 74 -49 110.5t-108 36.5h-72v-544q0 -46 8.5 -67.5t30.5 -30.5v-8h-149v8q22 9 30.5 30.5t8.5 67.5v544h-68q-72 0 -108 -36.5t-49 -110.5h-10v171z" />
    <glyph glyph-name="U" unicode="U" horiz-adv-x="697" 
d="M364 -9q-54 0 -100 13t-79.5 40t-52 70.5t-18.5 101.5v352q0 46 -8.5 67.5t-30.5 30.5v8h149v-8q-22 -9 -30.5 -30.5t-8.5 -67.5v-342q0 -199 189 -199q31 0 63 7.5t58.5 28t43.5 58t17 95.5l-3 290q-1 72 -18.5 108.5t-47.5 51.5v8h169v-8q-20 -10 -35.5 -31t-24 -53
t-9.5 -77l-5 -290q-1 -70 -25.5 -119t-71.5 -77t-121 -28z" />
    <glyph glyph-name="V" unicode="V" horiz-adv-x="655" 
d="M169 666q-19 -12 -21.5 -38t17.5 -76l179 -450l155 403q50 130 -5 161v8h161v-8q-31 -14 -57 -50t-59 -115l-212 -512h-9l-232 576q-14 35 -30 59t-46 42v8h159v-8z" />
    <glyph glyph-name="W" unicode="W" horiz-adv-x="1005" 
d="M727 106l130 403q19 60 14.5 100t-31.5 57v8h160v-8q-30 -14 -53 -49t-51 -114l-184 -514h-9l-204 508l-208 -508h-9l-202 578q-13 37 -25.5 60t-39.5 39v8h159v-8q-26 -16 -26.5 -46.5t11.5 -67.5l150 -448l171 440l-9 23q-14 36 -28.5 59t-43.5 40v8h159v-8
q-20 -12 -23.5 -38.5t15.5 -75.5z" />
    <glyph glyph-name="X" unicode="X" horiz-adv-x="661" 
d="M365 364l175 -256q23 -34 47 -60.5t57 -39.5v-8h-185v8q23 8 24.5 32t-22.5 60l-151 221l-131 -192q-20 -30 -25.5 -54.5t3 -42.5t29.5 -24v-8h-179v8q56 19 134 126l154 208l-153 224q-39 57 -60 74.5t-41 25.5v8h182v-8q-23 -8 -24.5 -32t22.5 -60l129 -189l100 144
q21 30 32 60.5t2 51t-30 25.5v8h176v-8q-50 -17 -140 -136z" />
    <glyph glyph-name="Y" unicode="Y" horiz-adv-x="608" 
d="M435 674h163v-8q-24 -13 -51.5 -45t-67.5 -101l-135 -231v-183q0 -46 8.5 -67.5t30.5 -30.5v-8h-149v8q22 9 30.5 30.5t8.5 67.5v167l-164 285q-23 40 -42 67t-47 41v8h171v-8q-22 -15 -21.5 -45t24.5 -71l136 -233l111 209q29 55 26 92t-32 48v8z" />
    <glyph glyph-name="Z" unicode="Z" horiz-adv-x="565" 
d="M525 179h10v-179h-505v8l412 647l-197 -4q-55 -1 -89.5 -14t-56.5 -42.5t-36 -89.5h-10v169h479v-8l-414 -646l204 5q51 1 90 11.5t68 40t45 102.5z" />
    <glyph glyph-name="bracketleft" unicode="[" horiz-adv-x="344" 
d="M324 726h-129v-850h129v-24h-200v898h200v-24z" />
    <glyph glyph-name="backslash" unicode="\" horiz-adv-x="402" 
d="M58 761l334 -873h-48l-334 873h48z" />
    <glyph glyph-name="bracketright" unicode="]" horiz-adv-x="344" 
d="M220 750v-898h-200v24h129v850h-129v24h200z" />
    <glyph glyph-name="asciicircum" unicode="^" horiz-adv-x="507" 
d="M234 594h34l139 -262h-34l-122 229l-117 -228h-34z" />
    <glyph glyph-name="underscore" unicode="_" horiz-adv-x="527" 
d="M10 -70v54h507v-54h-507z" />
    <glyph glyph-name="grave" unicode="`" 
d="M158 731h100l84 -152h-24z" />
    <glyph glyph-name="a" unicode="a" horiz-adv-x="530" 
d="M356 97v149q-35 5 -53 5q-80 0 -125 -33.5t-45 -91.5q0 -44 27.5 -70.5t71.5 -26.5q35 0 69 19t55 49zM484 35h15v-8q-12 -15 -31.5 -24t-41.5 -9q-30 0 -49 21t-21 56q-15 -24 -41.5 -44.5t-56.5 -29t-54 -8.5q-29 0 -63.5 11.5t-57.5 43t-23 77.5q0 71 57 113t162 42
q49 0 77 -6v98q0 65 -30 96t-83 31q-70 0 -103 -43q18 -5 29.5 -18t11.5 -32q0 -20 -14.5 -33.5t-34.5 -13.5q-21 0 -35 15t-14 37q0 18 9 37t33 37.5t60 28t67 9.5q32 0 63.5 -7.5t57.5 -28t37 -51t11 -62.5v-267q0 -39 12.5 -53.5t50.5 -14.5z" />
    <glyph glyph-name="b" unicode="b" horiz-adv-x="604" 
d="M549 276q0 -68 -20 -122t-56 -90.5t-85.5 -55t-106.5 -18.5q-37 0 -79.5 7t-87.5 33v591q0 63 -44 82v8l109 39v-327q22 29 52 52.5t61 33.5t56 10q34 0 69.5 -12t68 -45.5t48 -84t15.5 -101.5zM179 56q16 -17 45.5 -29t58.5 -12q90 0 141.5 62t51.5 175q0 100 -44.5 156
t-116.5 56q-30 0 -66.5 -13.5t-69.5 -49.5v-345z" />
    <glyph glyph-name="c" unicode="c" horiz-adv-x="513" 
d="M483 94q-20 -30 -50 -55.5t-67 -37.5t-74 -12q-51 0 -95 19.5t-76 54.5t-49 83.5t-17 102.5q0 58 20 108t55.5 86.5t82 56t97.5 19.5q31 0 67.5 -10.5t64 -37t27.5 -60.5q0 -25 -15 -40.5t-37 -15.5q-20 0 -34.5 13.5t-14.5 35.5q0 17 11.5 30t29.5 18q-34 42 -100 42
q-29 0 -60 -11.5t-61 -43t-45 -79.5t-15 -97q0 -39 10.5 -78.5t34.5 -71.5t61.5 -53t86.5 -21q41 0 83.5 17.5t71.5 45.5z" />
    <glyph glyph-name="d" unicode="d" horiz-adv-x="606" 
d="M427 106v289q-14 46 -46.5 73t-82.5 27q-79 0 -124.5 -62.5t-45.5 -176.5q0 -103 46.5 -159.5t118.5 -56.5q36 0 74 19.5t60 46.5zM492 750v-635q0 -32 9 -56.5t35 -35.5v-8l-109 -26v93q-23 -35 -66.5 -64t-92.5 -29q-48 0 -87.5 17.5t-67.5 50.5t-43 79.5t-15 102.5
q0 61 17.5 113t50 89.5t78.5 57.5t101 20q39 0 71 -9t54 -23v144q0 63 -54 82v8z" />
    <glyph glyph-name="e" unicode="e" horiz-adv-x="532" 
d="M131 309l275 13q-1 49 -14.5 88.5t-41 62t-69.5 22.5q-63 0 -102.5 -51t-47.5 -135zM480 111l7 -8q-34 -51 -84 -82.5t-115 -31.5q-52 0 -95.5 18.5t-74 52.5t-47 82.5t-16.5 106.5t16.5 108.5t46.5 86.5t72 55.5t91 19.5q63 0 106 -24t67 -70.5t24 -115.5v-24h-349v-22
q0 -69 21 -118t61.5 -77.5t97.5 -28.5q91 0 171 72z" />
    <glyph glyph-name="f" unicode="f" horiz-adv-x="329" 
d="M114 494v119q0 70 37 109t102 39q22 0 49 -9t47 -31t20 -48q0 -25 -15 -40.5t-37 -15.5q-20 0 -34.5 13.5t-14.5 35.5q0 17 11.5 30t29.5 18q-7 9 -22.5 15.5t-32.5 6.5q-75 0 -75 -116v-122l161 10l-9 -43h-152v-359q0 -35 8 -61t41 -37v-8h-153v8q22 9 30.5 30.5
t8.5 67.5v359h-85v24z" />
    <glyph glyph-name="g" unicode="g" horiz-adv-x="555" 
d="M260 193q39 0 68 25t40.5 59.5t11.5 63.5q0 48 -20 87t-47.5 53.5t-52.5 14.5q-39 0 -68 -25t-40.5 -59.5t-11.5 -63.5q0 -48 20 -87t47.5 -53.5t52.5 -14.5zM359 0h-131q-31 0 -54 6q-31 -19 -48.5 -47t-17.5 -61q0 -54 41 -84t105 -30q30 0 68.5 8t69.5 29.5t46 49.5
t15 62t-22.5 50.5t-71.5 16.5zM235 66h126q81 0 117 -25t36 -80q0 -36 -22 -74t-61.5 -69t-93.5 -49.5t-113 -18.5q-85 0 -132 36.5t-47 93.5q0 42 31 79t78 53q-49 21 -49 68q0 17 8.5 37t26.5 37.5t36 27.5q-49 18 -77.5 59.5t-28.5 98.5q0 37 14 70t40.5 57.5t64 38
t80.5 13.5q32 0 63.5 -9t53.5 -25q13 34 37.5 55t54.5 21q24 0 38 -13t14 -31q0 -19 -11.5 -31t-30.5 -12q-16 0 -28.5 9.5t-17.5 24.5q-28 -6 -44 -33q25 -22 38.5 -54.5t13.5 -71.5q0 -37 -14 -70t-40.5 -57.5t-64 -38t-80.5 -13.5q-28 0 -54 6q-14 -14 -23.5 -31
t-9.5 -31q0 -48 71 -48z" />
    <glyph glyph-name="h" unicode="h" horiz-adv-x="626" 
d="M179 391v-285q0 -46 8.5 -67.5t30.5 -30.5v-8h-143v8q22 9 30.5 30.5t8.5 67.5v515q0 63 -44 82v8l109 39v-337q106 106 205 106q133 0 133 -145v-268q0 -46 8.5 -67.5t30.5 -30.5v-8h-143v8q22 9 30.5 30.5t8.5 67.5v236q0 62 -23.5 90.5t-76.5 28.5q-34 0 -79.5 -16.5
t-93.5 -53.5z" />
    <glyph glyph-name="i" unicode="i" horiz-adv-x="293" 
d="M179 519v-413q0 -46 8.5 -67.5t30.5 -30.5v-8h-143v8q22 9 30.5 30.5t8.5 67.5v287q0 27 -8 46.5t-36 32.5v8zM89 652q0 21 16.5 37.5t37.5 16.5t37.5 -16.5t16.5 -37.5t-16.5 -37.5t-37.5 -16.5t-37.5 16.5t-16.5 37.5z" />
    <glyph glyph-name="j" unicode="j" horiz-adv-x="293" 
d="M114 16v377q0 27 -8 46.5t-36 32.5v8l109 39v-505q0 -115 -40 -178t-117 -93l-3 6q47 42 71 106.5t24 160.5zM89 652q0 21 16.5 37.5t37.5 16.5t37.5 -16.5t16.5 -37.5t-16.5 -37.5t-37.5 -16.5t-37.5 16.5t-16.5 37.5z" />
    <glyph glyph-name="k" unicode="k" horiz-adv-x="549" 
d="M216 261l112 130q17 20 27.5 43t3.5 41.5t-30 24.5v8h188v-8q-39 -14 -76.5 -39.5t-85.5 -76.5l-88 -93l140 -159q41 -46 72.5 -77.5t64.5 -46.5v-8q-18 -11 -42 -11q-33 0 -63 20.5t-76 73.5l-147 170v8zM179 750v-644q0 -46 8.5 -67.5t30.5 -30.5v-8h-143v8
q22 9 30.5 30.5t8.5 67.5v515q0 63 -44 82v8z" />
    <glyph glyph-name="l" unicode="l" horiz-adv-x="293" 
d="M179 750v-644q0 -46 8.5 -67.5t30.5 -30.5v-8h-143v8q22 9 30.5 30.5t8.5 67.5v515q0 63 -44 82v8z" />
    <glyph glyph-name="m" unicode="m" horiz-adv-x="934" 
d="M825 374v-268q0 -46 8.5 -67.5t30.5 -30.5v-8h-143v8q22 9 30.5 30.5t8.5 67.5v236q0 61 -23.5 90t-71.5 29q-74 0 -163 -71v-16v-268q0 -46 8.5 -67.5t30.5 -30.5v-8h-143v8q22 9 30.5 30.5t8.5 67.5v236q0 61 -23.5 90t-71.5 29q-34 0 -73 -15t-90 -55v-285
q0 -46 8.5 -67.5t30.5 -30.5v-8h-143v8q22 9 30.5 30.5t8.5 67.5v287q0 27 -8 46.5t-36 32.5v8l109 39v-106q29 33 67 59t71.5 36.5t56.5 10.5q57 0 87.5 -29.5t37.5 -78.5q46 50 97 79t101 29q43 0 71.5 -17.5t42.5 -50t14 -77.5z" />
    <glyph glyph-name="n" unicode="n" horiz-adv-x="626" 
d="M179 391v-285q0 -46 8.5 -67.5t30.5 -30.5v-8h-143v8q22 9 30.5 30.5t8.5 67.5v287q0 27 -8 46.5t-36 32.5v8l109 39v-106q106 106 205 106q133 0 133 -145v-268q0 -46 8.5 -67.5t30.5 -30.5v-8h-143v8q22 9 30.5 30.5t8.5 67.5v236q0 62 -23.5 90.5t-76.5 28.5
q-34 0 -79.5 -16.5t-93.5 -53.5z" />
    <glyph glyph-name="o" unicode="o" horiz-adv-x="595" 
d="M540 262q0 -61 -17.5 -112t-50.5 -86.5t-79 -55t-101 -19.5q-53 0 -97.5 19t-75.5 54t-47.5 82.5t-16.5 101.5q0 61 17.5 112t50.5 86.5t79 55t101 19.5q53 0 97.5 -19t75.5 -54t47.5 -82.5t16.5 -101.5zM128 263q0 -113 49.5 -181.5t129.5 -68.5q69 0 114.5 62.5
t45.5 169.5q0 113 -49.5 181.5t-129.5 68.5q-69 0 -114.5 -62.5t-45.5 -169.5z" />
    <glyph glyph-name="p" unicode="p" horiz-adv-x="606" 
d="M179 402v-289q14 -46 46.5 -73t82.5 -27q79 0 124.5 62.5t45.5 176.5q0 103 -46.5 159.5t-118.5 56.5q-36 0 -74 -19.5t-60 -46.5zM179 519v-93q23 35 66.5 64t92.5 29q48 0 87.5 -17.5t67.5 -50.5t43 -79.5t15 -102.5q0 -61 -17.5 -113t-50 -89.5t-78.5 -57.5t-101 -20
q-39 0 -71 9t-54 23v-154q0 -35 8 -61t41 -37v-8h-153v8q22 9 30.5 30.5t8.5 67.5v526q0 27 -8 46.5t-36 32.5v8z" />
    <glyph glyph-name="q" unicode="q" horiz-adv-x="591" 
d="M422 -133v215q-23 -35 -66.5 -64t-92.5 -29q-48 0 -87.5 17.5t-67.5 50.5t-43 79.5t-15 102.5q0 61 17.5 113t51 89.5t81.5 57.5t106 20q61 0 112 -15t85 -38q-16 -32 -16 -112v-487q0 -46 8.5 -67.5t30.5 -30.5v-8h-153v8q27 9 38 30.5t11 67.5zM300 495
q-84 0 -130.5 -62t-46.5 -177q0 -103 46.5 -159.5t118.5 -56.5q36 0 74 19.5t60 46.5v341q-49 48 -122 48z" />
    <glyph glyph-name="r" unicode="r" horiz-adv-x="401" 
d="M179 409q30 38 61.5 65t55 36t38.5 9q24 1 40.5 -15t16.5 -38q0 -23 -15 -38.5t-38 -15.5q-20 0 -35.5 16t-16.5 41q-18 -2 -49 -27.5t-58 -60.5v-275q0 -35 8 -61t41 -37v-8h-153v8q22 9 30.5 30.5t8.5 67.5v287q0 27 -8 46.5t-36 32.5v8l109 39v-110z" />
    <glyph glyph-name="s" unicode="s" horiz-adv-x="443" 
d="M221 -9q-46 -1 -86.5 13t-62.5 35t-22 46q0 22 14 36.5t35 14.5t35.5 -13t14.5 -33q0 -14 -7.5 -26.5t-19.5 -18.5q16 -17 44 -25t54 -8q25 0 53.5 8.5t47.5 32t19 54.5q0 27 -10 46t-30 37.5t-88 48.5t-87 42t-32 25.5t-20.5 27.5t-10.5 27t-3 28q0 33 18.5 61.5
t57 48.5t94.5 20q33 0 70 -10t61.5 -34.5t24.5 -51.5q0 -20 -13.5 -34.5t-34.5 -14.5t-35.5 13t-14.5 33q0 15 9 28t23 19q-11 13 -38 21.5t-57 8.5q-25 0 -50.5 -8.5t-40 -29.5t-14.5 -46q0 -29 16.5 -49.5t42 -35t77.5 -37t80.5 -42t45.5 -46.5t17 -64q0 -39 -21 -72
t-61.5 -55t-94.5 -21z" />
    <glyph glyph-name="t" unicode="t" horiz-adv-x="349" 
d="M335 58l4 -8q-21 -23 -55 -38t-66 -15q-104 0 -104 127v341h-81v24q48 19 79 53.5t47 95.5h20v-140l156 10l-9 -43h-147v-328q0 -52 17 -74t58 -22q44 0 81 17z" />
    <glyph glyph-name="u" unicode="u" horiz-adv-x="614" 
d="M435 117v276q0 27 -8 46.5t-36 32.5v8l109 39v-404q0 -32 9 -56.5t35 -35.5v-8l-109 -26v106q-49 -55 -95 -80.5t-98 -25.5q-65 0 -99 38t-34 107v259q0 27 -8 46.5t-36 32.5v8l109 39v-353q0 -62 23.5 -90.5t76.5 -28.5q75 0 161 70z" />
    <glyph glyph-name="v" unicode="v" horiz-adv-x="521" 
d="M257 -11l-163 390q-23 54 -38 78.5t-41 42.5v8h156v-8q-24 -16 -25 -43.5t19 -75.5l122 -299l98 277q19 54 16.5 91t-26.5 50v8h141v-8q-27 -14 -49 -47t-51 -108l-140 -356h-19z" />
    <glyph glyph-name="w" unicode="w" horiz-adv-x="791" 
d="M640 508h141v-8q-28 -14 -49 -47.5t-47 -109.5l-120 -354h-19l-152 364l-140 -364h-19l-143 390q-21 57 -34 80t-38 41v8h156v-8q-25 -16 -27.5 -43t14.5 -76l103 -299l112 311q-12 32 -27 59t-45 48v8h156v-8q-25 -16 -26.5 -43.5t18.5 -75.5l121 -299l81 280
q32 112 -16 138v8z" />
    <glyph glyph-name="x" unicode="x" horiz-adv-x="563" 
d="M312 278l135 -177q31 -41 51.5 -61.5t44.5 -31.5v-8h-170v8q22 10 23 32t-24 55l-109 143l-89 -124q-29 -40 -27 -68.5t28 -37.5v-8h-165v8q27 11 56 33.5t78 82.5l106 130l-116 153q-32 41 -52.5 61.5t-43.5 31.5v8h170v-8q-22 -10 -23 -32t24 -55l91 -119l70 98
q32 44 28.5 71.5t-28.5 36.5v8h165v-8q-36 -15 -66.5 -42t-71.5 -77z" />
    <glyph glyph-name="y" unicode="y" horiz-adv-x="521" 
d="M258 -5l-164 384q-23 54 -38 78.5t-41 42.5v8h156v-8q-24 -16 -25 -43.5t19 -75.5l123 -295l91 255q47 131 -4 159v8h141v-8q-27 -13 -49 -47.5t-57 -123.5l-119 -299q-32 -140 -86.5 -210t-123.5 -70q-22 0 -49 8.5t-50 31.5v8q124 4 186.5 56t89.5 141z" />
    <glyph glyph-name="z" unicode="z" horiz-adv-x="493" 
d="M453 508v-10l-330 -482l154 7q62 3 100.5 28t52.5 94h10v-145h-400v10l329 483l-162 -7q-52 -2 -79 -18t-39 -41.5t-19 -53.5h-10v135h393z" />
    <glyph glyph-name="braceleft" unicode="{" horiz-adv-x="368" 
d="M40 307h7q30 0 55.5 17.5t35.5 44t10 49.5q0 39 -11 96.5t-11 93.5q0 71 43 112t110 41q41 0 69 -14l-4 -9l-24 3q-53 0 -86 -31t-33 -78q0 -39 12 -97.5t12 -93.5q0 -27 -10 -58.5t-35 -54t-56 -27.5q31 -5 56 -27.5t35 -54t10 -58.5q0 -35 -12 -93.5t-12 -97.5
q0 -34 18.5 -61t47 -37.5t53.5 -10.5l24 3l4 -9q-28 -14 -69 -14q-67 0 -110 41t-43 112q0 36 11 93.5t11 96.5q0 23 -10 49.5t-35.5 44t-55.5 17.5h-7v12z" />
    <glyph glyph-name="bar" unicode="|" horiz-adv-x="278" 
d="M164 -250h-50v1000h50v-1000z" />
    <glyph glyph-name="braceright" unicode="}" horiz-adv-x="368" 
d="M328 295h-7q-30 0 -55.5 -17.5t-35.5 -44t-10 -49.5q0 -39 11 -96.5t11 -93.5q0 -71 -43 -112t-110 -41q-41 0 -69 14l4 9l24 -3q25 0 53.5 10.5t47 37.5t18.5 61q0 39 -12 97.5t-12 93.5q0 27 10 58.5t35 54t56 27.5q-31 5 -56 27.5t-35 54t-10 58.5q0 35 12 93.5
t12 97.5q0 47 -33 78t-86 31l-24 -3l-4 9q28 14 69 14q67 0 110 -41t43 -112q0 -36 -11 -93.5t-11 -96.5q0 -23 10 -49.5t35.5 -44t55.5 -17.5h7v-12z" />
    <glyph glyph-name="asciitilde" unicode="~" horiz-adv-x="629" 
d="M50 188v8q1 29 14 67.5t48 66.5t90 28q21 0 40 -5.5t35 -13.5t66.5 -39t93.5 -31q25 0 52.5 9.5t47.5 32t31 51.5h12v-11q-2 -29 -15 -66.5t-48 -65t-89 -27.5q-23 0 -48 8.5t-70.5 36t-69.5 36t-47 8.5q-25 0 -52.5 -9.5t-47.5 -32t-31 -51.5h-12z" />
    <glyph glyph-name="uni00A0" unicode="&#xa0;" horiz-adv-x="300" 
 />
    <glyph glyph-name="exclamdown" unicode="&#xa1;" horiz-adv-x="320" 
d="M164 305l36 -327q1 -6 3 -27t3 -32t1 -18q0 -33 -12 -54t-36 -21t-36 21t-12 54q0 3 0.5 12.5t3 34t3.5 30.5l36 327h10zM100 459q0 24 18 42t42 18t42 -18t18 -42t-18 -42t-42 -18t-42 18t-18 42z" />
    <glyph glyph-name="cent" unicode="&#xa2;" horiz-adv-x="500" 
d="M277 42l-4 450q-63 -12 -104 -75.5t-41 -153.5q0 -57 18 -102t51.5 -77t79.5 -42zM456 102l7 -8q-35 -52 -79 -76.5t-86 -27.5l-1 -110h-18l-1 109q-47 1 -88.5 21t-71.5 55t-46.5 82.5t-16.5 101.5q0 40 11.5 83.5t39 82t70 67t97.5 35.5l-1 109h30l-1 -107
q49 0 84.5 -17t48.5 -40.5t13 -42.5q0 -22 -14.5 -37t-35.5 -15q-20 0 -34.5 13.5t-14.5 35.5q0 18 11.5 31t26.5 17q-28 30 -85 30l-3 -454l13 -1q38 0 77 17t68 46z" />
    <glyph glyph-name="sterling" unicode="&#xa3;" horiz-adv-x="500" 
d="M458 138h10v-138h-423v10l6 3q52 27 73.5 80t21.5 127q0 44 -15 91l-96 2v19l89 2q-15 47 -22.5 75.5t-7.5 60.5q0 39 15 75t44 62.5t71.5 42t93.5 15.5q62 0 100.5 -28.5t38.5 -69.5q0 -26 -16 -42t-40 -16q-23 0 -38.5 16t-15.5 37q0 14 9 29.5t33 20.5q-7 12 -28 20.5
t-45 8.5q-43 0 -75 -19.5t-50.5 -54t-18.5 -73.5q0 -58 31 -159l196 4v-33l-189 4q16 -55 16 -88q0 -41 -18.5 -77.5t-46 -62t-51.5 -41.5l212 11q66 4 93.5 22.5t42.5 63.5z" />
    <glyph glyph-name="currency" unicode="&#xa4;" horiz-adv-x="579" 
d="M290 182q37 0 68 17.5t53 51.5t22 76q0 37 -16.5 69t-49.5 55t-77 23q-37 0 -68.5 -17.5t-53.5 -51.5t-22 -78q0 -45 25 -81t57 -50t62 -14zM499 148l-24 -24l-71 69q-50 -42 -115 -42q-66 0 -115 43l-60 -60l-24 24l60 60q-17 22 -27.5 52t-10.5 58q0 32 11.5 62.5
t31.5 53.5l-63 63l24 25l64 -65q21 17 51 27.5t58 10.5q29 0 59 -10.5t51 -27.5l70 70l24 -24l-70 -70q43 -49 43 -115q0 -30 -10 -59t-29 -51z" />
    <glyph glyph-name="yen" unicode="&#xa5;" horiz-adv-x="608" 
d="M435 674h163v-8q-24 -13 -51.5 -45t-67.5 -101l-71 -121l149 2v-29l-164 1l-49 -84v-20l213 2v-29l-213 1v-137q0 -46 8.5 -67.5t30.5 -30.5v-8h-149v8q22 9 30.5 30.5t8.5 67.5v138l-198 1v22l198 2v4l-58 101l-140 1v22l126 1l-92 160q-23 40 -42 67t-47 41v8h171v-8
q-22 -15 -21.5 -45t24.5 -71l136 -233l111 209q29 55 26 92t-32 48v8z" />
    <glyph glyph-name="brokenbar" unicode="&#xa6;" horiz-adv-x="278" 
d="M164 331h-50v419h50v-419zM114 168h50v-418h-50v418z" />
    <glyph glyph-name="section" unicode="&#xa7;" horiz-adv-x="583" 
d="M132 297q0 -45 36 -80t115.5 -72t103.5 -50q27 19 45.5 49.5t18.5 62.5q0 29 -14 53.5t-43.5 47t-102 55.5t-96.5 46q-25 -15 -44 -47.5t-19 -64.5zM405 85q86 -52 86 -123q0 -46 -27.5 -80.5t-75 -50t-95.5 -15.5q-14 0 -50 4.5t-75.5 22.5t-58.5 42.5t-19 48.5
q0 23 14.5 38.5t37.5 15.5q22 0 37.5 -14.5t15.5 -36.5q0 -15 -7 -27.5t-17 -18.5q15 -21 49 -35.5t74 -14.5q62 0 95 25.5t33 69.5q0 24 -14 43.5t-41.5 38.5t-102 54t-111 60t-57.5 56.5t-21 71.5q0 26 10.5 57t35.5 58.5t56 44.5q-78 47 -78 116q0 46 25.5 78.5t69.5 50
t93 17.5q14 0 50 -4.5t74 -22t56.5 -42t18.5 -48.5q0 -23 -14.5 -38.5t-37.5 -15.5q-22 0 -37.5 14.5t-15.5 36.5q0 15 7 27.5t17 18.5q-15 20 -46 34.5t-67 14.5q-58 0 -91 -26.5t-33 -71.5q0 -35 31 -62t113.5 -64t118.5 -61.5t56.5 -55t20.5 -70.5q0 -38 -16.5 -71.5
t-41 -55.5t-45.5 -34z" />
    <glyph glyph-name="dieresis" unicode="&#xa8;" 
d="M458 655q0 -23 -16.5 -39.5t-39.5 -16.5t-39.5 16.5t-16.5 39.5t16.5 39.5t39.5 16.5t39.5 -16.5t16.5 -39.5zM254 655q0 -23 -16.5 -39.5t-39.5 -16.5t-39.5 16.5t-16.5 39.5t16.5 39.5t39.5 16.5t39.5 -16.5t16.5 -39.5z" />
    <glyph glyph-name="copyright" unicode="&#xa9;" horiz-adv-x="800" 
d="M237 342q0 35 13.5 66.5t38 55t57 37t69.5 13.5q27 0 57 -6.5t53 -17.5v-94h-9q-12 46 -38 72.5t-64 26.5q-22 0 -49 -12.5t-43.5 -34t-26 -47.5t-9.5 -61q0 -45 16 -80t45.5 -57.5t66.5 -22.5q41 0 69 27t39 72h9v-92q-22 -11 -53.5 -18t-62.5 -7q-36 0 -68.5 12.5
t-57 36t-38.5 57t-14 74.5zM60 328q0 68 26.5 130.5t73.5 109.5t109.5 73.5t130.5 26.5q87 0 165 -42.5t126.5 -122.5t48.5 -175q0 -68 -26.5 -130.5t-73 -109.5t-109.5 -73.5t-131 -26.5t-130.5 26.5t-109.5 73.5t-73.5 109.5t-26.5 130.5zM92 328q0 -61 23 -118t65 -101
t99 -68.5t120 -24.5q64 0 121 24.5t99 68.5t65.5 101t23.5 118q0 62 -23.5 119t-65.5 100.5t-99 68.5t-121 25q-63 0 -120 -25t-99 -68.5t-65 -100.5t-23 -119z" />
    <glyph glyph-name="ordfeminine" unicode="&#xaa;" horiz-adv-x="404" 
d="M256 410v92q-20 4 -32 4q-50 0 -78.5 -22t-28.5 -59q0 -28 17 -44.5t44 -16.5q22 0 43.5 14t34.5 32zM343 368h13v-7q-8 -11 -22 -18t-29 -7t-30 10t-18 37q-15 -21 -40.5 -35.5t-57.5 -14.5q-31 0 -55.5 13.5t-34 34.5t-9.5 40q0 22 12.5 47t47 41t87.5 16q30 0 49 -4
v63q0 40 -18.5 60.5t-52.5 20.5q-21 0 -38 -7t-26 -18q12 -4 19.5 -13t7.5 -21q0 -14 -10 -23t-27 -9q-15 0 -25.5 10t-10.5 25t12 33t41 30.5t62 12.5q57 0 85.5 -28t28.5 -72v-174q0 -18 5.5 -30.5t33.5 -12.5z" />
    <glyph glyph-name="guillemotleft" unicode="&#xab;" horiz-adv-x="505" 
d="M250 263q52 31 105 78.5t94 100.5l16 -12l-120 -177l120 -177l-16 -12q-41 53 -94 100.5t-105 78.5v20zM50 263q52 31 105 78.5t94 100.5l16 -12l-120 -177l120 -177l-16 -12q-41 53 -94 100.5t-105 78.5v20z" />
    <glyph glyph-name="logicalnot" unicode="&#xac;" horiz-adv-x="596" 
d="M65 448h466v-222h-37v188h-429v34z" />
    <glyph glyph-name="uni00AD" unicode="&#xad;" horiz-adv-x="367" 
d="M60 248v54h247v-54h-247z" />
    <glyph glyph-name="registered" unicode="&#xae;" horiz-adv-x="800" 
d="M275 512h118q62 0 98 -25.5t36 -70.5q0 -21 -9.5 -43.5t-36.5 -38.5t-64 -21q40 -45 71.5 -79.5t70.5 -66.5l-3 -4q-8 -7 -24 -7q-19 0 -39 14t-57 57l-77 89l2 8q58 0 86.5 26t28.5 65q0 79 -101 79h-35v-266q0 -36 21 -57v-5h-86v5q22 19 22 57v222q0 39 -22 58v4z
M399 16q64 0 121 24.5t99 68.5t65.5 101t23.5 118q0 62 -23.5 119t-65.5 100.5t-99 68.5t-121 25q-63 0 -120 -25t-99 -68.5t-65 -100.5t-23 -119q0 -61 23 -118t65 -101t99 -68.5t120 -24.5zM400 668q87 0 165 -42.5t126.5 -122.5t48.5 -175q0 -68 -26.5 -130.5t-73 -109.5
t-109.5 -73.5t-131 -26.5t-130.5 26.5t-109.5 73.5t-73.5 109.5t-26.5 130.5t26.5 130.5t73.5 109.5t109.5 73.5t130.5 26.5z" />
    <glyph glyph-name="macron" unicode="&#xaf;" 
d="M146 638v34h307v-34h-307z" />
    <glyph glyph-name="degree" unicode="&#xb0;" horiz-adv-x="456" 
d="M70 511q0 73 44.5 118t117.5 45q71 0 113 -41t41 -108q1 -74 -43 -118.5t-119 -44.5q-69 0 -111.5 41t-42.5 108zM327 512q1 60 -27.5 98t-75.5 38q-43 0 -69 -34t-26 -90q0 -60 29 -98t74 -38q32 0 55.5 19.5t32 49t7.5 55.5z" />
    <glyph glyph-name="plusminus" unicode="&#xb1;" horiz-adv-x="629" 
d="M65 74v34h499v-34h-499zM333 399h231v-34h-231v-187h-37v187h-231v34h231v186h37v-186z" />
    <glyph glyph-name="uni00B2" unicode="&#xb2;" horiz-adv-x="277" 
d="M246 338h-231v29q79 63 113.5 94.5t49 61.5t14.5 57q0 39 -18.5 62t-50.5 23q-16 0 -32 -7.5t-24 -21.5q9 -3 14 -11t5 -17q0 -13 -10 -21.5t-23 -8.5t-24 9t-11 25q0 20 18.5 39t43 26.5t44.5 7.5q27 0 56.5 -10.5t48 -36t18.5 -56.5q0 -20 -11 -47t-47 -62t-123 -97h87
q61 0 91 30h14z" />
    <glyph glyph-name="uni00B3" unicode="&#xb3;" horiz-adv-x="338" 
d="M114 502v13q69 15 91 37t22 48q0 28 -15.5 46t-45.5 18q-20 0 -38.5 -9t-27.5 -22q9 -3 14.5 -10.5t5.5 -16.5q0 -12 -9 -21t-23 -9t-24 9.5t-10 22.5q0 14 11 32t39.5 31t61.5 13q23 0 51 -7.5t47.5 -28t19.5 -47.5q0 -49 -67 -76q37 -7 59 -30.5t22 -57.5
q0 -49 -40.5 -79t-93.5 -30q-34 1 -62.5 13.5t-40 30t-11.5 31.5q0 13 9.5 24t25.5 11t24.5 -9.5t8.5 -20.5q0 -9 -5.5 -17t-14.5 -11q9 -15 27.5 -22.5t38.5 -7.5q32 0 54.5 21.5t22.5 56.5q0 38 -22.5 56t-76.5 18h-28z" />
    <glyph glyph-name="acute" unicode="&#xb4;" 
d="M342 731h100l-160 -152h-24z" />
    <glyph glyph-name="uni00B5" unicode="&#xb5;" horiz-adv-x="614" 
d="M500 519v-404q0 -32 9 -56.5t35 -35.5v-8l-109 -26v106q-49 -55 -95 -80.5t-98 -25.5q-25 0 -47.5 7.5t-37.5 19.5q3 -38 7 -69t12 -69.5t8 -53.5q0 -17 -9.5 -26t-26.5 -9q-39 0 -39 52v552q0 27 -8 46.5t-36 32.5v8l109 39v-353q0 -62 23.5 -90.5t76.5 -28.5
q75 0 161 70v276q0 27 -8 46.5t-36 32.5v8z" />
    <glyph glyph-name="paragraph" unicode="&#xb6;" horiz-adv-x="478" 
d="M453 674v-8q-21 -14 -32.5 -37.5t-11.5 -70.5v-530q0 -69 -15 -114.5t-50 -71.5t-95 -26q-47 0 -84 15.5t-56 40t-19 58.5q0 31 20 52t49 21q31 0 52.5 -21.5t21.5 -53.5q0 -18 -8.5 -34.5t-20.5 -23.5q1 -14 17.5 -24t36.5 -10q50 0 73.5 44.5t23.5 142.5v635l-113 -14
v-413q-37 0 -72.5 11.5t-65 37t-47 69.5t-17.5 104q0 38 12 77.5t40.5 71t72 52t98.5 20.5h190z" />
    <glyph glyph-name="periodcentered" unicode="&#xb7;" 
d="M358 355q0 -24 -17 -41t-41 -17t-41 17t-17 41t17 41t41 17t41 -17t17 -41z" />
    <glyph glyph-name="cedilla" unicode="&#xb8;" 
d="M201 -191l5 16q34 -17 67 -17q27 0 44.5 14t17.5 37t-22 40.5t-66 19.5l52 83h34l-29 -67q42 -3 68.5 -24.5t26.5 -50.5q0 -35 -27.5 -56.5t-73.5 -21.5q-26 0 -53 8t-44 19z" />
    <glyph glyph-name="uni00B9" unicode="&#xb9;" horiz-adv-x="211" 
d="M131 685v-288q0 -43 20 -52v-7h-90v7q8 3 14 13t6 39v221l-41 -10v8z" />
    <glyph glyph-name="ordmasculine" unicode="&#xba;" horiz-adv-x="420" 
d="M50 501q0 51 19.5 95t58.5 66.5t86 22.5q73 0 114.5 -49t41.5 -125q0 -83 -43.5 -133.5t-120.5 -50.5q-72 0 -114 49t-42 125zM107 512q0 -45 13.5 -84t40 -58.5t55.5 -19.5q42 0 69.5 41t27.5 109q0 33 -6.5 60.5t-18 48.5t-33 37t-51.5 16q-42 0 -69.5 -41t-27.5 -109z
" />
    <glyph glyph-name="guillemotright" unicode="&#xbb;" horiz-adv-x="505" 
d="M360 253l-120 177l16 12q41 -53 94 -100.5t105 -78.5v-20q-52 -31 -105 -78.5t-94 -100.5l-16 12zM160 253l-120 177l16 12q41 -53 94 -100.5t105 -78.5v-20q-52 -31 -105 -78.5t-94 -100.5l-16 12z" />
    <glyph glyph-name="onequarter" unicode="&#xbc;" horiz-adv-x="568" 
d="M61 338v7q8 3 14 13t6 39v221l-41 -10v8l91 69v-288q0 -43 20 -52v-7h-90zM370 657h45l-266 -657h-45zM328 108h108v167zM525 74h-39v-15q0 -43 20 -52v-7h-90v7q8 3 14 13t6 39v15h-152v25l159 220h43v-211h44z" />
    <glyph glyph-name="onehalf" unicode="&#xbd;" horiz-adv-x="622" 
d="M131 685v-288q0 -43 20 -52v-7h-90v7q8 3 14 13t6 39v221l-41 -10v8zM104 0l266 657h45l-266 -657h-45zM570 0h-231v29q79 63 113.5 94.5t49 61.5t14.5 57q0 39 -18.5 62t-50.5 23q-16 0 -32 -7.5t-24 -21.5q9 -3 14 -11t5 -17q0 -13 -10 -21.5t-23 -8.5t-24 9t-11 25
q0 20 18.5 39t43 26.5t44.5 7.5q27 0 56.5 -10.5t48 -36t18.5 -56.5q0 -20 -11 -47t-47 -62t-123 -97h87q61 0 91 30h14z" />
    <glyph glyph-name="threequarters" unicode="&#xbe;" horiz-adv-x="666" 
d="M114 502v13q69 15 91 37t22 48q0 28 -15.5 46t-45.5 18q-20 0 -38.5 -9t-27.5 -22q9 -3 14.5 -10.5t5.5 -16.5q0 -12 -9 -21t-23 -9t-24 9.5t-10 22.5q0 14 11 32t39.5 31t61.5 13q23 0 51 -7.5t47.5 -28t19.5 -47.5q0 -49 -67 -76q37 -7 59 -30.5t22 -57.5
q0 -49 -40.5 -79t-93.5 -30q-34 1 -62.5 13.5t-40 30t-11.5 31.5q0 13 9.5 24t25.5 11t24.5 -9.5t8.5 -20.5q0 -9 -5.5 -17t-14.5 -11q9 -15 27.5 -22.5t38.5 -7.5q32 0 54.5 21.5t22.5 56.5q0 38 -22.5 56t-76.5 18h-28zM466 657h45l-266 -657h-45zM424 108h108v167z
M621 74h-39v-15q0 -43 20 -52v-7h-90v7q8 3 14 13t6 39v15h-152v25l159 220h43v-211h44z" />
    <glyph glyph-name="questiondown" unicode="&#xbf;" horiz-adv-x="509" 
d="M274 399q-24 0 -42 18t-18 42t18 42t42 18t42 -18t18 -42t-18 -42t-42 -18zM282 305l27 -162q-93 -6 -143.5 -43t-50.5 -105t41 -106.5t113 -38.5q48 0 85.5 19.5t54.5 53.5q-18 5 -29.5 18t-11.5 32q0 20 14.5 33.5t34.5 13.5q23 0 37.5 -16t14.5 -42q0 -21 -10.5 -44
t-36 -43.5t-65 -34.5t-89.5 -14q-66 0 -119.5 23.5t-78.5 65t-25 84.5q0 28 10.5 57.5t34.5 55t63 45t91 28.5l24 120h14z" />
    <glyph glyph-name="Agrave" unicode="&#xc0;" horiz-adv-x="665" 
d="M375 745h-24l-160 152h100zM184 237h269l-137 334zM342 685l237 -576q15 -35 30.5 -59.5t45.5 -41.5v-8h-162v8q44 23 7 114l-37 91h-288l-22 -55q-24 -60 -22.5 -96.5t29.5 -53.5v-8h-160v8q31 15 56 47.5t53 98.5l224 531h9z" />
    <glyph glyph-name="Aacute" unicode="&#xc1;" horiz-adv-x="665" 
d="M475 897l-160 -152h-24l84 152h100zM184 237h269l-137 334zM342 685l237 -576q15 -35 30.5 -59.5t45.5 -41.5v-8h-162v8q44 23 7 114l-37 91h-288l-22 -55q-24 -60 -22.5 -96.5t29.5 -53.5v-8h-160v8q31 15 56 47.5t53 98.5l224 531h9z" />
    <glyph glyph-name="Acircumflex" unicode="&#xc2;" horiz-adv-x="665" 
d="M333 818l-141 -73l-6 6l143 146h8l143 -146l-6 -6zM184 237h269l-137 334zM342 685l237 -576q15 -35 30.5 -59.5t45.5 -41.5v-8h-162v8q44 23 7 114l-37 91h-288l-22 -55q-24 -60 -22.5 -96.5t29.5 -53.5v-8h-160v8q31 15 56 47.5t53 98.5l224 531h9z" />
    <glyph glyph-name="Atilde" unicode="&#xc3;" horiz-adv-x="665" 
d="M191 761h-8q-2 8 -2 25q0 28 12 51t32 32.5t39 9.5q27 0 68 -26t56.5 -30.5t24.5 -4.5q27 0 43 17.5t18 45.5h8q2 -8 2 -25q0 -28 -12 -51t-32 -32.5t-39 -9.5q-25 0 -66.5 26t-57.5 30.5t-25 4.5q-27 0 -43 -17.5t-18 -45.5zM184 237h269l-137 334zM342 685l237 -576
q15 -35 30.5 -59.5t45.5 -41.5v-8h-162v8q44 23 7 114l-37 91h-288l-22 -55q-24 -60 -22.5 -96.5t29.5 -53.5v-8h-160v8q31 15 56 47.5t53 98.5l224 531h9z" />
    <glyph glyph-name="Adieresis" unicode="&#xc4;" horiz-adv-x="665" 
d="M435 765q-23 0 -39.5 16.5t-16.5 39.5t16.5 39.5t39.5 16.5t39.5 -16.5t16.5 -39.5t-16.5 -39.5t-39.5 -16.5zM231 765q-23 0 -39.5 16.5t-16.5 39.5t16.5 39.5t39.5 16.5t39.5 -16.5t16.5 -39.5t-16.5 -39.5t-39.5 -16.5zM184 237h269l-137 334zM342 685l237 -576
q15 -35 30.5 -59.5t45.5 -41.5v-8h-162v8q44 23 7 114l-37 91h-288l-22 -55q-24 -60 -22.5 -96.5t29.5 -53.5v-8h-160v8q31 15 56 47.5t53 98.5l224 531h9z" />
    <glyph glyph-name="Aring" unicode="&#xc5;" horiz-adv-x="665" 
d="M333 869q-19 0 -33.5 -14.5t-14.5 -33.5t14.5 -33.5t33.5 -14.5t33.5 14.5t14.5 33.5t-14.5 33.5t-33.5 14.5zM333 738q-34 0 -58.5 24.5t-24.5 58.5t24.5 58.5t58.5 24.5t58.5 -24.5t24.5 -58.5t-24.5 -58.5t-58.5 -24.5zM184 237h269l-137 334zM342 685l237 -576
q15 -35 30.5 -59.5t45.5 -41.5v-8h-162v8q44 23 7 114l-37 91h-288l-22 -55q-24 -60 -22.5 -96.5t29.5 -53.5v-8h-160v8q31 15 56 47.5t53 98.5l224 531h9z" />
    <glyph glyph-name="AE" unicode="&#xc6;" horiz-adv-x="915" 
d="M237 237h224v385zM870 153h10v-153h-458v8q22 9 30.5 30.5t8.5 67.5v107h-238l-24 -42q-21 -36 -34 -71.5t-7.5 -60t28.5 -31.5v-8h-186v8q35 10 71 47t90 126l300 493h404v-134h-10q-19 54 -55 81.5t-126 27.5h-142v-297l121 4q45 1 68.5 22t33.5 68h8v-201h-8
q-11 46 -35 65t-70 20l-118 4v-243q0 -35 19 -51t62 -16h82q55 0 88 10t53 35.5t34 83.5z" />
    <glyph glyph-name="Ccedilla" unicode="&#xc7;" horiz-adv-x="649" 
d="M614 495h-10q-29 82 -79 124t-132 42q-54 0 -101.5 -22.5t-82.5 -65t-54 -102.5t-19 -130q0 -73 19.5 -134t55 -104.5t85 -66.5t108.5 -23q80 0 128 37.5t71 115.5h10v-126q-69 -49 -201 -51l-23 -54q42 -3 68.5 -24.5t26.5 -50.5q0 -35 -27.5 -56.5t-73.5 -21.5
q-26 0 -53 8t-44 19l5 16q34 -17 67 -17q27 0 44.5 14t17.5 37t-22 40.5t-66 19.5l44 71q-69 4 -128.5 30t-102.5 72t-66.5 110t-23.5 140q0 69 24.5 132t69.5 110.5t108 74t137 26.5q123 0 220 -54v-136z" />
    <glyph glyph-name="Egrave" unicode="&#xc8;" horiz-adv-x="578" 
d="M361 745h-24l-160 152h100zM533 153h10v-153h-458v8q22 9 30.5 30.5t8.5 67.5v462q0 46 -8.5 67.5t-30.5 30.5v8h443v-134h-10q-19 54 -55 81.5t-126 27.5h-142v-297l121 4q45 1 68.5 22t33.5 68h8v-201h-8q-11 46 -35 65t-70 20l-118 4v-243q0 -35 19 -51t62 -16h82
q55 0 88 10t53 35.5t34 83.5z" />
    <glyph glyph-name="Eacute" unicode="&#xc9;" horiz-adv-x="578" 
d="M461 897l-160 -152h-24l84 152h100zM533 153h10v-153h-458v8q22 9 30.5 30.5t8.5 67.5v462q0 46 -8.5 67.5t-30.5 30.5v8h443v-134h-10q-19 54 -55 81.5t-126 27.5h-142v-297l121 4q45 1 68.5 22t33.5 68h8v-201h-8q-11 46 -35 65t-70 20l-118 4v-243q0 -35 19 -51
t62 -16h82q55 0 88 10t53 35.5t34 83.5z" />
    <glyph glyph-name="Ecircumflex" unicode="&#xca;" horiz-adv-x="578" 
d="M319 818l-141 -73l-6 6l143 146h8l143 -146l-6 -6zM533 153h10v-153h-458v8q22 9 30.5 30.5t8.5 67.5v462q0 46 -8.5 67.5t-30.5 30.5v8h443v-134h-10q-19 54 -55 81.5t-126 27.5h-142v-297l121 4q45 1 68.5 22t33.5 68h8v-201h-8q-11 46 -35 65t-70 20l-118 4v-243
q0 -35 19 -51t62 -16h82q55 0 88 10t53 35.5t34 83.5z" />
    <glyph glyph-name="Edieresis" unicode="&#xcb;" horiz-adv-x="578" 
d="M421 765q-23 0 -39.5 16.5t-16.5 39.5t16.5 39.5t39.5 16.5t39.5 -16.5t16.5 -39.5t-16.5 -39.5t-39.5 -16.5zM217 765q-23 0 -39.5 16.5t-16.5 39.5t16.5 39.5t39.5 16.5t39.5 -16.5t16.5 -39.5t-16.5 -39.5t-39.5 -16.5zM533 153h10v-153h-458v8q22 9 30.5 30.5
t8.5 67.5v462q0 46 -8.5 67.5t-30.5 30.5v8h443v-134h-10q-19 54 -55 81.5t-126 27.5h-142v-297l121 4q45 1 68.5 22t33.5 68h8v-201h-8q-11 46 -35 65t-70 20l-118 4v-243q0 -35 19 -51t62 -16h82q55 0 88 10t53 35.5t34 83.5z" />
    <glyph glyph-name="Igrave" unicode="&#xcc;" horiz-adv-x="319" 
d="M195 568v-462q0 -46 8.5 -67.5t30.5 -30.5v-8h-149v8q22 9 30.5 30.5t8.5 67.5v462q0 46 -8.5 67.5t-30.5 30.5v8h149v-8q-22 -9 -30.5 -30.5t-8.5 -67.5zM17 897h100l84 -152h-24z" />
    <glyph glyph-name="Iacute" unicode="&#xcd;" horiz-adv-x="319" 
d="M195 568v-462q0 -46 8.5 -67.5t30.5 -30.5v-8h-149v8q22 9 30.5 30.5t8.5 67.5v462q0 46 -8.5 67.5t-30.5 30.5v8h149v-8q-22 -9 -30.5 -30.5t-8.5 -67.5zM201 897h100l-160 -152h-24z" />
    <glyph glyph-name="Icircumflex" unicode="&#xce;" horiz-adv-x="319" 
d="M85 666v8h149v-8q-22 -9 -30.5 -30.5t-8.5 -67.5v-462q0 -46 8.5 -67.5t30.5 -30.5v-8h-149v8q22 9 30.5 30.5t8.5 67.5v462q0 46 -8.5 67.5t-30.5 30.5zM163 897l143 -146l-6 -6l-141 73l-141 -73l-6 6l143 146h8z" />
    <glyph glyph-name="Idieresis" unicode="&#xcf;" horiz-adv-x="319" 
d="M195 568v-462q0 -46 8.5 -67.5t30.5 -30.5v-8h-149v8q22 9 30.5 30.5t8.5 67.5v462q0 46 -8.5 67.5t-30.5 30.5v8h149v-8q-22 -9 -30.5 -30.5t-8.5 -67.5zM317 821q0 -23 -16.5 -39.5t-39.5 -16.5t-39.5 16.5t-16.5 39.5t16.5 39.5t39.5 16.5t39.5 -16.5t16.5 -39.5z
M113 821q0 -23 -16.5 -39.5t-39.5 -16.5t-39.5 16.5t-16.5 39.5t16.5 39.5t39.5 16.5t39.5 -16.5t16.5 -39.5z" />
    <glyph glyph-name="Eth" unicode="&#xd0;" horiz-adv-x="725" 
d="M276 24h18q67 0 122 21.5t93.5 62t59 98.5t20.5 127q0 72 -21 131.5t-61.5 100.5t-100 63t-133.5 22h-78v-300l174 4v-28h-174v-235q0 -35 19 -51t62 -16zM85 674h205q91 0 163.5 -25t120.5 -70t72 -106.5t24 -133.5q0 -71 -26 -133.5t-75.5 -108.5t-120.5 -71.5
t-155 -25.5h-208v8q22 9 30.5 30.5t8.5 67.5v220h-89v20l89 2v220q0 46 -8.5 67.5t-30.5 30.5v8z" />
    <glyph glyph-name="Ntilde" unicode="&#xd1;" horiz-adv-x="723" 
d="M603 515l-9 -527h-14l-431 558l6 -378q3 -128 64 -160v-8h-159v8q27 13 43.5 53t17.5 108l3 336q1 69 -11.5 107t-47.5 54v8h80l427 -564v406q0 120 -59 150v8h149v-8q-19 -9 -33 -32.5t-19.5 -56t-6.5 -62.5zM220 761h-8q-2 8 -2 25q0 28 12 51t32 32.5t39 9.5
q27 0 68 -26t56.5 -30.5t24.5 -4.5q27 0 43 17.5t18 45.5h8q2 -8 2 -25q0 -28 -12 -51t-32 -32.5t-39 -9.5q-25 0 -66.5 26t-57.5 30.5t-25 4.5q-27 0 -43 -17.5t-18 -45.5z" />
    <glyph glyph-name="Ograve" unicode="&#xd2;" horiz-adv-x="768" 
d="M383 13q55 0 101 23t79 66.5t50.5 104.5t17.5 134q0 65 -18 124t-51 103t-79 68.5t-100 24.5t-100 -24.5t-79 -68.5t-50.5 -102.5t-17.5 -124.5q0 -72 18 -133t50.5 -104.5t78.5 -67t100 -23.5zM382 -11q-71 0 -132 24.5t-104.5 71t-67 112.5t-23.5 145q0 68 23.5 131
t67 110.5t105 74.5t132.5 27q73 0 134.5 -26.5t105.5 -73.5t67 -110t23 -133q0 -77 -24.5 -142.5t-69.5 -112.5t-106 -72.5t-131 -25.5zM242 897h100l84 -152h-24z" />
    <glyph glyph-name="Oacute" unicode="&#xd3;" horiz-adv-x="768" 
d="M426 897h100l-160 -152h-24zM383 13q55 0 101 23t79 66.5t50.5 104.5t17.5 134q0 65 -18 124t-51 103t-79 68.5t-100 24.5t-100 -24.5t-79 -68.5t-50.5 -102.5t-17.5 -124.5q0 -72 18 -133t50.5 -104.5t78.5 -67t100 -23.5zM382 -11q-71 0 -132 24.5t-104.5 71t-67 112.5
t-23.5 145q0 68 23.5 131t67 110.5t105 74.5t132.5 27q73 0 134.5 -26.5t105.5 -73.5t67 -110t23 -133q0 -77 -24.5 -142.5t-69.5 -112.5t-106 -72.5t-131 -25.5z" />
    <glyph glyph-name="Ocircumflex" unicode="&#xd4;" horiz-adv-x="768" 
d="M384 818l-141 -73l-6 6l143 146h8l143 -146l-6 -6zM383 13q55 0 101 23t79 66.5t50.5 104.5t17.5 134q0 65 -18 124t-51 103t-79 68.5t-100 24.5t-100 -24.5t-79 -68.5t-50.5 -102.5t-17.5 -124.5q0 -72 18 -133t50.5 -104.5t78.5 -67t100 -23.5zM383 685
q73 0 134.5 -26.5t105.5 -73.5t67 -110t23 -133q0 -77 -24.5 -142.5t-69.5 -112.5t-106 -72.5t-131 -25.5q-71 0 -132 24.5t-104.5 71t-67 112.5t-23.5 145q0 68 23.5 131t67 110.5t105 74.5t132.5 27z" />
    <glyph glyph-name="Otilde" unicode="&#xd5;" horiz-adv-x="768" 
d="M383 13q55 0 101 23t79 66.5t50.5 104.5t17.5 134q0 65 -18 124t-51 103t-79 68.5t-100 24.5t-100 -24.5t-79 -68.5t-50.5 -102.5t-17.5 -124.5q0 -72 18 -133t50.5 -104.5t78.5 -67t100 -23.5zM382 -11q-71 0 -132 24.5t-104.5 71t-67 112.5t-23.5 145q0 68 23.5 131
t67 110.5t105 74.5t132.5 27q73 0 134.5 -26.5t105.5 -73.5t67 -110t23 -133q0 -77 -24.5 -142.5t-69.5 -112.5t-106 -72.5t-131 -25.5zM242 761h-8q-2 8 -2 25q0 28 12 51t32 32.5t39 9.5q27 0 68 -26t56.5 -30.5t24.5 -4.5q27 0 43 17.5t18 45.5h8q2 -8 2 -25
q0 -28 -12 -51t-32 -32.5t-39 -9.5q-25 0 -66.5 26t-57.5 30.5t-25 4.5q-27 0 -43 -17.5t-18 -45.5z" />
    <glyph glyph-name="Odieresis" unicode="&#xd6;" horiz-adv-x="768" 
d="M542 821q0 -23 -16.5 -39.5t-39.5 -16.5t-39.5 16.5t-16.5 39.5t16.5 39.5t39.5 16.5t39.5 -16.5t16.5 -39.5zM338 821q0 -23 -16.5 -39.5t-39.5 -16.5t-39.5 16.5t-16.5 39.5t16.5 39.5t39.5 16.5t39.5 -16.5t16.5 -39.5zM383 13q55 0 101 23t79 66.5t50.5 104.5
t17.5 134q0 65 -18 124t-51 103t-79 68.5t-100 24.5t-100 -24.5t-79 -68.5t-50.5 -102.5t-17.5 -124.5q0 -72 18 -133t50.5 -104.5t78.5 -67t100 -23.5zM382 -11q-71 0 -132 24.5t-104.5 71t-67 112.5t-23.5 145q0 68 23.5 131t67 110.5t105 74.5t132.5 27q73 0 134.5 -26.5
t105.5 -73.5t67 -110t23 -133q0 -77 -24.5 -142.5t-69.5 -112.5t-106 -72.5t-131 -25.5z" />
    <glyph glyph-name="multiply" unicode="&#xd7;" horiz-adv-x="629" 
d="M505 177l-24 -24l-167 167l-165 -165l-24 24l165 165l-162 162l24 25l162 -163l160 160l24 -24l-160 -160z" />
    <glyph glyph-name="Oslash" unicode="&#xd8;" horiz-adv-x="737" 
d="M554 545l-354 -446q29 -41 72.5 -63.5t95.5 -22.5q54 0 98 24t74 67.5t45.5 104.5t15.5 132q0 119 -47 204zM186 122l349 451q-30 41 -73 64.5t-94 23.5q-53 0 -97 -25t-74 -69t-45.5 -102.5t-15.5 -123.5q0 -134 50 -219zM665 685l-73 -91q43 -46 66.5 -112t23.5 -140
q0 -80 -22.5 -146t-64 -112t-100 -70.5t-128.5 -24.5q-60 0 -111.5 17.5t-89.5 49.5l-52 -65l-18 15l52 67q-45 46 -69 114.5t-24 154.5q0 70 21.5 133t62 110t99.5 73.5t130 26.5q59 0 110.5 -18t90.5 -51l53 69h43z" />
    <glyph glyph-name="Ugrave" unicode="&#xd9;" horiz-adv-x="697" 
d="M364 -9q-54 0 -100 13t-79.5 40t-52 70.5t-18.5 101.5v352q0 46 -8.5 67.5t-30.5 30.5v8h149v-8q-22 -9 -30.5 -30.5t-8.5 -67.5v-342q0 -199 189 -199q31 0 63 7.5t58.5 28t43.5 58t17 95.5l-3 290q-1 72 -18.5 108.5t-47.5 51.5v8h169v-8q-20 -10 -35.5 -31t-24 -53
t-9.5 -77l-5 -290q-1 -70 -25.5 -119t-71.5 -77t-121 -28zM227 897h100l84 -152h-24z" />
    <glyph glyph-name="Uacute" unicode="&#xda;" horiz-adv-x="697" 
d="M411 897h100l-160 -152h-24zM364 -9q-54 0 -100 13t-79.5 40t-52 70.5t-18.5 101.5v352q0 46 -8.5 67.5t-30.5 30.5v8h149v-8q-22 -9 -30.5 -30.5t-8.5 -67.5v-342q0 -199 189 -199q31 0 63 7.5t58.5 28t43.5 58t17 95.5l-3 290q-1 72 -18.5 108.5t-47.5 51.5v8h169v-8
q-20 -10 -35.5 -31t-24 -53t-9.5 -77l-5 -290q-1 -70 -25.5 -119t-71.5 -77t-121 -28z" />
    <glyph glyph-name="Ucircumflex" unicode="&#xdb;" horiz-adv-x="697" 
d="M369 818l-141 -73l-6 6l143 146h8l143 -146l-6 -6zM487 674h169v-8q-20 -10 -35.5 -31t-24 -53t-9.5 -77l-5 -290q-1 -70 -25.5 -119t-71.5 -77t-121 -28q-54 0 -100 13t-79.5 40t-52 70.5t-18.5 101.5v352q0 46 -8.5 67.5t-30.5 30.5v8h149v-8q-22 -9 -30.5 -30.5
t-8.5 -67.5v-342q0 -199 189 -199q31 0 63 7.5t58.5 28t43.5 58t17 95.5l-3 290q-1 72 -18.5 108.5t-47.5 51.5v8z" />
    <glyph glyph-name="Udieresis" unicode="&#xdc;" horiz-adv-x="697" 
d="M527 821q0 -23 -16.5 -39.5t-39.5 -16.5t-39.5 16.5t-16.5 39.5t16.5 39.5t39.5 16.5t39.5 -16.5t16.5 -39.5zM323 821q0 -23 -16.5 -39.5t-39.5 -16.5t-39.5 16.5t-16.5 39.5t16.5 39.5t39.5 16.5t39.5 -16.5t16.5 -39.5zM364 -9q-54 0 -100 13t-79.5 40t-52 70.5
t-18.5 101.5v352q0 46 -8.5 67.5t-30.5 30.5v8h149v-8q-22 -9 -30.5 -30.5t-8.5 -67.5v-342q0 -199 189 -199q31 0 63 7.5t58.5 28t43.5 58t17 95.5l-3 290q-1 72 -18.5 108.5t-47.5 51.5v8h169v-8q-20 -10 -35.5 -31t-24 -53t-9.5 -77l-5 -290q-1 -70 -25.5 -119t-71.5 -77
t-121 -28z" />
    <glyph glyph-name="Yacute" unicode="&#xdd;" horiz-adv-x="608" 
d="M446 897l-160 -152h-24l84 152h100zM435 674h163v-8q-24 -13 -51.5 -45t-67.5 -101l-135 -231v-183q0 -46 8.5 -67.5t30.5 -30.5v-8h-149v8q22 9 30.5 30.5t8.5 67.5v167l-164 285q-23 40 -42 67t-47 41v8h171v-8q-22 -15 -21.5 -45t24.5 -71l136 -233l111 209
q29 55 26 92t-32 48v8z" />
    <glyph glyph-name="Thorn" unicode="&#xde;" horiz-adv-x="575" 
d="M195 543h82q129 0 198.5 -50.5t69.5 -141.5q0 -37 -13.5 -74t-49 -69t-88 -46.5t-104.5 -14.5q-33 0 -56 5v8q113 3 171.5 50.5t58.5 133.5q0 87 -56 130.5t-159 43.5h-54v-412q0 -46 8.5 -67.5t30.5 -30.5v-8h-149v8q22 9 30.5 30.5t8.5 67.5v462q0 46 -8.5 67.5
t-30.5 30.5v8h149v-8q-22 -9 -30.5 -30.5t-8.5 -67.5v-25z" />
    <glyph glyph-name="germandbls" unicode="&#xdf;" horiz-adv-x="618" 
d="M487 618q0 -27 -13 -50.5t-51.5 -51t-49 -39.5t-16 -25t-5.5 -28t6 -30.5t23 -33.5t66.5 -51t66.5 -47.5t29 -28t20.5 -29.5t11.5 -32t3 -29q0 -24 -8 -50.5t-28.5 -49.5t-54.5 -38.5t-81 -15.5q-77 0 -121.5 28t-44.5 70q0 22 14.5 37t36.5 15q23 0 37 -13t14 -35
q0 -12 -8.5 -25t-21.5 -18q11 -16 39 -26t58 -10q51 0 81 28t30 76q0 18 -7 39.5t-27 42.5t-71 54.5t-65.5 45t-27 26.5t-20.5 33.5t-8 42.5q0 20 9.5 40.5t40 49t41 40t18 23t14 27.5t6.5 40q0 33 -18 61t-45 39.5t-52 11.5q-58 0 -93.5 -44t-35.5 -113v-575h-104v8
q22 9 30.5 30.5t8.5 67.5v457q0 89 53 141t141 52q83 0 131 -38t48 -100z" />
    <glyph glyph-name="agrave" unicode="&#xe0;" horiz-adv-x="530" 
d="M297 579h-24l-160 152h100zM356 97v149q-35 5 -53 5q-80 0 -125 -33.5t-45 -91.5q0 -44 27.5 -70.5t71.5 -26.5q35 0 69 19t55 49zM484 35h15v-8q-12 -15 -31.5 -24t-41.5 -9q-30 0 -49 21t-21 56q-15 -24 -41.5 -44.5t-56.5 -29t-54 -8.5q-29 0 -63.5 11.5t-57.5 43
t-23 77.5q0 71 57 113t162 42q49 0 77 -6v98q0 65 -30 96t-83 31q-70 0 -103 -43q18 -5 29.5 -18t11.5 -32q0 -20 -14.5 -33.5t-34.5 -13.5q-21 0 -35 15t-14 37q0 18 9 37t33 37.5t60 28t67 9.5q32 0 63.5 -7.5t57.5 -28t37 -51t11 -62.5v-267q0 -39 12.5 -53.5t50.5 -14.5
z" />
    <glyph glyph-name="aacute" unicode="&#xe1;" horiz-adv-x="530" 
d="M397 731l-160 -152h-24l84 152h100zM356 97v149q-35 5 -53 5q-80 0 -125 -33.5t-45 -91.5q0 -44 27.5 -70.5t71.5 -26.5q35 0 69 19t55 49zM484 35h15v-8q-12 -15 -31.5 -24t-41.5 -9q-30 0 -49 21t-21 56q-15 -24 -41.5 -44.5t-56.5 -29t-54 -8.5q-29 0 -63.5 11.5
t-57.5 43t-23 77.5q0 71 57 113t162 42q49 0 77 -6v98q0 65 -30 96t-83 31q-70 0 -103 -43q18 -5 29.5 -18t11.5 -32q0 -20 -14.5 -33.5t-34.5 -13.5q-21 0 -35 15t-14 37q0 18 9 37t33 37.5t60 28t67 9.5q32 0 63.5 -7.5t57.5 -28t37 -51t11 -62.5v-267q0 -39 12.5 -53.5
t50.5 -14.5z" />
    <glyph glyph-name="acircumflex" unicode="&#xe2;" horiz-adv-x="530" 
d="M255 652l-141 -73l-6 6l143 146h8l143 -146l-6 -6zM356 97v149q-35 5 -53 5q-80 0 -125 -33.5t-45 -91.5q0 -44 27.5 -70.5t71.5 -26.5q35 0 69 19t55 49zM484 35h15v-8q-12 -15 -31.5 -24t-41.5 -9q-30 0 -49 21t-21 56q-15 -24 -41.5 -44.5t-56.5 -29t-54 -8.5
q-29 0 -63.5 11.5t-57.5 43t-23 77.5q0 71 57 113t162 42q49 0 77 -6v98q0 65 -30 96t-83 31q-70 0 -103 -43q18 -5 29.5 -18t11.5 -32q0 -20 -14.5 -33.5t-34.5 -13.5q-21 0 -35 15t-14 37q0 18 9 37t33 37.5t60 28t67 9.5q32 0 63.5 -7.5t57.5 -28t37 -51t11 -62.5v-267
q0 -39 12.5 -53.5t50.5 -14.5z" />
    <glyph glyph-name="atilde" unicode="&#xe3;" horiz-adv-x="530" 
d="M113 595h-8q-2 8 -2 25q0 28 12 51t32 32.5t39 9.5q27 0 68 -26t56.5 -30.5t24.5 -4.5q27 0 43 17.5t18 45.5h8q2 -8 2 -25q0 -28 -12 -51t-32 -32.5t-39 -9.5q-25 0 -66.5 26t-57.5 30.5t-25 4.5q-27 0 -43 -17.5t-18 -45.5zM356 97v149q-35 5 -53 5q-80 0 -125 -33.5
t-45 -91.5q0 -44 27.5 -70.5t71.5 -26.5q35 0 69 19t55 49zM484 35h15v-8q-12 -15 -31.5 -24t-41.5 -9q-30 0 -49 21t-21 56q-15 -24 -41.5 -44.5t-56.5 -29t-54 -8.5q-29 0 -63.5 11.5t-57.5 43t-23 77.5q0 71 57 113t162 42q49 0 77 -6v98q0 65 -30 96t-83 31
q-70 0 -103 -43q18 -5 29.5 -18t11.5 -32q0 -20 -14.5 -33.5t-34.5 -13.5q-21 0 -35 15t-14 37q0 18 9 37t33 37.5t60 28t67 9.5q32 0 63.5 -7.5t57.5 -28t37 -51t11 -62.5v-267q0 -39 12.5 -53.5t50.5 -14.5z" />
    <glyph glyph-name="adieresis" unicode="&#xe4;" horiz-adv-x="530" 
d="M357 599q-23 0 -39.5 16.5t-16.5 39.5t16.5 39.5t39.5 16.5t39.5 -16.5t16.5 -39.5t-16.5 -39.5t-39.5 -16.5zM153 599q-23 0 -39.5 16.5t-16.5 39.5t16.5 39.5t39.5 16.5t39.5 -16.5t16.5 -39.5t-16.5 -39.5t-39.5 -16.5zM356 97v149q-35 5 -53 5q-80 0 -125 -33.5
t-45 -91.5q0 -44 27.5 -70.5t71.5 -26.5q35 0 69 19t55 49zM484 35h15v-8q-12 -15 -31.5 -24t-41.5 -9q-30 0 -49 21t-21 56q-15 -24 -41.5 -44.5t-56.5 -29t-54 -8.5q-29 0 -63.5 11.5t-57.5 43t-23 77.5q0 71 57 113t162 42q49 0 77 -6v98q0 65 -30 96t-83 31
q-70 0 -103 -43q18 -5 29.5 -18t11.5 -32q0 -20 -14.5 -33.5t-34.5 -13.5q-21 0 -35 15t-14 37q0 18 9 37t33 37.5t60 28t67 9.5q32 0 63.5 -7.5t57.5 -28t37 -51t11 -62.5v-267q0 -39 12.5 -53.5t50.5 -14.5z" />
    <glyph glyph-name="aring" unicode="&#xe5;" horiz-adv-x="530" 
d="M255 703q-19 0 -33.5 -14.5t-14.5 -33.5t14.5 -33.5t33.5 -14.5t33.5 14.5t14.5 33.5t-14.5 33.5t-33.5 14.5zM255 572q-34 0 -58.5 24.5t-24.5 58.5t24.5 58.5t58.5 24.5t58.5 -24.5t24.5 -58.5t-24.5 -58.5t-58.5 -24.5zM356 97v149q-35 5 -53 5q-80 0 -125 -33.5
t-45 -91.5q0 -44 27.5 -70.5t71.5 -26.5q35 0 69 19t55 49zM484 35h15v-8q-12 -15 -31.5 -24t-41.5 -9q-30 0 -49 21t-21 56q-15 -24 -41.5 -44.5t-56.5 -29t-54 -8.5q-29 0 -63.5 11.5t-57.5 43t-23 77.5q0 71 57 113t162 42q49 0 77 -6v98q0 65 -30 96t-83 31
q-70 0 -103 -43q18 -5 29.5 -18t11.5 -32q0 -20 -14.5 -33.5t-34.5 -13.5q-21 0 -35 15t-14 37q0 18 9 37t33 37.5t60 28t67 9.5q32 0 63.5 -7.5t57.5 -28t37 -51t11 -62.5v-267q0 -39 12.5 -53.5t50.5 -14.5z" />
    <glyph glyph-name="ae" unicode="&#xe6;" horiz-adv-x="813" 
d="M232 29q42 0 81.5 25t66.5 65q-24 58 -24 128q-35 5 -53 5q-80 0 -125 -34t-45 -92q0 -44 27.5 -70.5t71.5 -26.5zM432 309l255 13q-1 49 -13.5 88.5t-37.5 62t-64 22.5q-59 0 -95.5 -51t-44.5 -135zM761 111l7 -8q-23 -36 -55 -64t-68 -39t-66 -11q-64 0 -113 29.5
t-77 82.5q-30 -53 -80.5 -82.5t-104.5 -29.5q-29 0 -63.5 11.5t-57.5 43t-23 77.5q0 70 57 112.5t162 42.5q49 0 77 -6v98q0 65 -30 96t-83 31q-70 0 -103 -43q18 -5 29.5 -18t11.5 -32q0 -20 -14.5 -33.5t-34.5 -13.5q-21 0 -35 15t-14 37q0 18 9 37t33 37.5t60 28t67 9.5
q62 0 101.5 -22.5t55.5 -61.5q28 40 70.5 62t92.5 22q60 0 101 -24t63.5 -70.5t22.5 -115.5v-24h-329v-22q0 -69 20 -118t58 -77.5t92 -28.5q86 0 161 72z" />
    <glyph glyph-name="ccedilla" unicode="&#xe7;" horiz-adv-x="513" 
d="M476 102l7 -8q-32 -48 -77 -75t-101 -30l-24 -54q42 -3 68.5 -24.5t26.5 -50.5q0 -35 -27.5 -56.5t-73.5 -21.5q-26 0 -53 8t-44 19l5 16q34 -17 67 -17q27 0 44.5 14t17.5 37t-22 40.5t-66 19.5l45 71q-47 4 -87 25.5t-68 56t-43.5 80t-15.5 97.5q0 58 20 108t55.5 86.5
t82 56t97.5 19.5q31 0 67.5 -10.5t64 -37t27.5 -60.5q0 -25 -15 -40.5t-37 -15.5q-20 0 -34.5 13.5t-14.5 35.5q0 17 11.5 30t29.5 18q-34 42 -100 42q-29 0 -60 -11.5t-61 -43t-45 -79.5t-15 -97q0 -39 10.5 -78.5t34.5 -71.5t61.5 -53t86.5 -21q41 0 83.5 17.5t71.5 45.5z
" />
    <glyph glyph-name="egrave" unicode="&#xe8;" horiz-adv-x="532" 
d="M318 579h-24l-160 152h100zM131 309l275 13q-1 49 -14.5 88.5t-41 62t-69.5 22.5q-63 0 -102.5 -51t-47.5 -135zM480 111l7 -8q-34 -51 -84 -82.5t-115 -31.5q-52 0 -95.5 18.5t-74 52.5t-47 82.5t-16.5 106.5t16.5 108.5t46.5 86.5t72 55.5t91 19.5q63 0 106 -24
t67 -70.5t24 -115.5v-24h-349v-22q0 -69 21 -118t61.5 -77.5t97.5 -28.5q91 0 171 72z" />
    <glyph glyph-name="eacute" unicode="&#xe9;" horiz-adv-x="532" 
d="M408 731l-160 -152h-24l84 152h100zM131 309l275 13q-1 49 -14.5 88.5t-41 62t-69.5 22.5q-63 0 -102.5 -51t-47.5 -135zM480 111l7 -8q-34 -51 -84 -82.5t-115 -31.5q-52 0 -95.5 18.5t-74 52.5t-47 82.5t-16.5 106.5t16.5 108.5t46.5 86.5t72 55.5t91 19.5
q63 0 106 -24t67 -70.5t24 -115.5v-24h-349v-22q0 -69 21 -118t61.5 -77.5t97.5 -28.5q91 0 171 72z" />
    <glyph glyph-name="ecircumflex" unicode="&#xea;" horiz-adv-x="532" 
d="M276 652l-141 -73l-6 6l143 146h8l143 -146l-6 -6zM131 309l275 13q-1 49 -14.5 88.5t-41 62t-69.5 22.5q-63 0 -102.5 -51t-47.5 -135zM480 111l7 -8q-34 -51 -84 -82.5t-115 -31.5q-52 0 -95.5 18.5t-74 52.5t-47 82.5t-16.5 106.5t16.5 108.5t46.5 86.5t72 55.5
t91 19.5q63 0 106 -24t67 -70.5t24 -115.5v-24h-349v-22q0 -69 21 -118t61.5 -77.5t97.5 -28.5q91 0 171 72z" />
    <glyph glyph-name="edieresis" unicode="&#xeb;" horiz-adv-x="532" 
d="M378 599q-23 0 -39.5 16.5t-16.5 39.5t16.5 39.5t39.5 16.5t39.5 -16.5t16.5 -39.5t-16.5 -39.5t-39.5 -16.5zM174 599q-23 0 -39.5 16.5t-16.5 39.5t16.5 39.5t39.5 16.5t39.5 -16.5t16.5 -39.5t-16.5 -39.5t-39.5 -16.5zM131 309l275 13q-1 49 -14.5 88.5t-41 62
t-69.5 22.5q-63 0 -102.5 -51t-47.5 -135zM480 111l7 -8q-34 -51 -84 -82.5t-115 -31.5q-52 0 -95.5 18.5t-74 52.5t-47 82.5t-16.5 106.5t16.5 108.5t46.5 86.5t72 55.5t91 19.5q63 0 106 -24t67 -70.5t24 -115.5v-24h-349v-22q0 -69 21 -118t61.5 -77.5t97.5 -28.5
q91 0 171 72z" />
    <glyph glyph-name="igrave" unicode="&#xec;" horiz-adv-x="293" 
d="M179 519v-413q0 -46 8.5 -67.5t30.5 -30.5v-8h-143v8q22 9 30.5 30.5t8.5 67.5v287q0 27 -8 46.5t-36 32.5v8zM4 731h100l84 -152h-24z" />
    <glyph glyph-name="iacute" unicode="&#xed;" horiz-adv-x="293" 
d="M188 731h100l-160 -152h-24zM179 519v-413q0 -46 8.5 -67.5t30.5 -30.5v-8h-143v8q22 9 30.5 30.5t8.5 67.5v287q0 27 -8 46.5t-36 32.5v8z" />
    <glyph glyph-name="icircumflex" unicode="&#xee;" horiz-adv-x="293" 
d="M179 519v-413q0 -46 8.5 -67.5t30.5 -30.5v-8h-143v8q22 9 30.5 30.5t8.5 67.5v287q0 27 -8 46.5t-36 32.5v8zM150 731l143 -146l-6 -6l-141 73l-141 -73l-6 6l143 146h8z" />
    <glyph glyph-name="idieresis" unicode="&#xef;" horiz-adv-x="293" 
d="M304 655q0 -23 -16.5 -39.5t-39.5 -16.5t-39.5 16.5t-16.5 39.5t16.5 39.5t39.5 16.5t39.5 -16.5t16.5 -39.5zM100 655q0 -23 -16.5 -39.5t-39.5 -16.5t-39.5 16.5t-16.5 39.5t16.5 39.5t39.5 16.5t39.5 -16.5t16.5 -39.5zM179 519v-413q0 -46 8.5 -67.5t30.5 -30.5v-8
h-143v8q22 9 30.5 30.5t8.5 67.5v287q0 27 -8 46.5t-36 32.5v8z" />
    <glyph glyph-name="eth" unicode="&#xf0;" horiz-adv-x="595" 
d="M307 13q69 0 114.5 62.5t45.5 169.5q0 113 -49.5 181.5t-129.5 68.5q-69 0 -114.5 -62.5t-45.5 -169.5q0 -113 49.5 -181.5t129.5 -68.5zM433 752l-76 -43q57 -39 97 -102.5t63 -145t23 -169.5q0 -67 -17.5 -123.5t-50.5 -96.5t-79 -61.5t-101 -21.5q-53 0 -97.5 19
t-75.5 54t-47.5 82.5t-16.5 101.5q0 123 67 198t174 75q47 0 87.5 -15.5t64.5 -44.5q-18 67 -52 126.5t-83 98.5l-111 -63l-9 16l101 61q-71 47 -163 48v8q22 7 50 7q32 0 72 -7.5t82 -30.5l98 59v-30z" />
    <glyph glyph-name="ntilde" unicode="&#xf1;" horiz-adv-x="626" 
d="M179 391v-285q0 -46 8.5 -67.5t30.5 -30.5v-8h-143v8q22 9 30.5 30.5t8.5 67.5v287q0 27 -8 46.5t-36 32.5v8l109 39v-106q106 106 205 106q133 0 133 -145v-268q0 -46 8.5 -67.5t30.5 -30.5v-8h-143v8q22 9 30.5 30.5t8.5 67.5v236q0 62 -23.5 90.5t-76.5 28.5
q-34 0 -79.5 -16.5t-93.5 -53.5zM171 595h-8q-2 8 -2 25q0 28 12 51t32 32.5t39 9.5q27 0 68 -26t56.5 -30.5t24.5 -4.5q27 0 43 17.5t18 45.5h8q2 -8 2 -25q0 -28 -12 -51t-32 -32.5t-39 -9.5q-25 0 -66.5 26t-57.5 30.5t-25 4.5q-27 0 -43 -17.5t-18 -45.5z" />
    <glyph glyph-name="ograve" unicode="&#xf2;" horiz-adv-x="595" 
d="M540 262q0 -61 -17.5 -112t-50.5 -86.5t-79 -55t-101 -19.5q-53 0 -97.5 19t-75.5 54t-47.5 82.5t-16.5 101.5q0 61 17.5 112t50.5 86.5t79 55t101 19.5q53 0 97.5 -19t75.5 -54t47.5 -82.5t16.5 -101.5zM128 263q0 -113 49.5 -181.5t129.5 -68.5q69 0 114.5 62.5
t45.5 169.5q0 113 -49.5 181.5t-129.5 68.5q-69 0 -114.5 -62.5t-45.5 -169.5zM155 731h100l84 -152h-24z" />
    <glyph glyph-name="oacute" unicode="&#xf3;" horiz-adv-x="595" 
d="M339 731h100l-160 -152h-24zM540 262q0 -61 -17.5 -112t-50.5 -86.5t-79 -55t-101 -19.5q-53 0 -97.5 19t-75.5 54t-47.5 82.5t-16.5 101.5q0 61 17.5 112t50.5 86.5t79 55t101 19.5q53 0 97.5 -19t75.5 -54t47.5 -82.5t16.5 -101.5zM128 263q0 -113 49.5 -181.5
t129.5 -68.5q69 0 114.5 62.5t45.5 169.5q0 113 -49.5 181.5t-129.5 68.5q-69 0 -114.5 -62.5t-45.5 -169.5z" />
    <glyph glyph-name="ocircumflex" unicode="&#xf4;" horiz-adv-x="595" 
d="M297 652l-141 -73l-6 6l143 146h8l143 -146l-6 -6zM307 13q69 0 114.5 62.5t45.5 169.5q0 113 -49.5 181.5t-129.5 68.5q-69 0 -114.5 -62.5t-45.5 -169.5q0 -113 49.5 -181.5t129.5 -68.5zM303 519q53 0 97.5 -19t75.5 -54t47.5 -82.5t16.5 -101.5q0 -61 -17.5 -112
t-50.5 -86.5t-79 -55t-101 -19.5q-53 0 -97.5 19t-75.5 54t-47.5 82.5t-16.5 101.5q0 61 17.5 112t50.5 86.5t79 55t101 19.5z" />
    <glyph glyph-name="otilde" unicode="&#xf5;" horiz-adv-x="595" 
d="M540 262q0 -61 -17.5 -112t-50.5 -86.5t-79 -55t-101 -19.5q-53 0 -97.5 19t-75.5 54t-47.5 82.5t-16.5 101.5q0 61 17.5 112t50.5 86.5t79 55t101 19.5q53 0 97.5 -19t75.5 -54t47.5 -82.5t16.5 -101.5zM128 263q0 -113 49.5 -181.5t129.5 -68.5q69 0 114.5 62.5
t45.5 169.5q0 113 -49.5 181.5t-129.5 68.5q-69 0 -114.5 -62.5t-45.5 -169.5zM155 595h-8q-2 8 -2 25q0 28 12 51t32 32.5t39 9.5q27 0 68 -26t56.5 -30.5t24.5 -4.5q27 0 43 17.5t18 45.5h8q2 -8 2 -25q0 -28 -12 -51t-32 -32.5t-39 -9.5q-25 0 -66.5 26t-57.5 30.5
t-25 4.5q-27 0 -43 -17.5t-18 -45.5z" />
    <glyph glyph-name="odieresis" unicode="&#xf6;" horiz-adv-x="595" 
d="M455 655q0 -23 -16.5 -39.5t-39.5 -16.5t-39.5 16.5t-16.5 39.5t16.5 39.5t39.5 16.5t39.5 -16.5t16.5 -39.5zM251 655q0 -23 -16.5 -39.5t-39.5 -16.5t-39.5 16.5t-16.5 39.5t16.5 39.5t39.5 16.5t39.5 -16.5t16.5 -39.5zM540 262q0 -61 -17.5 -112t-50.5 -86.5t-79 -55
t-101 -19.5q-53 0 -97.5 19t-75.5 54t-47.5 82.5t-16.5 101.5q0 61 17.5 112t50.5 86.5t79 55t101 19.5q53 0 97.5 -19t75.5 -54t47.5 -82.5t16.5 -101.5zM128 263q0 -113 49.5 -181.5t129.5 -68.5q69 0 114.5 62.5t45.5 169.5q0 113 -49.5 181.5t-129.5 68.5
q-69 0 -114.5 -62.5t-45.5 -169.5z" />
    <glyph glyph-name="divide" unicode="&#xf7;" horiz-adv-x="629" 
d="M65 324v34h499v-34h-499zM250 517q0 24 18 42t42 18t42 -18t18 -42t-18 -42t-42 -18t-42 18t-18 42zM250 164q0 24 18 42t42 18t42 -18t18 -42t-18 -42t-42 -18t-42 18t-18 42z" />
    <glyph glyph-name="oslash" unicode="&#xf8;" horiz-adv-x="595" 
d="M435 399l-259 -316q23 -33 57 -51.5t74 -18.5q69 0 114.5 62.5t45.5 169.5q0 46 -9 86t-23 68zM162 105l257 320q-24 34 -57.5 52t-73.5 18q-69 0 -114.5 -62.5t-45.5 -169.5q0 -95 34 -158zM533 519l-58 -71q31 -34 48 -82.5t17 -103.5q0 -61 -17.5 -112t-50.5 -86.5
t-79 -55t-101 -19.5q-90 0 -151 52l-42 -51l-17 15l42 52q-33 34 -51 83.5t-18 105.5q0 61 17.5 112t50.5 86.5t79 55t101 19.5q88 0 150 -51l41 51h39z" />
    <glyph glyph-name="ugrave" unicode="&#xf9;" horiz-adv-x="614" 
d="M435 117v276q0 27 -8 46.5t-36 32.5v8l109 39v-404q0 -32 9 -56.5t35 -35.5v-8l-109 -26v106q-49 -55 -95 -80.5t-98 -25.5q-65 0 -99 38t-34 107v259q0 27 -8 46.5t-36 32.5v8l109 39v-353q0 -62 23.5 -90.5t76.5 -28.5q75 0 161 70zM165 731h100l84 -152h-24z" />
    <glyph glyph-name="uacute" unicode="&#xfa;" horiz-adv-x="614" 
d="M349 731h100l-160 -152h-24zM435 117v276q0 27 -8 46.5t-36 32.5v8l109 39v-404q0 -32 9 -56.5t35 -35.5v-8l-109 -26v106q-49 -55 -95 -80.5t-98 -25.5q-65 0 -99 38t-34 107v259q0 27 -8 46.5t-36 32.5v8l109 39v-353q0 -62 23.5 -90.5t76.5 -28.5q75 0 161 70z" />
    <glyph glyph-name="ucircumflex" unicode="&#xfb;" horiz-adv-x="614" 
d="M307 652l-141 -73l-6 6l143 146h8l143 -146l-6 -6zM500 519v-404q0 -32 9 -56.5t35 -35.5v-8l-109 -26v106q-49 -55 -95 -80.5t-98 -25.5q-65 0 -99 38t-34 107v259q0 27 -8 46.5t-36 32.5v8l109 39v-353q0 -62 23.5 -90.5t76.5 -28.5q75 0 161 70v276q0 27 -8 46.5
t-36 32.5v8z" />
    <glyph glyph-name="udieresis" unicode="&#xfc;" horiz-adv-x="614" 
d="M465 655q0 -23 -16.5 -39.5t-39.5 -16.5t-39.5 16.5t-16.5 39.5t16.5 39.5t39.5 16.5t39.5 -16.5t16.5 -39.5zM261 655q0 -23 -16.5 -39.5t-39.5 -16.5t-39.5 16.5t-16.5 39.5t16.5 39.5t39.5 16.5t39.5 -16.5t16.5 -39.5zM435 117v276q0 27 -8 46.5t-36 32.5v8l109 39
v-404q0 -32 9 -56.5t35 -35.5v-8l-109 -26v106q-49 -55 -95 -80.5t-98 -25.5q-65 0 -99 38t-34 107v259q0 27 -8 46.5t-36 32.5v8l109 39v-353q0 -62 23.5 -90.5t76.5 -28.5q75 0 161 70z" />
    <glyph glyph-name="yacute" unicode="&#xfd;" horiz-adv-x="521" 
d="M258 -5l-164 384q-23 54 -38 78.5t-41 42.5v8h156v-8q-24 -16 -25 -43.5t19 -75.5l123 -295l91 255q47 131 -4 159v8h141v-8q-27 -13 -49 -47.5t-57 -123.5l-119 -299q-32 -140 -86.5 -210t-123.5 -70q-22 0 -49 8.5t-50 31.5v8q124 4 186.5 56t89.5 141zM322 731h100
l-160 -152h-24z" />
    <glyph glyph-name="thorn" unicode="&#xfe;" horiz-adv-x="606" 
d="M179 402v-289q14 -46 46.5 -73t82.5 -27q79 0 124.5 62.5t45.5 176.5q0 103 -46.5 159.5t-118.5 56.5q-36 0 -74 -19.5t-60 -46.5zM179 750v-324q23 35 66.5 64t92.5 29q48 0 87.5 -17.5t67.5 -50.5t43 -79.5t15 -102.5q0 -61 -17.5 -113t-50 -89.5t-78.5 -57.5t-101 -20
q-39 0 -71 9t-54 23v-154q0 -35 8 -61t41 -37v-8h-153v8q22 9 30.5 30.5t8.5 67.5v754q0 63 -44 82v8z" />
    <glyph glyph-name="ydieresis" unicode="&#xff;" horiz-adv-x="521" 
d="M258 -5l-164 384q-23 54 -38 78.5t-41 42.5v8h156v-8q-24 -16 -25 -43.5t19 -75.5l123 -295l91 255q47 131 -4 159v8h141v-8q-27 -13 -49 -47.5t-57 -123.5l-119 -299q-32 -140 -86.5 -210t-123.5 -70q-22 0 -49 8.5t-50 31.5v8q124 4 186.5 56t89.5 141zM438 655
q0 -23 -16.5 -39.5t-39.5 -16.5t-39.5 16.5t-16.5 39.5t16.5 39.5t39.5 16.5t39.5 -16.5t16.5 -39.5zM234 655q0 -23 -16.5 -39.5t-39.5 -16.5t-39.5 16.5t-16.5 39.5t16.5 39.5t39.5 16.5t39.5 -16.5t16.5 -39.5z" />
    <glyph glyph-name="Amacron" unicode="&#x100;" horiz-adv-x="665" 
d="M486 838v-34h-307v34h307zM184 237h269l-137 334zM342 685l237 -576q15 -35 30.5 -59.5t45.5 -41.5v-8h-162v8q44 23 7 114l-37 91h-288l-22 -55q-24 -60 -22.5 -96.5t29.5 -53.5v-8h-160v8q31 15 56 47.5t53 98.5l224 531h9z" />
    <glyph glyph-name="amacron" unicode="&#x101;" horiz-adv-x="530" 
d="M408 672v-34h-307v34h307zM356 97v149q-35 5 -53 5q-80 0 -125 -33.5t-45 -91.5q0 -44 27.5 -70.5t71.5 -26.5q35 0 69 19t55 49zM484 35h15v-8q-12 -15 -31.5 -24t-41.5 -9q-30 0 -49 21t-21 56q-15 -24 -41.5 -44.5t-56.5 -29t-54 -8.5q-29 0 -63.5 11.5t-57.5 43
t-23 77.5q0 71 57 113t162 42q49 0 77 -6v98q0 65 -30 96t-83 31q-70 0 -103 -43q18 -5 29.5 -18t11.5 -32q0 -20 -14.5 -33.5t-34.5 -13.5q-21 0 -35 15t-14 37q0 18 9 37t33 37.5t60 28t67 9.5q32 0 63.5 -7.5t57.5 -28t37 -51t11 -62.5v-267q0 -39 12.5 -53.5t50.5 -14.5
z" />
    <glyph glyph-name="Abreve" unicode="&#x102;" horiz-adv-x="665" 
d="M453 897h8l1 -16q0 -26 -10.5 -59t-41.5 -56t-79 -23q-41 0 -69.5 17t-43.5 48.5t-15 72.5l1 16h8q10 -45 41 -71t78 -26q49 0 80 25.5t42 71.5zM184 237h269l-137 334zM342 685l237 -576q15 -35 30.5 -59.5t45.5 -41.5v-8h-162v8q44 23 7 114l-37 91h-288l-22 -55
q-24 -60 -22.5 -96.5t29.5 -53.5v-8h-160v8q31 15 56 47.5t53 98.5l224 531h9z" />
    <glyph glyph-name="abreve" unicode="&#x103;" horiz-adv-x="530" 
d="M385 731h8l1 -16q0 -26 -10.5 -59t-41.5 -56t-79 -23q-41 0 -69.5 17t-43.5 48.5t-15 72.5l1 16h8q10 -45 41 -71t78 -26q49 0 80 25.5t42 71.5zM356 97v149q-35 5 -53 5q-80 0 -125 -33.5t-45 -91.5q0 -44 27.5 -70.5t71.5 -26.5q35 0 69 19t55 49zM484 35h15v-8
q-12 -15 -31.5 -24t-41.5 -9q-30 0 -49 21t-21 56q-15 -24 -41.5 -44.5t-56.5 -29t-54 -8.5q-29 0 -63.5 11.5t-57.5 43t-23 77.5q0 71 57 113t162 42q49 0 77 -6v98q0 65 -30 96t-83 31q-70 0 -103 -43q18 -5 29.5 -18t11.5 -32q0 -20 -14.5 -33.5t-34.5 -13.5
q-21 0 -35 15t-14 37q0 18 9 37t33 37.5t60 28t67 9.5q32 0 63.5 -7.5t57.5 -28t37 -51t11 -62.5v-267q0 -39 12.5 -53.5t50.5 -14.5z" />
    <glyph glyph-name="Aogonek" unicode="&#x104;" horiz-adv-x="665" 
d="M184 237h269l-137 334zM655 0h-85q-33 -17 -55 -47.5t-22 -60.5q0 -36 21.5 -54t54.5 -18q19 0 41.5 6t40.5 16l4 -7q-20 -23 -52 -38t-69 -15q-32 0 -57.5 13t-35.5 34.5t-10 41.5q0 21 11.5 46t40 48t63.5 35h-53v8q44 23 7 114l-37 91h-288l-22 -55
q-24 -60 -22.5 -96.5t29.5 -53.5v-8h-160v8q31 15 56 47.5t53 98.5l224 531h9l237 -576q15 -35 30.5 -59.5t45.5 -41.5v-8z" />
    <glyph glyph-name="aogonek" unicode="&#x105;" horiz-adv-x="530" 
d="M356 97v149q-35 5 -53 5q-80 0 -125 -33.5t-45 -91.5q0 -44 27.5 -70.5t71.5 -26.5q35 0 69 19t55 49zM513 -158l4 -7q-20 -23 -52 -38t-69 -15q-32 0 -57.5 13t-35.5 34.5t-10 41.5t10.5 44.5t38 47.5t60.5 35q-20 7 -32 26t-14 47q-15 -24 -41.5 -44.5t-56.5 -29
t-54 -8.5q-29 0 -63.5 11.5t-57.5 43t-23 77.5q0 71 57 113t162 42q49 0 77 -6v98q0 65 -30 96t-83 31q-70 0 -103 -43q18 -5 29.5 -18t11.5 -32q0 -20 -14.5 -33.5t-34.5 -13.5q-21 0 -35 15t-14 37q0 18 9 37t33 37.5t60 28t67 9.5q32 0 63.5 -7.5t57.5 -28t37 -51
t11 -62.5v-267q0 -39 12.5 -53.5t50.5 -14.5h15v-8q-12 -15 -31.5 -24t-41.5 -9h-4q-29 -18 -48 -46.5t-19 -55.5q0 -36 21.5 -54t54.5 -18q19 0 41.5 6t40.5 16z" />
    <glyph glyph-name="Cacute" unicode="&#x106;" horiz-adv-x="649" 
d="M417 897h100l-160 -152h-24zM55 342q0 69 24.5 132t69.5 110.5t108 74t137 26.5q123 0 220 -54v-136h-10q-29 82 -79 124t-132 42q-54 0 -101.5 -22.5t-82.5 -65t-54 -102.5t-19 -130q0 -73 19.5 -134t55 -104.5t85 -66.5t108.5 -23q80 0 128 37.5t71 115.5h10v-126
q-72 -51 -211 -51q-74 0 -138.5 24.5t-111 70.5t-72 112.5t-25.5 145.5z" />
    <glyph glyph-name="cacute" unicode="&#x107;" horiz-adv-x="513" 
d="M328 731h100l-160 -152h-24zM483 94q-20 -30 -50 -55.5t-67 -37.5t-74 -12q-51 0 -95 19.5t-76 54.5t-49 83.5t-17 102.5q0 58 20 108t55.5 86.5t82 56t97.5 19.5q31 0 67.5 -10.5t64 -37t27.5 -60.5q0 -25 -15 -40.5t-37 -15.5q-20 0 -34.5 13.5t-14.5 35.5
q0 17 11.5 30t29.5 18q-34 42 -100 42q-29 0 -60 -11.5t-61 -43t-45 -79.5t-15 -97q0 -39 10.5 -78.5t34.5 -71.5t61.5 -53t86.5 -21q41 0 83.5 17.5t71.5 45.5z" />
    <glyph glyph-name="Ccircumflex" unicode="&#x108;" horiz-adv-x="649" 
d="M375 818l-141 -73l-6 6l143 146h8l143 -146l-6 -6zM614 495h-10q-29 82 -79 124t-132 42q-54 0 -101.5 -22.5t-82.5 -65t-54 -102.5t-19 -130q0 -73 19.5 -134t55 -104.5t85 -66.5t108.5 -23q80 0 128 37.5t71 115.5h10v-126q-72 -51 -211 -51q-74 0 -138.5 24.5
t-111 70.5t-72 112.5t-25.5 145.5q0 69 24.5 132t69.5 110.5t108 74t137 26.5q123 0 220 -54v-136z" />
    <glyph glyph-name="ccircumflex" unicode="&#x109;" horiz-adv-x="513" 
d="M286 652l-141 -73l-6 6l143 146h8l143 -146l-6 -6zM476 102l7 -8q-20 -30 -50 -55.5t-67 -37.5t-74 -12q-51 0 -95 19.5t-76 54.5t-49 83.5t-17 102.5q0 58 20 108t55.5 86.5t82 56t97.5 19.5q31 0 67.5 -10.5t64 -37t27.5 -60.5q0 -25 -15 -40.5t-37 -15.5
q-20 0 -34.5 13.5t-14.5 35.5q0 17 11.5 30t29.5 18q-34 42 -100 42q-29 0 -60 -11.5t-61 -43t-45 -79.5t-15 -97q0 -39 10.5 -78.5t34.5 -71.5t61.5 -53t86.5 -21q41 0 83.5 17.5t71.5 45.5z" />
    <glyph glyph-name="Cdotaccent" unicode="&#x10a;" horiz-adv-x="649" 
d="M55 342q0 69 24.5 132t69.5 110.5t108 74t137 26.5q123 0 220 -54v-136h-10q-29 82 -79 124t-132 42q-54 0 -101.5 -22.5t-82.5 -65t-54 -102.5t-19 -130q0 -73 19.5 -134t55 -104.5t85 -66.5t108.5 -23q80 0 128 37.5t71 115.5h10v-126q-72 -51 -211 -51
q-74 0 -138.5 24.5t-111 70.5t-72 112.5t-25.5 145.5zM433 821q0 -24 -17 -41t-41 -17t-41 17t-17 41t17 41t41 17t41 -17t17 -41z" />
    <glyph glyph-name="cdotaccent" unicode="&#x10b;" horiz-adv-x="513" 
d="M483 94q-20 -30 -50 -55.5t-67 -37.5t-74 -12q-51 0 -95 19.5t-76 54.5t-49 83.5t-17 102.5q0 58 20 108t55.5 86.5t82 56t97.5 19.5q31 0 67.5 -10.5t64 -37t27.5 -60.5q0 -25 -15 -40.5t-37 -15.5q-20 0 -34.5 13.5t-14.5 35.5q0 17 11.5 30t29.5 18q-34 42 -100 42
q-29 0 -60 -11.5t-61 -43t-45 -79.5t-15 -97q0 -39 10.5 -78.5t34.5 -71.5t61.5 -53t86.5 -21q41 0 83.5 17.5t71.5 45.5zM344 655q0 -24 -17 -41t-41 -17t-41 17t-17 41t17 41t41 17t41 -17t17 -41z" />
    <glyph glyph-name="Ccaron" unicode="&#x10c;" horiz-adv-x="649" 
d="M379 745h-8l-143 146l6 6l141 -73l141 73l6 -6zM614 495h-10q-29 82 -79 124t-132 42q-54 0 -101.5 -22.5t-82.5 -65t-54 -102.5t-19 -130q0 -73 19.5 -134t55 -104.5t85 -66.5t108.5 -23q80 0 128 37.5t71 115.5h10v-126q-72 -51 -211 -51q-74 0 -138.5 24.5t-111 70.5
t-72 112.5t-25.5 145.5q0 69 24.5 132t69.5 110.5t108 74t137 26.5q123 0 220 -54v-136z" />
    <glyph glyph-name="ccaron" unicode="&#x10d;" horiz-adv-x="513" 
d="M290 579h-8l-143 146l6 6l141 -73l141 73l6 -6zM476 102l7 -8q-20 -30 -50 -55.5t-67 -37.5t-74 -12q-51 0 -95 19.5t-76 54.5t-49 83.5t-17 102.5q0 58 20 108t55.5 86.5t82 56t97.5 19.5q31 0 67.5 -10.5t64 -37t27.5 -60.5q0 -25 -15 -40.5t-37 -15.5
q-20 0 -34.5 13.5t-14.5 35.5q0 17 11.5 30t29.5 18q-34 42 -100 42q-29 0 -60 -11.5t-61 -43t-45 -79.5t-15 -97q0 -39 10.5 -78.5t34.5 -71.5t61.5 -53t86.5 -21q41 0 83.5 17.5t71.5 45.5z" />
    <glyph glyph-name="Dcaron" unicode="&#x10e;" horiz-adv-x="725" 
d="M347 745h-8l-143 146l6 6l141 -73l141 73l6 -6zM276 24h18q67 0 122 21.5t93.5 62t59 98.5t20.5 127q0 72 -21 131.5t-61.5 100.5t-100 63t-133.5 22h-78v-559q0 -35 19 -51t62 -16zM85 674h205q91 0 163.5 -25t120.5 -70t72 -106.5t24 -133.5q0 -71 -26 -133.5
t-75.5 -108.5t-120.5 -71.5t-155 -25.5h-208v8q22 9 30.5 30.5t8.5 67.5v462q0 46 -8.5 67.5t-30.5 30.5v8z" />
    <glyph glyph-name="dcaron" unicode="&#x10f;" horiz-adv-x="656" 
d="M427 106v289q-14 46 -46.5 73t-82.5 27q-79 0 -124.5 -62.5t-45.5 -176.5q0 -103 46.5 -159.5t118.5 -56.5q36 0 74 19.5t60 46.5zM492 750v-635q0 -32 9 -56.5t35 -35.5v-8l-109 -26v93q-23 -35 -66.5 -64t-92.5 -29q-48 0 -87.5 17.5t-67.5 50.5t-43 79.5t-15 102.5
q0 61 17.5 113t50 89.5t78.5 57.5t101 20q39 0 71 -9t54 -23v144q0 63 -54 82v8zM557 541l-2 6q31 19 50.5 50.5t20.5 66.5l-16 -2q-18 0 -31.5 13.5t-13.5 34.5t14.5 36t35.5 15q25 0 40.5 -17.5t15.5 -46.5q0 -23 -13 -54t-42.5 -60t-58.5 -42z" />
    <glyph glyph-name="Dcroat" unicode="&#x110;" horiz-adv-x="725" 
d="M276 24h18q67 0 122 21.5t93.5 62t59 98.5t20.5 127q0 72 -21 131.5t-61.5 100.5t-100 63t-133.5 22h-78v-300l174 4v-28h-174v-235q0 -35 19 -51t62 -16zM85 674h205q91 0 163.5 -25t120.5 -70t72 -106.5t24 -133.5q0 -71 -26 -133.5t-75.5 -108.5t-120.5 -71.5
t-155 -25.5h-208v8q22 9 30.5 30.5t8.5 67.5v220h-89v20l89 2v220q0 46 -8.5 67.5t-30.5 30.5v8z" />
    <glyph glyph-name="dcroat" unicode="&#x111;" horiz-adv-x="606" 
d="M427 106v289q-14 46 -46.5 73t-82.5 27q-79 0 -124.5 -62.5t-45.5 -176.5q0 -103 46.5 -159.5t118.5 -56.5q36 0 74 19.5t60 46.5zM576 601h-84v-486q0 -32 9 -56.5t35 -35.5v-8l-109 -26v93q-23 -35 -66.5 -64t-92.5 -29q-48 0 -87.5 17.5t-67.5 50.5t-43 79.5
t-15 102.5q0 61 17.5 113t50 89.5t78.5 57.5t101 20q39 0 71 -9t54 -23v114h-138v20l138 4v6q0 63 -54 82v8l119 29v-123l84 2v-28z" />
    <glyph glyph-name="Emacron" unicode="&#x112;" horiz-adv-x="578" 
d="M472 838v-34h-307v34h307zM533 153h10v-153h-458v8q22 9 30.5 30.5t8.5 67.5v462q0 46 -8.5 67.5t-30.5 30.5v8h443v-134h-10q-19 54 -55 81.5t-126 27.5h-142v-297l121 4q45 1 68.5 22t33.5 68h8v-201h-8q-11 46 -35 65t-70 20l-118 4v-243q0 -35 19 -51t62 -16h82
q55 0 88 10t53 35.5t34 83.5z" />
    <glyph glyph-name="emacron" unicode="&#x113;" horiz-adv-x="532" 
d="M429 672v-34h-307v34h307zM131 309l275 13q-1 49 -14.5 88.5t-41 62t-69.5 22.5q-63 0 -102.5 -51t-47.5 -135zM480 111l7 -8q-34 -51 -84 -82.5t-115 -31.5q-52 0 -95.5 18.5t-74 52.5t-47 82.5t-16.5 106.5t16.5 108.5t46.5 86.5t72 55.5t91 19.5q63 0 106 -24
t67 -70.5t24 -115.5v-24h-349v-22q0 -69 21 -118t61.5 -77.5t97.5 -28.5q91 0 171 72z" />
    <glyph glyph-name="Ebreve" unicode="&#x114;" horiz-adv-x="578" 
d="M441 897h8l1 -16q0 -26 -10.5 -59t-41.5 -56t-79 -23q-41 0 -69.5 17t-43.5 48.5t-15 72.5l1 16h8q10 -45 41 -71t78 -26q49 0 80 25.5t42 71.5zM533 153h10v-153h-458v8q22 9 30.5 30.5t8.5 67.5v462q0 46 -8.5 67.5t-30.5 30.5v8h443v-134h-10q-19 54 -55 81.5
t-126 27.5h-142v-297l121 4q45 1 68.5 22t33.5 68h8v-201h-8q-11 46 -35 65t-70 20l-118 4v-243q0 -35 19 -51t62 -16h82q55 0 88 10t53 35.5t34 83.5z" />
    <glyph glyph-name="ebreve" unicode="&#x115;" horiz-adv-x="532" 
d="M396 731h8l1 -16q0 -26 -10.5 -59t-41.5 -56t-79 -23q-41 0 -69.5 17t-43.5 48.5t-15 72.5l1 16h8q10 -45 41 -71t78 -26q49 0 80 25.5t42 71.5zM131 309l275 13q-1 49 -14.5 88.5t-41 62t-69.5 22.5q-63 0 -102.5 -51t-47.5 -135zM480 111l7 -8q-34 -51 -84 -82.5
t-115 -31.5q-52 0 -95.5 18.5t-74 52.5t-47 82.5t-16.5 106.5t16.5 108.5t46.5 86.5t72 55.5t91 19.5q63 0 106 -24t67 -70.5t24 -115.5v-24h-349v-22q0 -69 21 -118t61.5 -77.5t97.5 -28.5q91 0 171 72z" />
    <glyph glyph-name="Edotaccent" unicode="&#x116;" horiz-adv-x="578" 
d="M319 763q-24 0 -41 17t-17 41t17 41t41 17t41 -17t17 -41t-17 -41t-41 -17zM533 153h10v-153h-458v8q22 9 30.5 30.5t8.5 67.5v462q0 46 -8.5 67.5t-30.5 30.5v8h443v-134h-10q-19 54 -55 81.5t-126 27.5h-142v-297l121 4q45 1 68.5 22t33.5 68h8v-201h-8q-11 46 -35 65
t-70 20l-118 4v-243q0 -35 19 -51t62 -16h82q55 0 88 10t53 35.5t34 83.5z" />
    <glyph glyph-name="edotaccent" unicode="&#x117;" horiz-adv-x="532" 
d="M276 597q-24 0 -41 17t-17 41t17 41t41 17t41 -17t17 -41t-17 -41t-41 -17zM131 309l275 13q-1 49 -14.5 88.5t-41 62t-69.5 22.5q-63 0 -102.5 -51t-47.5 -135zM480 111l7 -8q-34 -51 -84 -82.5t-115 -31.5q-52 0 -95.5 18.5t-74 52.5t-47 82.5t-16.5 106.5t16.5 108.5
t46.5 86.5t72 55.5t91 19.5q63 0 106 -24t67 -70.5t24 -115.5v-24h-349v-22q0 -69 21 -118t61.5 -77.5t97.5 -28.5q91 0 171 72z" />
    <glyph glyph-name="Eogonek" unicode="&#x118;" horiz-adv-x="578" 
d="M543 0h-97q-33 -17 -55 -47.5t-22 -60.5q0 -36 21.5 -54t54.5 -18q19 0 41.5 6t40.5 16l4 -7q-20 -23 -52 -38t-69 -15q-32 0 -57.5 13t-35.5 34.5t-10 41.5q0 21 11.5 46t40 48t63.5 35h-337v8q22 9 30.5 30.5t8.5 67.5v462q0 46 -8.5 67.5t-30.5 30.5v8h443v-134h-10
q-19 54 -55 81.5t-126 27.5h-142v-297l121 4q45 1 68.5 22t33.5 68h8v-201h-8q-11 46 -35 65t-70 20l-118 4v-243q0 -35 19 -51t62 -16h82q55 0 88 10t53 35.5t34 83.5h10v-153z" />
    <glyph glyph-name="eogonek" unicode="&#x119;" horiz-adv-x="532" 
d="M131 309l275 13q-1 49 -14.5 88.5t-41 62t-69.5 22.5q-63 0 -102.5 -51t-47.5 -135zM480 111l7 -8q-50 -76 -124 -102q-34 -16 -57 -47t-23 -62q0 -36 21.5 -54t54.5 -18q19 0 41.5 6t40.5 16l4 -7q-20 -23 -52 -38t-69 -15q-32 0 -57.5 13t-35.5 34.5t-10 41.5
q0 37 25.5 68.5t65.5 50.5l-24 -1q-52 0 -95.5 18.5t-74 52.5t-47 82.5t-16.5 106.5t16.5 108.5t46.5 86.5t72 55.5t91 19.5q63 0 106 -24t67 -70.5t24 -115.5v-24h-349v-22q0 -69 21 -118t61.5 -77.5t97.5 -28.5q91 0 171 72z" />
    <glyph glyph-name="Ecaron" unicode="&#x11a;" horiz-adv-x="578" 
d="M317 745h-8l-143 146l6 6l141 -73l141 73l6 -6zM533 153h10v-153h-458v8q22 9 30.5 30.5t8.5 67.5v462q0 46 -8.5 67.5t-30.5 30.5v8h443v-134h-10q-19 54 -55 81.5t-126 27.5h-142v-297l121 4q45 1 68.5 22t33.5 68h8v-201h-8q-11 46 -35 65t-70 20l-118 4v-243
q0 -35 19 -51t62 -16h82q55 0 88 10t53 35.5t34 83.5z" />
    <glyph glyph-name="ecaron" unicode="&#x11b;" horiz-adv-x="532" 
d="M280 579h-8l-143 146l6 6l141 -73l141 73l6 -6zM131 309l275 13q-1 49 -14.5 88.5t-41 62t-69.5 22.5q-63 0 -102.5 -51t-47.5 -135zM480 111l7 -8q-34 -51 -84 -82.5t-115 -31.5q-52 0 -95.5 18.5t-74 52.5t-47 82.5t-16.5 106.5t16.5 108.5t46.5 86.5t72 55.5t91 19.5
q63 0 106 -24t67 -70.5t24 -115.5v-24h-349v-22q0 -69 21 -118t61.5 -77.5t97.5 -28.5q91 0 171 72z" />
    <glyph glyph-name="Gcircumflex" unicode="&#x11c;" horiz-adv-x="701" 
d="M391 818l-141 -73l-6 6l143 146h8l143 -146l-6 -6zM497 324h169v-8q-22 -9 -30.5 -30.5t-8.5 -67.5v-96q0 -67 12 -82q-44 -24 -105 -37.5t-130 -13.5q-72 0 -136 23.5t-105.5 62.5t-65.5 84.5t-33 94t-9 88.5q0 69 24.5 132t69.5 110.5t108 74t137 26.5q56 0 120.5 -14
t109.5 -37v-136h-10q-33 82 -87 122.5t-134 40.5q-54 0 -101.5 -22.5t-82.5 -65t-54 -102.5t-19 -130q0 -71 19.5 -132t55 -104.5t85 -67.5t107.5 -24q75 0 114 28t39 91v86q0 35 -9.5 61t-49.5 37v8z" />
    <glyph glyph-name="gcircumflex" unicode="&#x11d;" horiz-adv-x="555" 
d="M267 652l-141 -73l-6 6l143 146h8l143 -146l-6 -6zM260 193q39 0 68 25t40.5 59.5t11.5 63.5q0 48 -20 87t-47.5 53.5t-52.5 14.5q-39 0 -68 -25t-40.5 -59.5t-11.5 -63.5q0 -48 20 -87t47.5 -53.5t52.5 -14.5zM359 0h-131q-31 0 -54 6q-31 -19 -48.5 -47t-17.5 -61
q0 -54 41 -84t105 -30q30 0 68.5 8t69.5 29.5t46 49.5t15 62t-22.5 50.5t-71.5 16.5zM235 66h126q81 0 117 -25t36 -80q0 -36 -22 -74t-61.5 -69t-93.5 -49.5t-113 -18.5q-85 0 -132 36.5t-47 93.5q0 42 31 79t78 53q-49 21 -49 68q0 17 8.5 37t26.5 37.5t36 27.5
q-49 18 -77.5 59.5t-28.5 98.5q0 37 14 70t40.5 57.5t64 38t80.5 13.5q32 0 63.5 -9t53.5 -25q13 34 37.5 55t54.5 21q24 0 38 -13t14 -31q0 -19 -11.5 -31t-30.5 -12q-16 0 -28.5 9.5t-17.5 24.5q-28 -6 -44 -33q25 -22 38.5 -54.5t13.5 -71.5q0 -37 -14 -70t-40.5 -57.5
t-64 -38t-80.5 -13.5q-28 0 -54 6q-14 -14 -23.5 -31t-9.5 -31q0 -48 71 -48z" />
    <glyph glyph-name="Gbreve" unicode="&#x11e;" horiz-adv-x="701" 
d="M511 897h8l1 -16q0 -26 -10.5 -59t-41.5 -56t-79 -23q-41 0 -69.5 17t-43.5 48.5t-15 72.5l1 16h8q10 -45 41 -71t78 -26q49 0 80 25.5t42 71.5zM497 324h169v-8q-22 -9 -30.5 -30.5t-8.5 -67.5v-96q0 -67 12 -82q-44 -24 -105 -37.5t-130 -13.5q-72 0 -136 23.5
t-105.5 62.5t-65.5 84.5t-33 94t-9 88.5q0 69 24.5 132t69.5 110.5t108 74t137 26.5q56 0 120.5 -14t109.5 -37v-136h-10q-33 82 -87 122.5t-134 40.5q-54 0 -101.5 -22.5t-82.5 -65t-54 -102.5t-19 -130q0 -71 19.5 -132t55 -104.5t85 -67.5t107.5 -24q75 0 114 28t39 91
v86q0 35 -9.5 61t-49.5 37v8z" />
    <glyph glyph-name="gbreve" unicode="&#x11f;" horiz-adv-x="555" 
d="M386 731h8l1 -16q0 -26 -10.5 -59t-41.5 -56t-79 -23q-41 0 -69.5 17t-43.5 48.5t-15 72.5l1 16h8q10 -45 41 -71t78 -26q49 0 80 25.5t42 71.5zM260 193q39 0 68 25t40.5 59.5t11.5 63.5q0 48 -20 87t-47.5 53.5t-52.5 14.5q-39 0 -68 -25t-40.5 -59.5t-11.5 -63.5
q0 -48 20 -87t47.5 -53.5t52.5 -14.5zM359 0h-131q-31 0 -54 6q-31 -19 -48.5 -47t-17.5 -61q0 -54 41 -84t105 -30q30 0 68.5 8t69.5 29.5t46 49.5t15 62t-22.5 50.5t-71.5 16.5zM235 66h126q81 0 117 -25t36 -80q0 -36 -22 -74t-61.5 -69t-93.5 -49.5t-113 -18.5
q-85 0 -132 36.5t-47 93.5q0 42 31 79t78 53q-49 21 -49 68q0 17 8.5 37t26.5 37.5t36 27.5q-49 18 -77.5 59.5t-28.5 98.5q0 37 14 70t40.5 57.5t64 38t80.5 13.5q32 0 63.5 -9t53.5 -25q13 34 37.5 55t54.5 21q24 0 38 -13t14 -31q0 -19 -11.5 -31t-30.5 -12
q-16 0 -28.5 9.5t-17.5 24.5q-28 -6 -44 -33q25 -22 38.5 -54.5t13.5 -71.5q0 -37 -14 -70t-40.5 -57.5t-64 -38t-80.5 -13.5q-28 0 -54 6q-14 -14 -23.5 -31t-9.5 -31q0 -48 71 -48z" />
    <glyph glyph-name="Gdotaccent" unicode="&#x120;" horiz-adv-x="701" 
d="M386 763q-24 0 -41 17t-17 41t17 41t41 17t41 -17t17 -41t-17 -41t-41 -17zM497 324h169v-8q-22 -9 -30.5 -30.5t-8.5 -67.5v-96q0 -67 12 -82q-44 -24 -105 -37.5t-130 -13.5q-72 0 -136 23.5t-105.5 62.5t-65.5 84.5t-33 94t-9 88.5q0 69 24.5 132t69.5 110.5t108 74
t137 26.5q56 0 120.5 -14t109.5 -37v-136h-10q-33 82 -87 122.5t-134 40.5q-54 0 -101.5 -22.5t-82.5 -65t-54 -102.5t-19 -130q0 -71 19.5 -132t55 -104.5t85 -67.5t107.5 -24q75 0 114 28t39 91v86q0 35 -9.5 61t-49.5 37v8z" />
    <glyph glyph-name="gdotaccent" unicode="&#x121;" horiz-adv-x="555" 
d="M267 597q-24 0 -41 17t-17 41t17 41t41 17t41 -17t17 -41t-17 -41t-41 -17zM260 193q39 0 68 25t40.5 59.5t11.5 63.5q0 48 -20 87t-47.5 53.5t-52.5 14.5q-39 0 -68 -25t-40.5 -59.5t-11.5 -63.5q0 -48 20 -87t47.5 -53.5t52.5 -14.5zM359 0h-131q-31 0 -54 6
q-31 -19 -48.5 -47t-17.5 -61q0 -54 41 -84t105 -30q30 0 68.5 8t69.5 29.5t46 49.5t15 62t-22.5 50.5t-71.5 16.5zM235 66h126q81 0 117 -25t36 -80q0 -36 -22 -74t-61.5 -69t-93.5 -49.5t-113 -18.5q-85 0 -132 36.5t-47 93.5q0 42 31 79t78 53q-49 21 -49 68q0 17 8.5 37
t26.5 37.5t36 27.5q-49 18 -77.5 59.5t-28.5 98.5q0 37 14 70t40.5 57.5t64 38t80.5 13.5q32 0 63.5 -9t53.5 -25q13 34 37.5 55t54.5 21q24 0 38 -13t14 -31q0 -19 -11.5 -31t-30.5 -12q-16 0 -28.5 9.5t-17.5 24.5q-28 -6 -44 -33q25 -22 38.5 -54.5t13.5 -71.5
q0 -37 -14 -70t-40.5 -57.5t-64 -38t-80.5 -13.5q-28 0 -54 6q-14 -14 -23.5 -31t-9.5 -31q0 -48 71 -48z" />
    <glyph glyph-name="Gcommaaccent" unicode="&#x122;" horiz-adv-x="701" 
d="M335 -275l-2 6q31 19 50.5 50.5t20.5 66.5l-16 -2q-18 0 -31.5 13.5t-13.5 34.5t14.5 36t35.5 15q25 0 40.5 -17.5t15.5 -46.5q0 -23 -13 -54t-42.5 -60t-58.5 -42zM497 324h169v-8q-22 -9 -30.5 -30.5t-8.5 -67.5v-96q0 -67 12 -82q-44 -24 -105 -37.5t-130 -13.5
q-72 0 -136 23.5t-105.5 62.5t-65.5 84.5t-33 94t-9 88.5q0 69 24.5 132t69.5 110.5t108 74t137 26.5q56 0 120.5 -14t109.5 -37v-136h-10q-33 82 -87 122.5t-134 40.5q-54 0 -101.5 -22.5t-82.5 -65t-54 -102.5t-19 -130q0 -71 19.5 -132t55 -104.5t85 -67.5t107.5 -24
q75 0 114 28t39 91v86q0 35 -9.5 61t-49.5 37v8z" />
    <glyph glyph-name="gcommaaccent" unicode="&#x123;" horiz-adv-x="555" 
d="M323 785l2 -6q-31 -19 -50.5 -50.5t-20.5 -66.5l16 2q18 0 31.5 -13.5t13.5 -34.5t-14.5 -36t-35.5 -15q-25 0 -40.5 17.5t-15.5 46.5q0 23 13 54t42.5 60t58.5 42zM260 193q39 0 68 25t40.5 59.5t11.5 63.5q0 48 -20 87t-47.5 53.5t-52.5 14.5q-39 0 -68 -25
t-40.5 -59.5t-11.5 -63.5q0 -48 20 -87t47.5 -53.5t52.5 -14.5zM359 0h-131q-31 0 -54 6q-31 -19 -48.5 -47t-17.5 -61q0 -54 41 -84t105 -30q30 0 68.5 8t69.5 29.5t46 49.5t15 62t-22.5 50.5t-71.5 16.5zM235 66h126q81 0 117 -25t36 -80q0 -36 -22 -74t-61.5 -69
t-93.5 -49.5t-113 -18.5q-85 0 -132 36.5t-47 93.5q0 42 31 79t78 53q-49 21 -49 68q0 17 8.5 37t26.5 37.5t36 27.5q-49 18 -77.5 59.5t-28.5 98.5q0 37 14 70t40.5 57.5t64 38t80.5 13.5q32 0 63.5 -9t53.5 -25q13 34 37.5 55t54.5 21q24 0 38 -13t14 -31q0 -19 -11.5 -31
t-30.5 -12q-16 0 -28.5 9.5t-17.5 24.5q-28 -6 -44 -33q25 -22 38.5 -54.5t13.5 -71.5q0 -37 -14 -70t-40.5 -57.5t-64 -38t-80.5 -13.5q-28 0 -54 6q-14 -14 -23.5 -31t-9.5 -31q0 -48 71 -48z" />
    <glyph glyph-name="Hcircumflex" unicode="&#x124;" horiz-adv-x="765" 
d="M383 818l-141 -73l-6 6l143 146h8l143 -146l-6 -6zM680 674v-8q-22 -9 -30.5 -30.5t-8.5 -67.5v-462q0 -46 8.5 -67.5t30.5 -30.5v-8h-149v8q22 9 30.5 30.5t8.5 67.5v221h-375v-221q0 -46 8.5 -67.5t30.5 -30.5v-8h-149v8q22 9 30.5 30.5t8.5 67.5v462q0 46 -8.5 67.5
t-30.5 30.5v8h149v-8q-22 -9 -30.5 -30.5t-8.5 -67.5v-217h375v217q0 46 -8.5 67.5t-30.5 30.5v8h149z" />
    <glyph glyph-name="hcircumflex" unicode="&#x125;" horiz-adv-x="626" 
d="M273 852l-141 -73l-6 6l143 146h8l143 -146l-6 -6zM517 374v-268q0 -46 8.5 -67.5t30.5 -30.5v-8h-143v8q22 9 30.5 30.5t8.5 67.5v236q0 62 -23.5 90.5t-76.5 28.5q-34 0 -79.5 -16.5t-93.5 -53.5v-285q0 -46 8.5 -67.5t30.5 -30.5v-8h-143v8q22 9 30.5 30.5t8.5 67.5
v515q0 63 -44 82v8l109 39v-337q106 106 205 106q133 0 133 -145z" />
    <glyph glyph-name="Hbar" unicode="&#x126;" horiz-adv-x="765" 
d="M570 351v143h-375v-143h375zM716 494h-75v-388q0 -46 8.5 -67.5t30.5 -30.5v-8h-149v8q22 9 30.5 30.5t8.5 67.5v221h-375v-221q0 -46 8.5 -67.5t30.5 -30.5v-8h-149v8q22 9 30.5 30.5t8.5 67.5v388h-75v20l75 1v53q0 46 -8.5 67.5t-30.5 30.5v8h149v-8
q-22 -9 -30.5 -30.5t-8.5 -67.5v-52l375 4v48q0 46 -8.5 67.5t-30.5 30.5v8h149v-8q-22 -9 -30.5 -30.5t-8.5 -67.5v-47l75 1v-28z" />
    <glyph glyph-name="hbar" unicode="&#x127;" horiz-adv-x="626" 
d="M517 374v-268q0 -46 8.5 -67.5t30.5 -30.5v-8h-143v8q22 9 30.5 30.5t8.5 67.5v236q0 62 -23.5 90.5t-76.5 28.5q-34 0 -79.5 -16.5t-93.5 -53.5v-285q0 -46 8.5 -67.5t30.5 -30.5v-8h-143v8q22 9 30.5 30.5t8.5 67.5v495h-85v20l85 2q-1 61 -44 80v8l109 39v-125l137 4
v-28h-137v-188q106 106 205 106q133 0 133 -145z" />
    <glyph glyph-name="Itilde" unicode="&#x128;" horiz-adv-x="319" 
d="M195 568v-462q0 -46 8.5 -67.5t30.5 -30.5v-8h-149v8q22 9 30.5 30.5t8.5 67.5v462q0 46 -8.5 67.5t-30.5 30.5v8h149v-8q-22 -9 -30.5 -30.5t-8.5 -67.5zM17 761h-8q-2 8 -2 25q0 28 12 51t32 32.5t39 9.5q27 0 68 -26t56.5 -30.5t24.5 -4.5q27 0 43 17.5t18 45.5h8
q2 -8 2 -25q0 -28 -12 -51t-32 -32.5t-39 -9.5q-25 0 -66.5 26t-57.5 30.5t-25 4.5q-27 0 -43 -17.5t-18 -45.5z" />
    <glyph glyph-name="itilde" unicode="&#x129;" horiz-adv-x="293" 
d="M179 519v-413q0 -46 8.5 -67.5t30.5 -30.5v-8h-143v8q22 9 30.5 30.5t8.5 67.5v287q0 27 -8 46.5t-36 32.5v8zM4 595h-8q-2 8 -2 25q0 28 12 51t32 32.5t39 9.5q27 0 68 -26t56.5 -30.5t24.5 -4.5q27 0 43 17.5t18 45.5h8q2 -8 2 -25q0 -28 -12 -51t-32 -32.5t-39 -9.5
q-25 0 -66.5 26t-57.5 30.5t-25 4.5q-27 0 -43 -17.5t-18 -45.5z" />
    <glyph glyph-name="Imacron" unicode="&#x12a;" horiz-adv-x="319" 
d="M195 568v-462q0 -46 8.5 -67.5t30.5 -30.5v-8h-149v8q22 9 30.5 30.5t8.5 67.5v462q0 46 -8.5 67.5t-30.5 30.5v8h149v-8q-22 -9 -30.5 -30.5t-8.5 -67.5zM5 804v34h307v-34h-307z" />
    <glyph glyph-name="imacron" unicode="&#x12b;" horiz-adv-x="293" 
d="M179 519v-413q0 -46 8.5 -67.5t30.5 -30.5v-8h-143v8q22 9 30.5 30.5t8.5 67.5v287q0 27 -8 46.5t-36 32.5v8zM-8 638v34h307v-34h-307z" />
    <glyph glyph-name="Ibreve" unicode="&#x12c;" horiz-adv-x="319" 
d="M195 568v-462q0 -46 8.5 -67.5t30.5 -30.5v-8h-149v8q22 9 30.5 30.5t8.5 67.5v462q0 46 -8.5 67.5t-30.5 30.5v8h149v-8q-22 -9 -30.5 -30.5t-8.5 -67.5zM288 881q0 -26 -10.5 -59t-41.5 -56t-79 -23q-41 0 -69.5 17t-43.5 48.5t-15 72.5l1 16h8q10 -45 41 -71t78 -26
q49 0 80 25.5t42 71.5h8z" />
    <glyph glyph-name="ibreve" unicode="&#x12d;" horiz-adv-x="293" 
d="M179 519v-413q0 -46 8.5 -67.5t30.5 -30.5v-8h-143v8q22 9 30.5 30.5t8.5 67.5v287q0 27 -8 46.5t-36 32.5v8zM275 715q0 -26 -10.5 -59t-41.5 -56t-79 -23q-41 0 -69.5 17t-43.5 48.5t-15 72.5l1 16h8q10 -45 41 -71t78 -26q49 0 80 25.5t42 71.5h8z" />
    <glyph glyph-name="Iogonek" unicode="&#x12e;" horiz-adv-x="319" 
d="M248 -158l4 -7q-20 -23 -52 -38t-69 -15q-32 0 -57.5 13t-35.5 34.5t-10 41.5q0 21 11.5 46t40 48t63.5 35h-58v8q22 9 30.5 30.5t8.5 67.5v462q0 46 -8.5 67.5t-30.5 30.5v8h149v-8q-22 -9 -30.5 -30.5t-8.5 -67.5v-462q0 -46 8.5 -67.5t30.5 -30.5v-8h-67
q-33 -17 -55 -47.5t-22 -60.5q0 -36 21.5 -54t54.5 -18q19 0 41.5 6t40.5 16z" />
    <glyph glyph-name="iogonek" unicode="&#x12f;" horiz-adv-x="293" 
d="M143 598q-21 0 -37.5 16.5t-16.5 37.5t16.5 37.5t37.5 16.5t37.5 -16.5t16.5 -37.5t-16.5 -37.5t-37.5 -16.5zM235 -158l4 -7q-20 -23 -52 -38t-69 -15q-32 0 -57.5 13t-35.5 34.5t-10 41.5q0 21 11.5 46t40 48t63.5 35h-55v8q22 9 30.5 30.5t8.5 67.5v287q0 27 -8 46.5
t-36 32.5v8l109 39v-413q0 -46 8.5 -67.5t30.5 -30.5v-8h-64q-33 -17 -55 -47.5t-22 -60.5q0 -36 21.5 -54t54.5 -18q19 0 41.5 6t40.5 16z" />
    <glyph glyph-name="Idotaccent" unicode="&#x130;" horiz-adv-x="319" 
d="M195 568v-462q0 -46 8.5 -67.5t30.5 -30.5v-8h-149v8q22 9 30.5 30.5t8.5 67.5v462q0 46 -8.5 67.5t-30.5 30.5v8h149v-8q-22 -9 -30.5 -30.5t-8.5 -67.5zM217 821q0 -24 -17 -41t-41 -17t-41 17t-17 41t17 41t41 17t41 -17t17 -41z" />
    <glyph glyph-name="dotlessi" unicode="&#x131;" horiz-adv-x="293" 
d="M179 519v-413q0 -46 8.5 -67.5t30.5 -30.5v-8h-143v8q22 9 30.5 30.5t8.5 67.5v287q0 27 -8 46.5t-36 32.5v8z" />
    <glyph glyph-name="IJ" unicode="&#x132;" horiz-adv-x="633" 
d="M195 568v-462q0 -46 8.5 -67.5t30.5 -30.5v-8h-149v8q22 9 30.5 30.5t8.5 67.5v462q0 46 -8.5 67.5t-30.5 30.5v8h149v-8q-22 -9 -30.5 -30.5t-8.5 -67.5zM514 568v-443q0 -57 -6 -90t-16 -55.5t-34.5 -48t-95.5 -60.5l-3 6q46 44 65 106.5t19 162.5v422q0 46 -8.5 67.5
t-30.5 30.5v8h149v-8q-22 -9 -30.5 -30.5t-8.5 -67.5z" />
    <glyph glyph-name="ij" unicode="&#x133;" horiz-adv-x="586" 
d="M179 519v-413q0 -46 8.5 -67.5t30.5 -30.5v-8h-143v8q22 9 30.5 30.5t8.5 67.5v287q0 27 -8 46.5t-36 32.5v8zM89 652q0 21 16.5 37.5t37.5 16.5t37.5 -16.5t16.5 -37.5t-16.5 -37.5t-37.5 -16.5t-37.5 16.5t-16.5 37.5zM407 16v377q0 27 -8 46.5t-36 32.5v8l109 39v-505
q0 -115 -40 -178t-117 -93l-3 6q47 42 71 106.5t24 160.5zM382 652q0 21 16.5 37.5t37.5 16.5t37.5 -16.5t16.5 -37.5t-16.5 -37.5t-37.5 -16.5t-37.5 16.5t-16.5 37.5z" />
    <glyph glyph-name="Jcircumflex" unicode="&#x134;" horiz-adv-x="314" 
d="M85 666v8h149v-8q-22 -9 -30.5 -30.5t-8.5 -67.5v-443q0 -57 -6 -90t-16 -55.5t-34.5 -48t-95.5 -60.5l-3 6q46 44 65 106.5t19 162.5v422q0 46 -8.5 67.5t-30.5 30.5zM161 897l143 -146l-6 -6l-141 73l-141 -73l-6 6l143 146h8z" />
    <glyph glyph-name="jcircumflex" unicode="&#x135;" horiz-adv-x="293" 
d="M70 472v8l109 39v-505q0 -115 -40 -178t-117 -93l-3 6q47 42 71 106.5t24 160.5v377q0 27 -8 46.5t-36 32.5zM150 731l143 -146l-6 -6l-141 73l-141 -73l-6 6l143 146h8z" />
    <glyph glyph-name="Kcommaaccent" unicode="&#x136;" horiz-adv-x="649" 
d="M327 -55q25 0 40.5 -17.5t15.5 -46.5q0 -23 -13 -54t-42.5 -60t-58.5 -42l-2 6q31 19 50.5 50.5t20.5 66.5l-16 -2q-18 0 -31.5 13.5t-13.5 34.5t14.5 36t35.5 15zM252 325v6l184 222q29 35 30.5 65t-24.5 48v8h166v-8q-58 -23 -128 -103l-171 -196l139 -173
q122 -151 191 -176v-8q-8 -9 -22.5 -15t-33.5 -6q-39 0 -74 27t-90 97zM195 568v-462q0 -46 8.5 -67.5t30.5 -30.5v-8h-149v8q22 9 30.5 30.5t8.5 67.5v462q0 46 -8.5 67.5t-30.5 30.5v8h149v-8q-22 -9 -30.5 -30.5t-8.5 -67.5z" />
    <glyph glyph-name="kcommaaccent" unicode="&#x137;" horiz-adv-x="549" 
d="M276 -55q25 0 40.5 -17.5t15.5 -46.5q0 -23 -13 -54t-42.5 -60t-58.5 -42l-2 6q31 19 50.5 50.5t20.5 66.5l-16 -2q-18 0 -31.5 13.5t-13.5 34.5t14.5 36t35.5 15zM216 261l112 130q17 20 27.5 43t3.5 41.5t-30 24.5v8h188v-8q-39 -14 -76.5 -39.5t-85.5 -76.5l-88 -93
l140 -159q41 -46 72.5 -77.5t64.5 -46.5v-8q-18 -11 -42 -11q-33 0 -63 20.5t-76 73.5l-147 170v8zM179 750v-644q0 -46 8.5 -67.5t30.5 -30.5v-8h-143v8q22 9 30.5 30.5t8.5 67.5v515q0 63 -44 82v8z" />
    <glyph glyph-name="Lacute" unicode="&#x139;" horiz-adv-x="550" 
d="M347 897l-160 -152h-24l84 152h100zM520 173h10v-173h-445v8q22 9 30.5 30.5t8.5 67.5v462q0 46 -8.5 67.5t-30.5 30.5v8h149v-8q-22 -9 -30.5 -30.5t-8.5 -67.5v-477q0 -35 19 -51t62 -16h69q55 0 88 11.5t53 41t34 96.5z" />
    <glyph glyph-name="lacute" unicode="&#x13a;" horiz-adv-x="293" 
d="M188 931h100l-160 -152h-24zM179 750v-644q0 -46 8.5 -67.5t30.5 -30.5v-8h-143v8q22 9 30.5 30.5t8.5 67.5v515q0 63 -44 82v8z" />
    <glyph glyph-name="Lcommaaccent" unicode="&#x13b;" horiz-adv-x="550" 
d="M249 -275l-2 6q31 19 50.5 50.5t20.5 66.5l-16 -2q-18 0 -31.5 13.5t-13.5 34.5t14.5 36t35.5 15q25 0 40.5 -17.5t15.5 -46.5q0 -23 -13 -54t-42.5 -60t-58.5 -42zM520 173h10v-173h-445v8q22 9 30.5 30.5t8.5 67.5v462q0 46 -8.5 67.5t-30.5 30.5v8h149v-8
q-22 -9 -30.5 -30.5t-8.5 -67.5v-477q0 -35 19 -51t62 -16h69q55 0 88 11.5t53 41t34 96.5z" />
    <glyph glyph-name="lcommaaccent" unicode="&#x13c;" horiz-adv-x="293" 
d="M143 -55q25 0 40.5 -17.5t15.5 -46.5q0 -23 -13 -54t-42.5 -60t-58.5 -42l-2 6q31 19 50.5 50.5t20.5 66.5l-16 -2q-18 0 -31.5 13.5t-13.5 34.5t14.5 36t35.5 15zM179 750v-644q0 -46 8.5 -67.5t30.5 -30.5v-8h-143v8q22 9 30.5 30.5t8.5 67.5v515q0 63 -44 82v8z" />
    <glyph glyph-name="Lcaron" unicode="&#x13d;" horiz-adv-x="550" 
d="M339 461l-2 6q31 19 50.5 50.5t20.5 66.5l-16 -2q-18 0 -31.5 13.5t-13.5 34.5t14.5 36t35.5 15q25 0 40.5 -17.5t15.5 -46.5q0 -23 -13 -54t-42.5 -60t-58.5 -42zM520 173h10v-173h-445v8q22 9 30.5 30.5t8.5 67.5v462q0 46 -8.5 67.5t-30.5 30.5v8h149v-8
q-22 -9 -30.5 -30.5t-8.5 -67.5v-477q0 -35 19 -51t62 -16h69q55 0 88 11.5t53 41t34 96.5z" />
    <glyph glyph-name="lcaron" unicode="&#x13e;" horiz-adv-x="339" 
d="M298 761q25 0 40.5 -17.5t15.5 -46.5q0 -23 -13 -54t-42.5 -60t-58.5 -42l-2 6q31 19 50.5 50.5t20.5 66.5l-16 -2q-18 0 -31.5 13.5t-13.5 34.5t14.5 36t35.5 15zM179 750v-644q0 -46 8.5 -67.5t30.5 -30.5v-8h-143v8q22 9 30.5 30.5t8.5 67.5v515q0 63 -44 82v8z" />
    <glyph glyph-name="Ldot" unicode="&#x13f;" horiz-adv-x="550" 
d="M395 297q-24 0 -41 17t-17 41t17 41t41 17t41 -17t17 -41t-17 -41t-41 -17zM520 173h10v-173h-445v8q22 9 30.5 30.5t8.5 67.5v462q0 46 -8.5 67.5t-30.5 30.5v8h149v-8q-22 -9 -30.5 -30.5t-8.5 -67.5v-477q0 -35 19 -51t62 -16h69q55 0 88 11.5t53 41t34 96.5z" />
    <glyph glyph-name="ldot" unicode="&#x140;" horiz-adv-x="314" 
d="M179 750v-644q0 -46 8.5 -67.5t30.5 -30.5v-8h-143v8q22 9 30.5 30.5t8.5 67.5v515q0 63 -44 82v8zM238 355q0 24 17 41t41 17t41 -17t17 -41t-17 -41t-41 -17t-41 17t-17 41z" />
    <glyph glyph-name="Lslash" unicode="&#x141;" horiz-adv-x="550" 
d="M520 173h10v-173h-445v8q22 9 30.5 30.5t8.5 67.5v165l-77 -42l-10 20l87 49v270q0 46 -8.5 67.5t-30.5 30.5v8h149v-8q-22 -9 -30.5 -30.5t-8.5 -67.5v-229l148 84v-32l-148 -81v-219q0 -35 19 -51t62 -16h69q55 0 88 11.5t53 41t34 96.5z" />
    <glyph glyph-name="lslash" unicode="&#x142;" horiz-adv-x="293" 
d="M268 422l-89 -51v-265q0 -46 8.5 -67.5t30.5 -30.5v-8h-143v8q22 9 30.5 30.5t8.5 67.5v228l-76 -43l-11 17l87 52v261q0 63 -44 82v8l109 39v-351l89 53v-30z" />
    <glyph glyph-name="Nacute" unicode="&#x143;" horiz-adv-x="723" 
d="M404 897h100l-160 -152h-24zM603 515l-9 -527h-14l-431 558l6 -378q3 -128 64 -160v-8h-159v8q27 13 43.5 53t17.5 108l3 336q1 69 -11.5 107t-47.5 54v8h80l427 -564v406q0 120 -59 150v8h149v-8q-19 -9 -33 -32.5t-19.5 -56t-6.5 -62.5z" />
    <glyph glyph-name="nacute" unicode="&#x144;" horiz-adv-x="626" 
d="M355 731h100l-160 -152h-24zM179 391v-285q0 -46 8.5 -67.5t30.5 -30.5v-8h-143v8q22 9 30.5 30.5t8.5 67.5v287q0 27 -8 46.5t-36 32.5v8l109 39v-106q106 106 205 106q133 0 133 -145v-268q0 -46 8.5 -67.5t30.5 -30.5v-8h-143v8q22 9 30.5 30.5t8.5 67.5v236
q0 62 -23.5 90.5t-76.5 28.5q-34 0 -79.5 -16.5t-93.5 -53.5z" />
    <glyph glyph-name="Ncommaaccent" unicode="&#x145;" horiz-adv-x="723" 
d="M364 -55q25 0 40.5 -17.5t15.5 -46.5q0 -23 -13 -54t-42.5 -60t-58.5 -42l-2 6q31 19 50.5 50.5t20.5 66.5l-16 -2q-18 0 -31.5 13.5t-13.5 34.5t14.5 36t35.5 15zM603 515l-9 -527h-14l-431 558l6 -378q3 -128 64 -160v-8h-159v8q27 13 43.5 53t17.5 108l3 336
q1 69 -11.5 107t-47.5 54v8h80l427 -564v406q0 120 -59 150v8h149v-8q-19 -9 -33 -32.5t-19.5 -56t-6.5 -62.5z" />
    <glyph glyph-name="ncommaaccent" unicode="&#x146;" horiz-adv-x="626" 
d="M315 -55q25 0 40.5 -17.5t15.5 -46.5q0 -23 -13 -54t-42.5 -60t-58.5 -42l-2 6q31 19 50.5 50.5t20.5 66.5l-16 -2q-18 0 -31.5 13.5t-13.5 34.5t14.5 36t35.5 15zM179 391v-285q0 -46 8.5 -67.5t30.5 -30.5v-8h-143v8q22 9 30.5 30.5t8.5 67.5v287q0 27 -8 46.5
t-36 32.5v8l109 39v-106q106 106 205 106q133 0 133 -145v-268q0 -46 8.5 -67.5t30.5 -30.5v-8h-143v8q22 9 30.5 30.5t8.5 67.5v236q0 62 -23.5 90.5t-76.5 28.5q-34 0 -79.5 -16.5t-93.5 -53.5z" />
    <glyph glyph-name="Ncaron" unicode="&#x147;" horiz-adv-x="723" 
d="M366 745h-8l-143 146l6 6l141 -73l141 73l6 -6zM513 674h149v-8q-19 -9 -33 -32.5t-19.5 -56t-6.5 -62.5l-9 -527h-14l-431 558l6 -378q3 -128 64 -160v-8h-159v8q27 13 43.5 53t17.5 108l3 336q1 69 -11.5 107t-47.5 54v8h80l427 -564v406q0 120 -59 150v8z" />
    <glyph glyph-name="ncaron" unicode="&#x148;" horiz-adv-x="626" 
d="M317 579h-8l-143 146l6 6l141 -73l141 73l6 -6zM517 374v-268q0 -46 8.5 -67.5t30.5 -30.5v-8h-143v8q22 9 30.5 30.5t8.5 67.5v236q0 62 -23.5 90.5t-76.5 28.5q-34 0 -79.5 -16.5t-93.5 -53.5v-285q0 -46 8.5 -67.5t30.5 -30.5v-8h-143v8q22 9 30.5 30.5t8.5 67.5v287
q0 27 -8 46.5t-36 32.5v8l109 39v-106q106 106 205 106q133 0 133 -145z" />
    <glyph glyph-name="Omacron" unicode="&#x14c;" horiz-adv-x="768" 
d="M230 804v34h307v-34h-307zM383 13q55 0 101 23t79 66.5t50.5 104.5t17.5 134q0 65 -18 124t-51 103t-79 68.5t-100 24.5t-100 -24.5t-79 -68.5t-50.5 -102.5t-17.5 -124.5q0 -72 18 -133t50.5 -104.5t78.5 -67t100 -23.5zM382 -11q-71 0 -132 24.5t-104.5 71t-67 112.5
t-23.5 145q0 68 23.5 131t67 110.5t105 74.5t132.5 27q73 0 134.5 -26.5t105.5 -73.5t67 -110t23 -133q0 -77 -24.5 -142.5t-69.5 -112.5t-106 -72.5t-131 -25.5z" />
    <glyph glyph-name="omacron" unicode="&#x14d;" horiz-adv-x="595" 
d="M143 638v34h307v-34h-307zM540 262q0 -61 -17.5 -112t-50.5 -86.5t-79 -55t-101 -19.5q-53 0 -97.5 19t-75.5 54t-47.5 82.5t-16.5 101.5q0 61 17.5 112t50.5 86.5t79 55t101 19.5q53 0 97.5 -19t75.5 -54t47.5 -82.5t16.5 -101.5zM128 263q0 -113 49.5 -181.5
t129.5 -68.5q69 0 114.5 62.5t45.5 169.5q0 113 -49.5 181.5t-129.5 68.5q-69 0 -114.5 -62.5t-45.5 -169.5z" />
    <glyph glyph-name="Obreve" unicode="&#x14e;" horiz-adv-x="768" 
d="M383 13q55 0 101 23t79 66.5t50.5 104.5t17.5 134q0 65 -18 124t-51 103t-79 68.5t-100 24.5t-100 -24.5t-79 -68.5t-50.5 -102.5t-17.5 -124.5q0 -72 18 -133t50.5 -104.5t78.5 -67t100 -23.5zM382 -11q-71 0 -132 24.5t-104.5 71t-67 112.5t-23.5 145q0 68 23.5 131
t67 110.5t105 74.5t132.5 27q73 0 134.5 -26.5t105.5 -73.5t67 -110t23 -133q0 -77 -24.5 -142.5t-69.5 -112.5t-106 -72.5t-131 -25.5zM513 881q0 -26 -10.5 -59t-41.5 -56t-79 -23q-41 0 -69.5 17t-43.5 48.5t-15 72.5l1 16h8q10 -45 41 -71t78 -26q49 0 80 25.5t42 71.5
h8z" />
    <glyph glyph-name="obreve" unicode="&#x14f;" horiz-adv-x="595" 
d="M540 262q0 -61 -17.5 -112t-50.5 -86.5t-79 -55t-101 -19.5q-53 0 -97.5 19t-75.5 54t-47.5 82.5t-16.5 101.5q0 61 17.5 112t50.5 86.5t79 55t101 19.5q53 0 97.5 -19t75.5 -54t47.5 -82.5t16.5 -101.5zM128 263q0 -113 49.5 -181.5t129.5 -68.5q69 0 114.5 62.5
t45.5 169.5q0 113 -49.5 181.5t-129.5 68.5q-69 0 -114.5 -62.5t-45.5 -169.5zM426 715q0 -26 -10.5 -59t-41.5 -56t-79 -23q-41 0 -69.5 17t-43.5 48.5t-15 72.5l1 16h8q10 -45 41 -71t78 -26q49 0 80 25.5t42 71.5h8z" />
    <glyph glyph-name="Ohungarumlaut" unicode="&#x150;" horiz-adv-x="768" 
d="M368 897h95l-155 -152h-24zM508 897h95l-155 -152h-24zM383 13q55 0 101 23t79 66.5t50.5 104.5t17.5 134q0 65 -18 124t-51 103t-79 68.5t-100 24.5t-100 -24.5t-79 -68.5t-50.5 -102.5t-17.5 -124.5q0 -72 18 -133t50.5 -104.5t78.5 -67t100 -23.5zM382 -11
q-71 0 -132 24.5t-104.5 71t-67 112.5t-23.5 145q0 68 23.5 131t67 110.5t105 74.5t132.5 27q73 0 134.5 -26.5t105.5 -73.5t67 -110t23 -133q0 -77 -24.5 -142.5t-69.5 -112.5t-106 -72.5t-131 -25.5z" />
    <glyph glyph-name="ohungarumlaut" unicode="&#x151;" horiz-adv-x="595" 
d="M281 731h95l-155 -152h-24zM421 731h95l-155 -152h-24zM540 262q0 -61 -17.5 -112t-50.5 -86.5t-79 -55t-101 -19.5q-53 0 -97.5 19t-75.5 54t-47.5 82.5t-16.5 101.5q0 61 17.5 112t50.5 86.5t79 55t101 19.5q53 0 97.5 -19t75.5 -54t47.5 -82.5t16.5 -101.5zM128 263
q0 -113 49.5 -181.5t129.5 -68.5q69 0 114.5 62.5t45.5 169.5q0 113 -49.5 181.5t-129.5 68.5q-69 0 -114.5 -62.5t-45.5 -169.5z" />
    <glyph glyph-name="OE" unicode="&#x152;" horiz-adv-x="1068" 
d="M378 13q55 0 100.5 23t77 66t48.5 104.5t17 134.5q0 65 -17.5 124t-50 103t-78 68.5t-97.5 24.5t-97.5 -24.5t-77.5 -68.5t-49.5 -102.5t-17.5 -124.5q0 -72 17.5 -133t50 -104.5t77.5 -67t97 -23.5zM1023 153h10v-153h-419v111q-31 -41 -72.5 -70.5t-85 -40.5t-79.5 -11
q-70 0 -130 24.5t-102.5 71t-66 112.5t-23.5 145q0 68 23 131t66.5 110.5t103.5 74.5t130 27q68 0 129.5 -33t106.5 -92v114h404v-134h-10q-19 54 -55 81.5t-126 27.5h-142v-297l121 4q45 1 68.5 22t33.5 68h8v-201h-8q-11 46 -35 65t-70 20l-118 4v-243q0 -35 19 -51
t62 -16h82q55 0 88 10t53 35.5t34 83.5z" />
    <glyph glyph-name="oe" unicode="&#x153;" horiz-adv-x="944" 
d="M307 13q69 0 114.5 62.5t45.5 169.5q0 113 -49.5 181.5t-129.5 68.5q-69 0 -114.5 -62.5t-45.5 -169.5q0 -113 49.5 -181.5t129.5 -68.5zM543 309l275 13q-1 49 -14.5 88.5t-41 62t-69.5 22.5q-63 0 -102.5 -51t-47.5 -135zM892 111l7 -8q-34 -51 -84 -82.5t-115 -31.5
q-49 0 -91.5 17t-68.5 44t-39 52q-31 -53 -86 -83t-123 -30q-53 0 -97.5 19t-75.5 54t-47.5 82.5t-16.5 101.5q0 61 17.5 112t50.5 86.5t79 55t101 19.5q32 0 70.5 -10t73.5 -37t57 -65q29 52 78.5 82t110.5 30q63 0 106 -24t67 -70.5t24 -115.5v-24h-349v-22q0 -69 21 -118
t61.5 -77.5t97.5 -28.5q91 0 171 72z" />
    <glyph glyph-name="Racute" unicode="&#x154;" horiz-adv-x="619" 
d="M352 897h100l-160 -152h-24zM563 -11q-30 0 -62 18.5t-123 130.5l-144 175v8q107 3 163.5 45.5t56.5 115.5q0 82 -54 124.5t-151 42.5h-54v-543q0 -46 8.5 -67.5t30.5 -30.5v-8h-149v8q22 9 30.5 30.5t8.5 67.5v462q0 46 -8.5 67.5t-30.5 30.5v8h192q124 0 191 -49.5
t67 -135.5q0 -29 -11 -58.5t-37 -53.5t-67 -41.5t-97 -24.5l104 -120q47 -54 80.5 -90.5t58 -55.5t53.5 -27v-8q-8 -9 -22.5 -15t-33.5 -6z" />
    <glyph glyph-name="racute" unicode="&#x155;" horiz-adv-x="401" 
d="M272 731h100l-160 -152h-24zM179 409q30 38 61.5 65t55 36t38.5 9q24 1 40.5 -15t16.5 -38q0 -23 -15 -38.5t-38 -15.5q-20 0 -35.5 16t-16.5 41q-18 -2 -49 -27.5t-58 -60.5v-275q0 -35 8 -61t41 -37v-8h-153v8q22 9 30.5 30.5t8.5 67.5v287q0 27 -8 46.5t-36 32.5v8
l109 39v-110z" />
    <glyph glyph-name="Rcommaaccent" unicode="&#x156;" horiz-adv-x="619" 
d="M332 -55q25 0 40.5 -17.5t15.5 -46.5q0 -23 -13 -54t-42.5 -60t-58.5 -42l-2 6q31 19 50.5 50.5t20.5 66.5l-16 -2q-18 0 -31.5 13.5t-13.5 34.5t14.5 36t35.5 15zM563 -11q-30 0 -62 18.5t-123 130.5l-144 175v8q107 3 163.5 45.5t56.5 115.5q0 82 -54 124.5t-151 42.5
h-54v-543q0 -46 8.5 -67.5t30.5 -30.5v-8h-149v8q22 9 30.5 30.5t8.5 67.5v462q0 46 -8.5 67.5t-30.5 30.5v8h192q124 0 191 -49.5t67 -135.5q0 -29 -11 -58.5t-37 -53.5t-67 -41.5t-97 -24.5l104 -120q47 -54 80.5 -90.5t58 -55.5t53.5 -27v-8q-8 -9 -22.5 -15t-33.5 -6z
" />
    <glyph glyph-name="rcommaaccent" unicode="&#x157;" horiz-adv-x="401" 
d="M172 -53q25 0 40.5 -17.5t15.5 -46.5q0 -23 -13 -54t-42.5 -60t-58.5 -42l-2 6q31 19 50.5 50.5t20.5 66.5l-16 -2q-18 0 -31.5 13.5t-13.5 34.5t14.5 36t35.5 15zM179 409q30 38 61.5 65t55 36t38.5 9q24 1 40.5 -15t16.5 -38q0 -23 -15 -38.5t-38 -15.5q-20 0 -35.5 16
t-16.5 41q-18 -2 -49 -27.5t-58 -60.5v-275q0 -35 8 -61t41 -37v-8h-153v8q22 9 30.5 30.5t8.5 67.5v287q0 27 -8 46.5t-36 32.5v8l109 39v-110z" />
    <glyph glyph-name="Rcaron" unicode="&#x158;" horiz-adv-x="619" 
d="M314 745h-8l-143 146l6 6l141 -73l141 73l6 -6zM323 311l104 -120q47 -54 80.5 -90.5t58 -55.5t53.5 -27v-8q-8 -9 -22.5 -15t-33.5 -6q-30 0 -62 18.5t-123 130.5l-144 175v8q107 3 163.5 45.5t56.5 115.5q0 82 -54 124.5t-151 42.5h-54v-543q0 -46 8.5 -67.5
t30.5 -30.5v-8h-149v8q22 9 30.5 30.5t8.5 67.5v462q0 46 -8.5 67.5t-30.5 30.5v8h192q124 0 191 -49.5t67 -135.5q0 -29 -11 -58.5t-37 -53.5t-67 -41.5t-97 -24.5z" />
    <glyph glyph-name="rcaron" unicode="&#x159;" horiz-adv-x="401" 
d="M234 579h-8l-143 146l6 6l141 -73l141 73l6 -6zM179 519v-110q30 38 61.5 65t55 36t38.5 9q24 1 40.5 -15t16.5 -38q0 -23 -15 -38.5t-38 -15.5q-20 0 -35.5 16t-16.5 41q-18 -2 -49 -27.5t-58 -60.5v-275q0 -35 8 -61t41 -37v-8h-153v8q22 9 30.5 30.5t8.5 67.5v287
q0 27 -8 46.5t-36 32.5v8z" />
    <glyph glyph-name="Sacute" unicode="&#x15a;" horiz-adv-x="486" 
d="M275 897h100l-160 -152h-24zM61 181q25 -83 73.5 -124.5t104.5 -42.5q41 0 70 15t46 43t17 65q0 41 -19.5 72t-50.5 54t-100 61t-98.5 67t-43 59.5t-13.5 67.5q0 35 14.5 66t41 53.5t63 35t77.5 12.5q107 0 172 -43v-138h-10q-9 37 -30 73.5t-58.5 60t-78.5 23.5
q-26 0 -55 -11.5t-48 -40.5t-19 -64q0 -49 29.5 -88t118 -89t114.5 -75t38 -46.5t16.5 -43t4.5 -39.5q0 -36 -14 -68t-39.5 -56t-62 -37.5t-79.5 -13.5q-46 0 -91.5 10.5t-99.5 38.5v143h10z" />
    <glyph glyph-name="sacute" unicode="&#x15b;" horiz-adv-x="443" 
d="M263 731h100l-160 -152h-24zM221 -9q-46 -1 -86.5 13t-62.5 35t-22 46q0 22 14 36.5t35 14.5t35.5 -13t14.5 -33q0 -14 -7.5 -26.5t-19.5 -18.5q16 -17 44 -25t54 -8q25 0 53.5 8.5t47.5 32t19 54.5q0 27 -10 46t-30 37.5t-88 48.5t-87 42t-32 25.5t-20.5 27.5t-10.5 27
t-3 28q0 33 18.5 61.5t57 48.5t94.5 20q33 0 70 -10t61.5 -34.5t24.5 -51.5q0 -20 -13.5 -34.5t-34.5 -14.5t-35.5 13t-14.5 33q0 15 9 28t23 19q-11 13 -38 21.5t-57 8.5q-25 0 -50.5 -8.5t-40 -29.5t-14.5 -46q0 -29 16.5 -49.5t42 -35t77.5 -37t80.5 -42t45.5 -46.5
t17 -64q0 -39 -21 -72t-61.5 -55t-94.5 -21z" />
    <glyph glyph-name="Scircumflex" unicode="&#x15c;" horiz-adv-x="486" 
d="M233 818l-141 -73l-6 6l143 146h8l143 -146l-6 -6zM415 504h-10q-9 37 -30 73.5t-58.5 60t-78.5 23.5q-26 0 -55 -11.5t-48 -40.5t-19 -64q0 -49 29.5 -88t118 -89t114.5 -75t38 -46.5t16.5 -43t4.5 -39.5q0 -36 -14 -68t-39.5 -56t-62 -37.5t-79.5 -13.5
q-46 0 -91.5 10.5t-99.5 38.5v143h10q25 -83 73.5 -124.5t104.5 -42.5q41 0 70 15t46 43t17 65q0 41 -19.5 72t-50.5 54t-100 61t-98.5 67t-43 59.5t-13.5 67.5q0 35 14.5 66t41 53.5t63 35t77.5 12.5q107 0 172 -43v-138z" />
    <glyph glyph-name="scircumflex" unicode="&#x15d;" horiz-adv-x="443" 
d="M221 652l-141 -73l-6 6l143 146h8l143 -146l-6 -6zM119 413q0 -29 16.5 -49.5t42 -35t77.5 -37t80.5 -42t45.5 -46.5t17 -64q0 -39 -21 -72t-61.5 -55t-94.5 -21q-46 -1 -86.5 13t-62.5 35t-22 46q0 22 14 36.5t35 14.5t35.5 -13t14.5 -33q0 -14 -7.5 -26.5t-19.5 -18.5
q16 -17 44 -25t54 -8q25 0 53.5 8.5t47.5 32t19 54.5q0 27 -10 46t-30 37.5t-88 48.5t-87 42t-32 25.5t-20.5 27.5t-10.5 27t-3 28q0 33 18.5 61.5t57 48.5t94.5 20q33 0 70 -10t61.5 -34.5t24.5 -51.5q0 -20 -13.5 -34.5t-34.5 -14.5t-35.5 13t-14.5 33q0 15 9 28t23 19
q-11 13 -38 21.5t-57 8.5q-25 0 -50.5 -8.5t-40 -29.5t-14.5 -46z" />
    <glyph glyph-name="Scedilla" unicode="&#x15e;" horiz-adv-x="486" 
d="M415 504h-10q-9 37 -30 73.5t-58.5 60t-78.5 23.5q-26 0 -55 -11.5t-48 -40.5t-19 -64q0 -49 29.5 -88t118 -89t114.5 -75t38 -46.5t16.5 -43t4.5 -39.5q0 -42 -18 -77.5t-55.5 -62.5t-92.5 -33l-24 -56q42 -3 68.5 -24.5t26.5 -50.5q0 -35 -27.5 -56.5t-73.5 -21.5
q-26 0 -53 8t-44 19l5 16q34 -17 67 -17q27 0 44.5 14t17.5 37t-22 40.5t-66 19.5l44 70q-44 1 -87 11.5t-96 37.5v143h10q25 -83 73.5 -124.5t104.5 -42.5q41 0 70 15t46 43t17 65q0 41 -19.5 72t-50.5 54t-100 61t-98.5 67t-43 59.5t-13.5 67.5q0 35 14.5 66t41 53.5
t63 35t77.5 12.5q107 0 172 -43v-138z" />
    <glyph glyph-name="scedilla" unicode="&#x15f;" horiz-adv-x="443" 
d="M159 -81l45 72q-27 1 -62 10.5t-63.5 32t-28.5 51.5q0 22 14 36.5t35 14.5t35.5 -13t14.5 -33q0 -14 -7.5 -26.5t-19.5 -18.5q16 -17 44 -25t54 -8q25 0 53.5 8.5t47.5 32t19 54.5q0 27 -10 46t-30 37.5t-88 48.5t-87 42t-32 25.5t-20.5 27.5t-10.5 27t-3 28
q0 33 18.5 61.5t57 48.5t94.5 20q33 0 70 -10t61.5 -34.5t24.5 -51.5q0 -20 -13.5 -34.5t-34.5 -14.5t-35.5 13t-14.5 33q0 15 9 28t23 19q-11 13 -38 21.5t-57 8.5q-25 0 -50.5 -8.5t-40 -29.5t-14.5 -46q0 -29 16.5 -49.5t42 -35t77.5 -37t80.5 -42t45.5 -46.5t17 -64
q0 -44 -26 -79t-63.5 -51t-68.5 -18l-24 -56q42 -3 68.5 -24.5t26.5 -50.5q0 -35 -27.5 -56.5t-73.5 -21.5q-26 0 -53 8t-44 19l5 16q34 -17 67 -17q27 0 44.5 14t17.5 37t-22 40.5t-66 19.5z" />
    <glyph glyph-name="Scaron" unicode="&#x160;" horiz-adv-x="486" 
d="M237 745h-8l-143 146l6 6l141 -73l141 73l6 -6zM415 504h-10q-9 37 -30 73.5t-58.5 60t-78.5 23.5q-26 0 -55 -11.5t-48 -40.5t-19 -64q0 -49 29.5 -88t118 -89t114.5 -75t38 -46.5t16.5 -43t4.5 -39.5q0 -36 -14 -68t-39.5 -56t-62 -37.5t-79.5 -13.5q-46 0 -91.5 10.5
t-99.5 38.5v143h10q25 -83 73.5 -124.5t104.5 -42.5q41 0 70 15t46 43t17 65q0 41 -19.5 72t-50.5 54t-100 61t-98.5 67t-43 59.5t-13.5 67.5q0 35 14.5 66t41 53.5t63 35t77.5 12.5q107 0 172 -43v-138z" />
    <glyph glyph-name="scaron" unicode="&#x161;" horiz-adv-x="443" 
d="M225 579h-8l-143 146l6 6l141 -73l141 73l6 -6zM119 413q0 -29 16.5 -49.5t42 -35t77.5 -37t80.5 -42t45.5 -46.5t17 -64q0 -39 -21 -72t-61.5 -55t-94.5 -21q-46 -1 -86.5 13t-62.5 35t-22 46q0 22 14 36.5t35 14.5t35.5 -13t14.5 -33q0 -14 -7.5 -26.5t-19.5 -18.5
q16 -17 44 -25t54 -8q25 0 53.5 8.5t47.5 32t19 54.5q0 27 -10 46t-30 37.5t-88 48.5t-87 42t-32 25.5t-20.5 27.5t-10.5 27t-3 28q0 33 18.5 61.5t57 48.5t94.5 20q33 0 70 -10t61.5 -34.5t24.5 -51.5q0 -20 -13.5 -34.5t-34.5 -14.5t-35.5 13t-14.5 33q0 15 9 28t23 19
q-11 13 -38 21.5t-57 8.5q-25 0 -50.5 -8.5t-40 -29.5t-14.5 -46z" />
    <glyph glyph-name="Tcommaaccent" unicode="&#x162;" horiz-adv-x="605" 
d="M30 674h545v-171h-10q-13 74 -49 110.5t-108 36.5h-72v-544q0 -46 8.5 -67.5t30.5 -30.5v-8h-58l-28 -65q42 -3 68.5 -24.5t26.5 -50.5q0 -35 -27.5 -56.5t-73.5 -21.5q-26 0 -53 8t-44 19l5 16q34 -17 67 -17q27 0 44.5 14t17.5 37t-22 40.5t-66 19.5l51 81h-57v8
q22 9 30.5 30.5t8.5 67.5v544h-68q-72 0 -108 -36.5t-49 -110.5h-10v171z" />
    <glyph glyph-name="tcommaaccent" unicode="&#x163;" horiz-adv-x="349" 
d="M335 58l4 -8q-19 -21 -50 -36t-61 -17l-27 -62q42 -3 68.5 -24.5t26.5 -50.5q0 -35 -27.5 -56.5t-73.5 -21.5q-26 0 -53 8t-44 19l5 16q34 -17 67 -17q27 0 44.5 14t17.5 37t-22 40.5t-66 19.5l50 80q-80 14 -80 125v341h-81v24q48 19 79 53.5t47 95.5h20v-140l156 10
l-9 -43h-147v-328q0 -52 17 -74t58 -22q44 0 81 17z" />
    <glyph glyph-name="Tcaron" unicode="&#x164;" horiz-adv-x="605" 
d="M307 745h-8l-143 146l6 6l141 -73l141 73l6 -6zM30 674h545v-171h-10q-13 74 -49 110.5t-108 36.5h-72v-544q0 -46 8.5 -67.5t30.5 -30.5v-8h-149v8q22 9 30.5 30.5t8.5 67.5v544h-68q-72 0 -108 -36.5t-49 -110.5h-10v171z" />
    <glyph glyph-name="tcaron" unicode="&#x165;" horiz-adv-x="349" 
d="M238 541l-2 6q31 19 50.5 50.5t20.5 66.5l-16 -2q-18 0 -31.5 13.5t-13.5 34.5t14.5 36t35.5 15q25 0 40.5 -17.5t15.5 -46.5q0 -23 -13 -54t-42.5 -60t-58.5 -42zM179 465v-328q0 -52 17 -74t58 -22q44 0 81 17l4 -8q-21 -23 -55 -38t-66 -15q-104 0 -104 127v341h-81
v24q48 19 79 53.5t47 95.5h20v-140l156 10l-9 -43h-147z" />
    <glyph glyph-name="Tbar" unicode="&#x166;" horiz-adv-x="605" 
d="M30 674h545v-171h-10q-13 74 -49 110.5t-108 36.5h-72v-301l160 3v-28h-160v-218q0 -46 8.5 -67.5t30.5 -30.5v-8h-149v8q22 9 30.5 30.5t8.5 67.5v218h-146v20l146 3v303h-68q-72 0 -108 -36.5t-49 -110.5h-10v171z" />
    <glyph glyph-name="tbar" unicode="&#x167;" horiz-adv-x="349" 
d="M335 58l4 -8q-21 -23 -55 -38t-66 -15q-104 0 -104 127v137h-75v20l75 2v182h-81v24q48 19 79 53.5t47 95.5h20v-140l156 10l-9 -43h-147v-180l147 4v-28h-147v-124q0 -52 17 -74t58 -22q44 0 81 17z" />
    <glyph glyph-name="Utilde" unicode="&#x168;" horiz-adv-x="697" 
d="M364 -9q-54 0 -100 13t-79.5 40t-52 70.5t-18.5 101.5v352q0 46 -8.5 67.5t-30.5 30.5v8h149v-8q-22 -9 -30.5 -30.5t-8.5 -67.5v-342q0 -199 189 -199q31 0 63 7.5t58.5 28t43.5 58t17 95.5l-3 290q-1 72 -18.5 108.5t-47.5 51.5v8h169v-8q-20 -10 -35.5 -31t-24 -53
t-9.5 -77l-5 -290q-1 -70 -25.5 -119t-71.5 -77t-121 -28zM227 761h-8q-2 8 -2 25q0 28 12 51t32 32.5t39 9.5q27 0 68 -26t56.5 -30.5t24.5 -4.5q27 0 43 17.5t18 45.5h8q2 -8 2 -25q0 -28 -12 -51t-32 -32.5t-39 -9.5q-25 0 -66.5 26t-57.5 30.5t-25 4.5q-27 0 -43 -17.5
t-18 -45.5z" />
    <glyph glyph-name="utilde" unicode="&#x169;" horiz-adv-x="614" 
d="M435 117v276q0 27 -8 46.5t-36 32.5v8l109 39v-404q0 -32 9 -56.5t35 -35.5v-8l-109 -26v106q-49 -55 -95 -80.5t-98 -25.5q-65 0 -99 38t-34 107v259q0 27 -8 46.5t-36 32.5v8l109 39v-353q0 -62 23.5 -90.5t76.5 -28.5q75 0 161 70zM165 595h-8q-2 8 -2 25q0 28 12 51
t32 32.5t39 9.5q27 0 68 -26t56.5 -30.5t24.5 -4.5q27 0 43 17.5t18 45.5h8q2 -8 2 -25q0 -28 -12 -51t-32 -32.5t-39 -9.5q-25 0 -66.5 26t-57.5 30.5t-25 4.5q-27 0 -43 -17.5t-18 -45.5z" />
    <glyph glyph-name="Umacron" unicode="&#x16a;" horiz-adv-x="697" 
d="M364 -9q-54 0 -100 13t-79.5 40t-52 70.5t-18.5 101.5v352q0 46 -8.5 67.5t-30.5 30.5v8h149v-8q-22 -9 -30.5 -30.5t-8.5 -67.5v-342q0 -199 189 -199q31 0 63 7.5t58.5 28t43.5 58t17 95.5l-3 290q-1 72 -18.5 108.5t-47.5 51.5v8h169v-8q-20 -10 -35.5 -31t-24 -53
t-9.5 -77l-5 -290q-1 -70 -25.5 -119t-71.5 -77t-121 -28zM215 804v34h307v-34h-307z" />
    <glyph glyph-name="umacron" unicode="&#x16b;" horiz-adv-x="614" 
d="M435 117v276q0 27 -8 46.5t-36 32.5v8l109 39v-404q0 -32 9 -56.5t35 -35.5v-8l-109 -26v106q-49 -55 -95 -80.5t-98 -25.5q-65 0 -99 38t-34 107v259q0 27 -8 46.5t-36 32.5v8l109 39v-353q0 -62 23.5 -90.5t76.5 -28.5q75 0 161 70zM153 638v34h307v-34h-307z" />
    <glyph glyph-name="Ubreve" unicode="&#x16c;" horiz-adv-x="697" 
d="M364 -9q-54 0 -100 13t-79.5 40t-52 70.5t-18.5 101.5v352q0 46 -8.5 67.5t-30.5 30.5v8h149v-8q-22 -9 -30.5 -30.5t-8.5 -67.5v-342q0 -199 189 -199q31 0 63 7.5t58.5 28t43.5 58t17 95.5l-3 290q-1 72 -18.5 108.5t-47.5 51.5v8h169v-8q-20 -10 -35.5 -31t-24 -53
t-9.5 -77l-5 -290q-1 -70 -25.5 -119t-71.5 -77t-121 -28zM498 881q0 -26 -10.5 -59t-41.5 -56t-79 -23q-41 0 -69.5 17t-43.5 48.5t-15 72.5l1 16h8q10 -45 41 -71t78 -26q49 0 80 25.5t42 71.5h8z" />
    <glyph glyph-name="ubreve" unicode="&#x16d;" horiz-adv-x="614" 
d="M435 117v276q0 27 -8 46.5t-36 32.5v8l109 39v-404q0 -32 9 -56.5t35 -35.5v-8l-109 -26v106q-49 -55 -95 -80.5t-98 -25.5q-65 0 -99 38t-34 107v259q0 27 -8 46.5t-36 32.5v8l109 39v-353q0 -62 23.5 -90.5t76.5 -28.5q75 0 161 70zM436 715q0 -26 -10.5 -59t-41.5 -56
t-79 -23q-41 0 -69.5 17t-43.5 48.5t-15 72.5l1 16h8q10 -45 41 -71t78 -26q49 0 80 25.5t42 71.5h8z" />
    <glyph glyph-name="Uring" unicode="&#x16e;" horiz-adv-x="697" 
d="M452 821q0 -34 -24.5 -58.5t-58.5 -24.5t-58.5 24.5t-24.5 58.5t24.5 58.5t58.5 24.5t58.5 -24.5t24.5 -58.5zM321 821q0 -19 14.5 -33.5t33.5 -14.5t33.5 14.5t14.5 33.5t-14.5 33.5t-33.5 14.5t-33.5 -14.5t-14.5 -33.5zM364 -9q-54 0 -100 13t-79.5 40t-52 70.5
t-18.5 101.5v352q0 46 -8.5 67.5t-30.5 30.5v8h149v-8q-22 -9 -30.5 -30.5t-8.5 -67.5v-342q0 -199 189 -199q31 0 63 7.5t58.5 28t43.5 58t17 95.5l-3 290q-1 72 -18.5 108.5t-47.5 51.5v8h169v-8q-20 -10 -35.5 -31t-24 -53t-9.5 -77l-5 -290q-1 -70 -25.5 -119t-71.5 -77
t-121 -28z" />
    <glyph glyph-name="uring" unicode="&#x16f;" horiz-adv-x="614" 
d="M390 655q0 -34 -24.5 -58.5t-58.5 -24.5t-58.5 24.5t-24.5 58.5t24.5 58.5t58.5 24.5t58.5 -24.5t24.5 -58.5zM259 655q0 -19 14.5 -33.5t33.5 -14.5t33.5 14.5t14.5 33.5t-14.5 33.5t-33.5 14.5t-33.5 -14.5t-14.5 -33.5zM435 117v276q0 27 -8 46.5t-36 32.5v8l109 39
v-404q0 -32 9 -56.5t35 -35.5v-8l-109 -26v106q-49 -55 -95 -80.5t-98 -25.5q-65 0 -99 38t-34 107v259q0 27 -8 46.5t-36 32.5v8l109 39v-353q0 -62 23.5 -90.5t76.5 -28.5q75 0 161 70z" />
    <glyph glyph-name="Uhungarumlaut" unicode="&#x170;" horiz-adv-x="697" 
d="M364 -9q-54 0 -100 13t-79.5 40t-52 70.5t-18.5 101.5v352q0 46 -8.5 67.5t-30.5 30.5v8h149v-8q-22 -9 -30.5 -30.5t-8.5 -67.5v-342q0 -199 189 -199q31 0 63 7.5t58.5 28t43.5 58t17 95.5l-3 290q-1 72 -18.5 108.5t-47.5 51.5v8h169v-8q-20 -10 -35.5 -31t-24 -53
t-9.5 -77l-5 -290q-1 -70 -25.5 -119t-71.5 -77t-121 -28zM353 897h95l-155 -152h-24zM493 897h95l-155 -152h-24z" />
    <glyph glyph-name="uhungarumlaut" unicode="&#x171;" horiz-adv-x="614" 
d="M435 117v276q0 27 -8 46.5t-36 32.5v8l109 39v-404q0 -32 9 -56.5t35 -35.5v-8l-109 -26v106q-49 -55 -95 -80.5t-98 -25.5q-65 0 -99 38t-34 107v259q0 27 -8 46.5t-36 32.5v8l109 39v-353q0 -62 23.5 -90.5t76.5 -28.5q75 0 161 70zM291 731h95l-155 -152h-24zM431 731
h95l-155 -152h-24z" />
    <glyph glyph-name="Uogonek" unicode="&#x172;" horiz-adv-x="697" 
d="M487 674h169v-8q-20 -10 -35.5 -31t-24 -53t-9.5 -77l-5 -290q-1 -48 -16 -95.5t-53.5 -80.5t-94.5 -43q-30 -18 -49.5 -47t-19.5 -57q0 -36 21.5 -54t54.5 -18q19 0 41.5 6t40.5 16l4 -7q-20 -23 -52 -38t-69 -15q-32 0 -57.5 13t-35.5 34.5t-10 41.5q0 37 26.5 69
t66.5 51h-16q-54 0 -100 13t-79.5 40t-52 70.5t-18.5 101.5v352q0 46 -8.5 67.5t-30.5 30.5v8h149v-8q-22 -9 -30.5 -30.5t-8.5 -67.5v-342q0 -199 189 -199q31 0 63 7.5t58.5 28t43.5 58t17 95.5l-3 290q-1 72 -18.5 108.5t-47.5 51.5v8z" />
    <glyph glyph-name="uogonek" unicode="&#x173;" horiz-adv-x="614" 
d="M545 -158l4 -7q-20 -23 -52 -38t-69 -15q-32 0 -57.5 13t-35.5 34.5t-10 41.5t11 44.5t38.5 47.5t60.5 35v97q-49 -55 -95 -80.5t-98 -25.5q-65 0 -99 38t-34 107v259q0 27 -8 46.5t-36 32.5v8l109 39v-353q0 -62 23.5 -90.5t76.5 -28.5q75 0 161 70v276q0 27 -8 46.5
t-36 32.5v8l109 39v-404q0 -32 9 -56.5t35 -35.5v-8l-92 -22q-28 -18 -46.5 -46t-18.5 -55q0 -36 21.5 -54t54.5 -18q19 0 41.5 6t40.5 16z" />
    <glyph glyph-name="Wcircumflex" unicode="&#x174;" horiz-adv-x="1005" 
d="M503 818l-141 -73l-6 6l143 146h8l143 -146l-6 -6zM840 674h160v-8q-30 -14 -53 -49t-51 -114l-184 -514h-9l-204 508l-208 -508h-9l-202 578q-13 37 -25.5 60t-39.5 39v8h159v-8q-26 -16 -26.5 -46.5t11.5 -67.5l150 -448l171 440l-9 23q-14 36 -28.5 59t-43.5 40v8h159
v-8q-20 -12 -23.5 -38.5t15.5 -75.5l177 -446l130 403q19 60 14.5 100t-31.5 57v8z" />
    <glyph glyph-name="wcircumflex" unicode="&#x175;" horiz-adv-x="791" 
d="M396 652l-141 -73l-6 6l143 146h8l143 -146l-6 -6zM640 508h141v-8q-28 -14 -49 -47.5t-47 -109.5l-120 -354h-19l-152 364l-140 -364h-19l-143 390q-21 57 -34 80t-38 41v8h156v-8q-25 -16 -27.5 -43t14.5 -76l103 -299l112 311q-12 32 -27 59t-45 48v8h156v-8
q-25 -16 -26.5 -43.5t18.5 -75.5l121 -299l81 280q32 112 -16 138v8z" />
    <glyph glyph-name="Ycircumflex" unicode="&#x176;" horiz-adv-x="608" 
d="M304 818l-141 -73l-6 6l143 146h8l143 -146l-6 -6zM435 674h163v-8q-24 -13 -51.5 -45t-67.5 -101l-135 -231v-183q0 -46 8.5 -67.5t30.5 -30.5v-8h-149v8q22 9 30.5 30.5t8.5 67.5v167l-164 285q-23 40 -42 67t-47 41v8h171v-8q-22 -15 -21.5 -45t24.5 -71l136 -233
l111 209q29 55 26 92t-32 48v8z" />
    <glyph glyph-name="ycircumflex" unicode="&#x177;" horiz-adv-x="521" 
d="M280 652l-141 -73l-6 6l143 146h8l143 -146l-6 -6zM375 508h141v-8q-27 -13 -49 -47.5t-57 -123.5l-119 -299q-32 -140 -86.5 -210t-123.5 -70q-22 0 -49 8.5t-50 31.5v8q124 4 186.5 56t89.5 141l-164 384q-23 54 -38 78.5t-41 42.5v8h156v-8q-24 -16 -25 -43.5
t19 -75.5l123 -295l91 255q47 131 -4 159v8z" />
    <glyph glyph-name="Ydieresis" unicode="&#x178;" horiz-adv-x="608" 
d="M406 765q-23 0 -39.5 16.5t-16.5 39.5t16.5 39.5t39.5 16.5t39.5 -16.5t16.5 -39.5t-16.5 -39.5t-39.5 -16.5zM202 765q-23 0 -39.5 16.5t-16.5 39.5t16.5 39.5t39.5 16.5t39.5 -16.5t16.5 -39.5t-16.5 -39.5t-39.5 -16.5zM435 674h163v-8q-24 -13 -51.5 -45t-67.5 -101
l-135 -231v-183q0 -46 8.5 -67.5t30.5 -30.5v-8h-149v8q22 9 30.5 30.5t8.5 67.5v167l-164 285q-23 40 -42 67t-47 41v8h171v-8q-22 -15 -21.5 -45t24.5 -71l136 -233l111 209q29 55 26 92t-32 48v8z" />
    <glyph glyph-name="Zacute" unicode="&#x179;" horiz-adv-x="565" 
d="M424 897l-160 -152h-24l84 152h100zM525 179h10v-179h-505v8l412 647l-197 -4q-55 -1 -89.5 -14t-56.5 -42.5t-36 -89.5h-10v169h479v-8l-414 -646l204 5q51 1 90 11.5t68 40t45 102.5z" />
    <glyph glyph-name="zacute" unicode="&#x17a;" horiz-adv-x="493" 
d="M388 731l-160 -152h-24l84 152h100zM453 508v-10l-330 -482l154 7q62 3 100.5 28t52.5 94h10v-145h-400v10l329 483l-162 -7q-52 -2 -79 -18t-39 -41.5t-19 -53.5h-10v135h393z" />
    <glyph glyph-name="Zdotaccent" unicode="&#x17b;" horiz-adv-x="565" 
d="M282 763q-24 0 -41 17t-17 41t17 41t41 17t41 -17t17 -41t-17 -41t-41 -17zM525 179h10v-179h-505v8l412 647l-197 -4q-55 -1 -89.5 -14t-56.5 -42.5t-36 -89.5h-10v169h479v-8l-414 -646l204 5q51 1 90 11.5t68 40t45 102.5z" />
    <glyph glyph-name="zdotaccent" unicode="&#x17c;" horiz-adv-x="493" 
d="M246 597q-24 0 -41 17t-17 41t17 41t41 17t41 -17t17 -41t-17 -41t-41 -17zM453 508v-10l-330 -482l154 7q62 3 100.5 28t52.5 94h10v-145h-400v10l329 483l-162 -7q-52 -2 -79 -18t-39 -41.5t-19 -53.5h-10v135h393z" />
    <glyph glyph-name="Zcaron" unicode="&#x17d;" horiz-adv-x="565" 
d="M286 745h-8l-143 146l6 6l141 -73l141 73l6 -6zM525 179h10v-179h-505v8l412 647l-197 -4q-55 -1 -89.5 -14t-56.5 -42.5t-36 -89.5h-10v169h479v-8l-414 -646l204 5q51 1 90 11.5t68 40t45 102.5z" />
    <glyph glyph-name="zcaron" unicode="&#x17e;" horiz-adv-x="493" 
d="M250 579h-8l-143 146l6 6l141 -73l141 73l6 -6zM453 508v-10l-330 -482l154 7q62 3 100.5 28t52.5 94h10v-145h-400v10l329 483l-162 -7q-52 -2 -79 -18t-39 -41.5t-19 -53.5h-10v135h393z" />
    <glyph glyph-name="florin" unicode="&#x192;" horiz-adv-x="500" 
d="M198 380l40 233q12 72 56 107.5t107 35.5q53 0 85 -23t32 -55q0 -23 -14.5 -39t-35.5 -16t-35.5 13.5t-14.5 32.5q0 15 9 28.5t26 17.5q-7 9 -20.5 13t-27.5 4q-39 0 -66 -30t-36 -87l-39 -231l160 9l-10 -43h-156l-46 -270q-8 -45 -22 -90.5t-38 -85t-61 -67t-86 -37.5
q-24 -4 -51 -6l-2 7q158 66 195 280l46 269h-106v24z" />
    <glyph glyph-name="Scommaaccent" unicode="&#x218;" horiz-adv-x="486" 
d="M235 -55q25 0 40.5 -17.5t15.5 -46.5q0 -23 -13 -54t-42.5 -60t-58.5 -42l-2 6q31 19 50.5 50.5t20.5 66.5l-16 -2q-18 0 -31.5 13.5t-13.5 34.5t14.5 36t35.5 15zM61 181q25 -83 73.5 -124.5t104.5 -42.5q41 0 70 15t46 43t17 65q0 41 -19.5 72t-50.5 54t-100 61
t-98.5 67t-43 59.5t-13.5 67.5q0 35 14.5 66t41 53.5t63 35t77.5 12.5q107 0 172 -43v-138h-10q-9 37 -30 73.5t-58.5 60t-78.5 23.5q-26 0 -55 -11.5t-48 -40.5t-19 -64q0 -49 29.5 -88t118 -89t114.5 -75t38 -46.5t16.5 -43t4.5 -39.5q0 -36 -14 -68t-39.5 -56t-62 -37.5
t-79.5 -13.5q-46 0 -91.5 10.5t-99.5 38.5v143h10z" />
    <glyph glyph-name="scommaaccent" unicode="&#x219;" horiz-adv-x="443" 
d="M223 -55q25 0 40.5 -17.5t15.5 -46.5q0 -23 -13 -54t-42.5 -60t-58.5 -42l-2 6q31 19 50.5 50.5t20.5 66.5l-16 -2q-18 0 -31.5 13.5t-13.5 34.5t14.5 36t35.5 15zM221 -9q-46 -1 -86.5 13t-62.5 35t-22 46q0 22 14 36.5t35 14.5t35.5 -13t14.5 -33q0 -14 -7.5 -26.5
t-19.5 -18.5q16 -17 44 -25t54 -8q25 0 53.5 8.5t47.5 32t19 54.5q0 27 -10 46t-30 37.5t-88 48.5t-87 42t-32 25.5t-20.5 27.5t-10.5 27t-3 28q0 33 18.5 61.5t57 48.5t94.5 20q33 0 70 -10t61.5 -34.5t24.5 -51.5q0 -20 -13.5 -34.5t-34.5 -14.5t-35.5 13t-14.5 33
q0 15 9 28t23 19q-11 13 -38 21.5t-57 8.5q-25 0 -50.5 -8.5t-40 -29.5t-14.5 -46q0 -29 16.5 -49.5t42 -35t77.5 -37t80.5 -42t45.5 -46.5t17 -64q0 -39 -21 -72t-61.5 -55t-94.5 -21z" />
    <glyph glyph-name="uni021A" unicode="&#x21a;" horiz-adv-x="605" 
d="M237 -275l-2 6q31 19 50.5 50.5t20.5 66.5l-16 -2q-18 0 -31.5 13.5t-13.5 34.5t14.5 36t35.5 15q25 0 40.5 -17.5t15.5 -46.5q0 -23 -13 -54t-42.5 -60t-58.5 -42zM30 674h545v-171h-10q-13 74 -49 110.5t-108 36.5h-72v-544q0 -46 8.5 -67.5t30.5 -30.5v-8h-149v8
q22 9 30.5 30.5t8.5 67.5v544h-68q-72 0 -108 -36.5t-49 -110.5h-10v171z" />
    <glyph glyph-name="uni021B" unicode="&#x21b;" horiz-adv-x="349" 
d="M118 -275l-2 6q31 19 50.5 50.5t20.5 66.5l-16 -2q-18 0 -31.5 13.5t-13.5 34.5t14.5 36t35.5 15q25 0 40.5 -17.5t15.5 -46.5q0 -23 -13 -54t-42.5 -60t-58.5 -42zM335 58l4 -8q-21 -23 -55 -38t-66 -15q-104 0 -104 127v341h-81v24q48 19 79 53.5t47 95.5h20v-140
l156 10l-9 -43h-147v-328q0 -52 17 -74t58 -22q44 0 81 17z" />
    <glyph glyph-name="uni0237" unicode="&#x237;" horiz-adv-x="293" 
d="M114 16v377q0 27 -8 46.5t-36 32.5v8l109 39v-505q0 -115 -40 -178t-117 -93l-3 6q47 42 71 106.5t24 160.5z" />
    <glyph glyph-name="circumflex" unicode="&#x2c6;" 
d="M447 585l-6 -6l-141 73l-141 -73l-6 6l143 146h8z" />
    <glyph glyph-name="caron" unicode="&#x2c7;" 
d="M441 731l6 -6l-143 -146h-8l-143 146l6 6l141 -73z" />
    <glyph glyph-name="uni02C9" unicode="&#x2c9;" 
d="M146 638v34h307v-34h-307z" />
    <glyph glyph-name="breve" unicode="&#x2d8;" 
d="M429 715q0 -26 -10.5 -59t-41.5 -56t-79 -23q-41 0 -69.5 17t-43.5 48.5t-15 72.5l1 16h8q10 -45 41 -71t78 -26q49 0 80 25.5t42 71.5h8z" />
    <glyph glyph-name="dotaccent" unicode="&#x2d9;" 
d="M358 655q0 -24 -17 -41t-41 -17t-41 17t-17 41t17 41t41 17t41 -17t17 -41z" />
    <glyph glyph-name="ring" unicode="&#x2da;" 
d="M383 655q0 -34 -24.5 -58.5t-58.5 -24.5t-58.5 24.5t-24.5 58.5t24.5 58.5t58.5 24.5t58.5 -24.5t24.5 -58.5zM252 655q0 -19 14.5 -33.5t33.5 -14.5t33.5 14.5t14.5 33.5t-14.5 33.5t-33.5 14.5t-33.5 -14.5t-14.5 -33.5z" />
    <glyph glyph-name="ogonek" unicode="&#x2db;" 
d="M408 -158l4 -7q-20 -23 -52 -38t-69 -15q-32 0 -57.5 13t-35.5 34.5t-10 41.5q0 21 12 47t42.5 49.5t66.5 34.5h22q-34 -16 -57.5 -47.5t-23.5 -62.5q0 -36 21.5 -54t54.5 -18q19 0 41.5 6t40.5 16z" />
    <glyph glyph-name="tilde" unicode="&#x2dc;" 
d="M158 595h-8q-2 8 -2 25q0 28 12 51t32 32.5t39 9.5q27 0 68 -26t56.5 -30.5t24.5 -4.5q27 0 43 17.5t18 45.5h8q2 -8 2 -25q0 -28 -12 -51t-32 -32.5t-39 -9.5q-25 0 -66.5 26t-57.5 30.5t-25 4.5q-27 0 -43 -17.5t-18 -45.5z" />
    <glyph glyph-name="hungarumlaut" unicode="&#x2dd;" 
d="M284 731h95l-155 -152h-24zM424 731h95l-155 -152h-24z" />
    <glyph glyph-name="uni0326" unicode="&#x326;" 
d="M302 -55q25 0 40.5 -17.5t15.5 -46.5q0 -23 -13 -54t-42.5 -60t-58.5 -42l-2 6q31 19 50.5 50.5t20.5 66.5l-16 -2q-18 0 -31.5 13.5t-13.5 34.5t14.5 36t35.5 15z" />
    <glyph glyph-name="pi" unicode="&#x3c0;" horiz-adv-x="678" 
d="M612 67l6 -4q-9 -33 -31.5 -53t-57.5 -20q-24 0 -46.5 14t-35.5 50.5t-13 82.5v316h-180v-412q0 -25 -12.5 -38.5t-31.5 -13.5q-38 0 -38 48q0 5 0.5 17.5t11 59t15.5 111.5t5 154v72q-51 -4 -95.5 -24.5t-92.5 -78.5l-6 3q13 45 36 79t67 56t128 22h358v-55h-100v-277
q0 -66 12.5 -99.5t44.5 -33.5t56 24z" />
    <glyph glyph-name="Wgrave" unicode="&#x1e80;" horiz-adv-x="1005" 
d="M727 106l130 403q19 60 14.5 100t-31.5 57v8h160v-8q-30 -14 -53 -49t-51 -114l-184 -514h-9l-204 508l-208 -508h-9l-202 578q-13 37 -25.5 60t-39.5 39v8h159v-8q-26 -16 -26.5 -46.5t11.5 -67.5l150 -448l171 440l-9 23q-14 36 -28.5 59t-43.5 40v8h159v-8
q-20 -12 -23.5 -38.5t15.5 -75.5zM361 897h100l84 -152h-24z" />
    <glyph glyph-name="wgrave" unicode="&#x1e81;" horiz-adv-x="791" 
d="M438 579h-24l-160 152h100zM640 508h141v-8q-28 -14 -49 -47.5t-47 -109.5l-120 -354h-19l-152 364l-140 -364h-19l-143 390q-21 57 -34 80t-38 41v8h156v-8q-25 -16 -27.5 -43t14.5 -76l103 -299l112 311q-12 32 -27 59t-45 48v8h156v-8q-25 -16 -26.5 -43.5t18.5 -75.5
l121 -299l81 280q32 112 -16 138v8z" />
    <glyph glyph-name="Wacute" unicode="&#x1e82;" horiz-adv-x="1005" 
d="M545 897h100l-160 -152h-24zM727 106l130 403q19 60 14.5 100t-31.5 57v8h160v-8q-30 -14 -53 -49t-51 -114l-184 -514h-9l-204 508l-208 -508h-9l-202 578q-13 37 -25.5 60t-39.5 39v8h159v-8q-26 -16 -26.5 -46.5t11.5 -67.5l150 -448l171 440l-9 23q-14 36 -28.5 59
t-43.5 40v8h159v-8q-20 -12 -23.5 -38.5t15.5 -75.5z" />
    <glyph glyph-name="wacute" unicode="&#x1e83;" horiz-adv-x="791" 
d="M538 731l-160 -152h-24l84 152h100zM640 508h141v-8q-28 -14 -49 -47.5t-47 -109.5l-120 -354h-19l-152 364l-140 -364h-19l-143 390q-21 57 -34 80t-38 41v8h156v-8q-25 -16 -27.5 -43t14.5 -76l103 -299l112 311q-12 32 -27 59t-45 48v8h156v-8q-25 -16 -26.5 -43.5
t18.5 -75.5l121 -299l81 280q32 112 -16 138v8z" />
    <glyph glyph-name="Wdieresis" unicode="&#x1e84;" horiz-adv-x="1005" 
d="M661 821q0 -23 -16.5 -39.5t-39.5 -16.5t-39.5 16.5t-16.5 39.5t16.5 39.5t39.5 16.5t39.5 -16.5t16.5 -39.5zM457 821q0 -23 -16.5 -39.5t-39.5 -16.5t-39.5 16.5t-16.5 39.5t16.5 39.5t39.5 16.5t39.5 -16.5t16.5 -39.5zM727 106l130 403q19 60 14.5 100t-31.5 57v8
h160v-8q-30 -14 -53 -49t-51 -114l-184 -514h-9l-204 508l-208 -508h-9l-202 578q-13 37 -25.5 60t-39.5 39v8h159v-8q-26 -16 -26.5 -46.5t11.5 -67.5l150 -448l171 440l-9 23q-14 36 -28.5 59t-43.5 40v8h159v-8q-20 -12 -23.5 -38.5t15.5 -75.5z" />
    <glyph glyph-name="wdieresis" unicode="&#x1e85;" horiz-adv-x="791" 
d="M498 599q-23 0 -39.5 16.5t-16.5 39.5t16.5 39.5t39.5 16.5t39.5 -16.5t16.5 -39.5t-16.5 -39.5t-39.5 -16.5zM294 599q-23 0 -39.5 16.5t-16.5 39.5t16.5 39.5t39.5 16.5t39.5 -16.5t16.5 -39.5t-16.5 -39.5t-39.5 -16.5zM640 508h141v-8q-28 -14 -49 -47.5t-47 -109.5
l-120 -354h-19l-152 364l-140 -364h-19l-143 390q-21 57 -34 80t-38 41v8h156v-8q-25 -16 -27.5 -43t14.5 -76l103 -299l112 311q-12 32 -27 59t-45 48v8h156v-8q-25 -16 -26.5 -43.5t18.5 -75.5l121 -299l81 280q32 112 -16 138v8z" />
    <glyph glyph-name="Ygrave" unicode="&#x1ef2;" horiz-adv-x="608" 
d="M346 745h-24l-160 152h100zM435 674h163v-8q-24 -13 -51.5 -45t-67.5 -101l-135 -231v-183q0 -46 8.5 -67.5t30.5 -30.5v-8h-149v8q22 9 30.5 30.5t8.5 67.5v167l-164 285q-23 40 -42 67t-47 41v8h171v-8q-22 -15 -21.5 -45t24.5 -71l136 -233l111 209q29 55 26 92
t-32 48v8z" />
    <glyph glyph-name="ygrave" unicode="&#x1ef3;" horiz-adv-x="521" 
d="M258 -5l-164 384q-23 54 -38 78.5t-41 42.5v8h156v-8q-24 -16 -25 -43.5t19 -75.5l123 -295l91 255q47 131 -4 159v8h141v-8q-27 -13 -49 -47.5t-57 -123.5l-119 -299q-32 -140 -86.5 -210t-123.5 -70q-22 0 -49 8.5t-50 31.5v8q124 4 186.5 56t89.5 141zM138 731h100
l84 -152h-24z" />
    <glyph glyph-name="endash" unicode="&#x2013;" horiz-adv-x="500" 
d="M60 248v54h380v-54h-380z" />
    <glyph glyph-name="emdash" unicode="&#x2014;" horiz-adv-x="1000" 
d="M60 248v54h880v-54h-880z" />
    <glyph glyph-name="quoteleft" unicode="&#x2018;" horiz-adv-x="220" 
d="M112 450q-28 0 -46.5 20.5t-18.5 54.5q0 30 15.5 65t49 68.5t67.5 48.5l3 -7q-36 -23 -58.5 -59.5t-23.5 -76.5l18 2q21 0 37 -16t16 -41q0 -24 -17 -41.5t-42 -17.5z" />
    <glyph glyph-name="quoteright" unicode="&#x2019;" horiz-adv-x="241" 
d="M117 707q28 0 46.5 -20.5t18.5 -54.5q0 -30 -15.5 -65t-49 -68.5t-67.5 -48.5l-3 7q36 23 58.5 59.5t23.5 76.5l-18 -2q-21 0 -37 16t-16 41q0 24 17 41.5t42 17.5z" />
    <glyph glyph-name="quotesinglbase" unicode="&#x201a;" horiz-adv-x="241" 
d="M117 127q28 0 46.5 -20.5t18.5 -54.5q0 -30 -15.5 -65t-49 -68.5t-67.5 -48.5l-3 7q36 23 58.5 59.5t23.5 76.5l-18 -2q-21 0 -37 16t-16 41q0 24 17 41.5t42 17.5z" />
    <glyph glyph-name="quotedblleft" unicode="&#x201c;" horiz-adv-x="427" 
d="M307 450q-28 0 -46.5 20.5t-18.5 54.5q0 30 15.5 65t49 68.5t67.5 48.5l3 -7q-36 -23 -58.5 -59.5t-23.5 -76.5l18 2q21 0 37 -16t16 -41q0 -24 -17 -41.5t-42 -17.5zM112 450q-28 0 -46.5 20.5t-18.5 54.5q0 30 15.5 65t49 68.5t67.5 48.5l3 -7q-36 -23 -58.5 -59.5
t-23.5 -76.5l18 2q21 0 37 -16t16 -41q0 -24 -17 -41.5t-42 -17.5z" />
    <glyph glyph-name="quotedblright" unicode="&#x201d;" horiz-adv-x="431" 
d="M117 707q28 0 46.5 -20.5t18.5 -54.5q0 -30 -15.5 -65t-49 -68.5t-67.5 -48.5l-3 7q36 23 58.5 59.5t23.5 76.5l-18 -2q-21 0 -37 16t-16 41q0 24 17 41.5t42 17.5zM312 707q28 0 46.5 -20.5t18.5 -54.5q0 -30 -15.5 -65t-49 -68.5t-67.5 -48.5l-3 7q36 23 58.5 59.5
t23.5 76.5l-18 -2q-21 0 -37 16t-16 41q0 24 17 41.5t42 17.5z" />
    <glyph glyph-name="quotedblbase" unicode="&#x201e;" horiz-adv-x="431" 
d="M117 127q28 0 46.5 -20.5t18.5 -54.5q0 -30 -15.5 -65t-49 -68.5t-67.5 -48.5l-3 7q36 23 58.5 59.5t23.5 76.5l-18 -2q-21 0 -37 16t-16 41q0 24 17 41.5t42 17.5zM312 127q28 0 46.5 -20.5t18.5 -54.5q0 -30 -15.5 -65t-49 -68.5t-67.5 -48.5l-3 7q36 23 58.5 59.5
t23.5 76.5l-18 -2q-21 0 -37 16t-16 41q0 24 17 41.5t42 17.5z" />
    <glyph glyph-name="dagger" unicode="&#x2020;" horiz-adv-x="500" 
d="M253 -172h-7q0 129 -24 247.5t-55 187.5q78 47 80 179q-25 -2 -45.5 -8t-48 -20t-43.5 -14q-26 0 -42 13.5t-16 33.5q0 21 16 34t42 13q16 0 43.5 -13.5t47.5 -20t44 -8.5q-2 29 -8 53.5t-20 63t-14 58.5q0 26 13 42t34 16q20 0 33.5 -16t13.5 -42q0 -20 -16.5 -64.5
t-20.5 -69.5t-5 -41q24 2 44 8.5t47.5 20t43.5 13.5q26 0 42 -13t16 -34q0 -20 -16 -33.5t-42 -13.5q-16 0 -48.5 16.5t-53.5 20.5t-35 5q1 -61 20.5 -107.5t58.5 -71.5q-31 -69 -55 -187.5t-24 -247.5z" />
    <glyph glyph-name="daggerdbl" unicode="&#x2021;" horiz-adv-x="500" 
d="M332 283q-41 -26 -59.5 -63.5t-19.5 -93.5q25 2 45.5 8t48 20t43.5 14q26 0 42 -13.5t16 -33.5q0 -21 -16 -34t-42 -13q-16 0 -43 13.5t-43.5 18.5t-30 7t-18.5 2q1 -23 6 -47.5t20.5 -65t15.5 -61.5q0 -26 -13.5 -42t-33.5 -16q-21 0 -34 16t-13 42q0 20 12 53.5
t16.5 49t8 36t4.5 35.5q-24 -2 -44 -8t-47 -19.5t-43 -13.5q-26 0 -42 13t-16 34q0 20 16 33.5t42 13.5q16 0 36.5 -10.5t34.5 -17t33.5 -10t32.5 -4.5q-1 58 -19.5 94.5t-60.5 62.5q42 26 60.5 63.5t19.5 94.5q-25 -2 -46 -8t-48.5 -19.5t-42.5 -13.5q-26 0 -42 13.5
t-16 33.5q0 21 16 34t42 13q16 0 43.5 -13.5t47 -20t43.5 -8.5q-3 48 -20 95t-19 60t-2 20q0 26 13 42t34 16q20 0 33.5 -16t13.5 -42q0 -20 -16.5 -64.5t-20.5 -69.5t-5 -41q24 2 44 8.5t47.5 20t43.5 13.5q26 0 42 -13t16 -34q0 -20 -16 -33.5t-42 -13.5q-17 0 -44 14
t-44 19t-30.5 7t-18.5 2q1 -58 19.5 -95.5t59.5 -63.5z" />
    <glyph glyph-name="bullet" unicode="&#x2022;" horiz-adv-x="342" 
d="M82 314q0 16 8.5 36t30 34.5t46.5 14.5q16 0 36 -8.5t34.5 -30t14.5 -46.5q0 -16 -8.5 -36t-30 -34.5t-46.5 -14.5q-16 0 -36 8.5t-34.5 30t-14.5 46.5z" />
    <glyph glyph-name="ellipsis" unicode="&#x2026;" horiz-adv-x="864" 
d="M72 52q0 24 18 42t42 18t42 -18t18 -42t-18 -42t-42 -18t-42 18t-18 42zM372 52q0 24 18 42t42 18t42 -18t18 -42t-18 -42t-42 -18t-42 18t-18 42zM672 52q0 24 18 42t42 18t42 -18t18 -42t-18 -42t-42 -18t-42 18t-18 42z" />
    <glyph glyph-name="perthousand" unicode="&#x2030;" horiz-adv-x="1105" 
d="M172 0l386 654h38l-387 -654h-37zM68 495q0 29 12 67t44 66t76 28t74 -20.5t44.5 -57.5t14.5 -82q0 -31 -11 -70.5t-42.5 -68.5t-79.5 -29q-40 0 -71.5 22t-46 62t-14.5 83zM127 495q0 -57 18.5 -101t54.5 -44q27 0 42.5 18.5t23 51t7.5 75.5q0 57 -19 98t-54 41
q-24 0 -40 -16.5t-24.5 -48t-8.5 -74.5zM436 164q0 29 12 67t44 66t76 28t74 -20.5t44.5 -57.5t14.5 -82q0 -31 -11 -70.5t-42.5 -68.5t-79.5 -29q-40 0 -71.5 22t-46 62t-14.5 83zM495 164q0 -57 18.5 -101t54.5 -44q27 0 42.5 18.5t23 51t7.5 75.5q0 57 -19 98t-54 41
q-24 0 -40 -16.5t-24.5 -48t-8.5 -74.5zM772 164q0 29 12 67t44 66t76 28t74 -20.5t44.5 -57.5t14.5 -82q0 -31 -11 -70.5t-42.5 -68.5t-79.5 -29q-40 0 -71.5 22t-46 62t-14.5 83zM831 164q0 -57 18.5 -101t54.5 -44q27 0 42.5 18.5t23 51t7.5 75.5q0 57 -19 98t-54 41
q-24 0 -40 -16.5t-24.5 -48t-8.5 -74.5z" />
    <glyph glyph-name="guilsinglleft" unicode="&#x2039;" horiz-adv-x="305" 
d="M50 263q52 31 105 78.5t94 100.5l16 -12l-120 -177l120 -177l-16 -12q-41 53 -94 100.5t-105 78.5v20z" />
    <glyph glyph-name="guilsinglright" unicode="&#x203a;" horiz-adv-x="305" 
d="M160 253l-120 177l16 12q41 -53 94 -100.5t105 -78.5v-20q-52 -31 -105 -78.5t-94 -100.5l-16 12z" />
    <glyph glyph-name="fraction" unicode="&#x2044;" horiz-adv-x="327" 
d="M-23 0l266 657h45l-266 -657h-45z" />
    <glyph glyph-name="Euro" unicode="&#x20ac;" horiz-adv-x="659" 
d="M594 176h10v-136q-36 -26 -86 -38.5t-105 -12.5q-54 0 -102 18t-86.5 52t-64.5 83.5t-37 108.5l-87 1v26h83q-3 29 -3 59q0 26 3 51h-83v26l87 1q16 83 59 141.5t99.5 88.5t123.5 30q54 0 99 -13.5t93 -40.5v-136h-10q-33 93 -77 129.5t-103 36.5q-27 0 -58 -11
t-63.5 -42t-53.5 -80t-29 -102l249 4v-32h-253l-2 -52q0 -29 3 -58h252v-32l-249 4q17 -109 74.5 -173t137.5 -64q70 0 113 41t66 122z" />
    <glyph glyph-name="uni20B9" unicode="&#x20b9;" horiz-adv-x="585" 
d="M532 674v-24h-239q58 -21 89 -63t31 -101v-2h119v-24h-121q-5 -39 -26 -70t-54 -52t-74 -32t-86 -13q182 -233 266 -286v-6q-7 -6 -20 -10t-27 -4q-26 0 -51.5 13.5t-69.5 62t-194 238.5v6q51 0 96 11.5t78.5 32t54 49t26.5 60.5h-255v24h257q0 79 -52.5 122.5
t-154.5 43.5h-50v24h457z" />
    <glyph glyph-name="afii61289" unicode="&#x2113;" horiz-adv-x="457" 
d="M207 515v-244q58 44 90 106t32 134q0 37 -6.5 66t-20 45.5t-35.5 16.5t-36.5 -21t-19 -50t-4.5 -53zM386 91l11 -9q-8 -20 -25.5 -42t-47 -35.5t-61.5 -13.5q-60 0 -93.5 43.5t-33.5 120.5v44q-49 -19 -96 -28l-3 15q56 17 99 40v265q0 102 34.5 150t96.5 48
q26 0 47.5 -12t37 -35t23 -55t7.5 -66q0 -82 -45 -159t-130 -128v-63q0 -124 88 -124q27 0 51.5 13t39.5 31z" />
    <glyph glyph-name="trademark" unicode="&#x2122;" horiz-adv-x="733" 
d="M14 577v107h285v-107h-5q-9 47 -33.5 69t-67.5 22h-14v-240q0 -42 28 -58v-5h-101v5q28 16 28 58v240h-14q-43 0 -67 -22t-34 -69h-5zM710 684v-5q-11 -7 -16 -20t-5 -39v-191q0 -20 3.5 -35t17.5 -25v-4h-90v4q15 11 19.5 26t4.5 34v200l-123 -258h-7l-127 240l3 -150
q2 -77 31 -92v-4h-87v4q30 15 32 92l3 130q1 63 -36 88v5h71l130 -249l110 249h66z" />
    <glyph glyph-name="uni2126" unicode="&#x2126;" horiz-adv-x="722" 
d="M339 10v-10h-261v88h10q18 -17 35 -25.5t54.5 -15t110.5 -14.5q-78 53 -130 109t-79.5 115t-27.5 123q0 59 23 115t65 98.5t99.5 67t122.5 24.5q34 0 76.5 -8t82.5 -29.5t74.5 -57.5t55.5 -91.5t21 -116.5q0 -88 -58 -176.5t-179 -172.5q43 5 84 10.5t68.5 14.5t47.5 30
h10v-88h-261v10q60 47 105 97.5t73 115t28 158.5q0 59 -16 111t-46 89.5t-73 58.5t-93 21t-93 -21t-73 -58.5t-46 -89.5t-16 -111q0 -67 15.5 -123t58.5 -117t132 -131z" />
    <glyph glyph-name="estimated" unicode="&#x212e;" horiz-adv-x="698" 
d="M172 338h359v189q-25 31 -72 51t-109 20q-37 0 -75.5 -10.5t-64 -27.5t-38.5 -33v-189zM643 313h-471v-222q30 -33 79 -53.5t100 -20.5q53 0 101.5 21t80 53.5t49.5 63.5l23 -13q-95 -152 -254 -152q-66 0 -120.5 24.5t-92.5 68t-58 102t-20 123.5q0 67 21 125.5
t59.5 101.5t92.5 66.5t118 23.5q68 0 123 -24.5t92.5 -67.5t57 -100t19.5 -120z" />
    <glyph glyph-name="partialdiff" unicode="&#x2202;" horiz-adv-x="564" 
d="M509 413q0 -101 -38.5 -203.5t-104.5 -163t-145 -60.5q-48 0 -82 20t-54 59.5t-20 98.5q0 49 15 96t43 83.5t69.5 57.5t90.5 21q25 0 54.5 -8.5t54.5 -29.5t35 -48q10 30 10 78q0 36 -9 82.5t-40 80t-82 33.5q-33 0 -69 -22t-80 -91l-10 7q15 41 39 76t61.5 60.5
t85.5 25.5q58 0 96.5 -30.5t59 -86.5t20.5 -136zM236 19q43 0 77.5 33.5t57 93t22.5 128.5q0 50 -25 84.5t-68 34.5q-24 0 -50.5 -13.5t-49.5 -44.5t-39.5 -79t-16.5 -106q0 -54 24 -92.5t68 -38.5z" />
    <glyph glyph-name="uni2206" unicode="&#x2206;" horiz-adv-x="616" 
d="M586 0h-556v21l268 635h24l264 -635v-21zM493 34l-207 505l-214 -505h421z" />
    <glyph glyph-name="product" unicode="&#x220f;" horiz-adv-x="658" 
d="M583 657v-8q-22 -9 -30.5 -30.5t-8.5 -67.5v-575q0 -46 8.5 -67.5t30.5 -30.5v-8h-143v8q22 9 30.5 30.5t8.5 67.5v657h-300v-657q0 -46 8.5 -67.5t30.5 -30.5v-8h-143v8q22 9 30.5 30.5t8.5 67.5v575q0 46 -8.5 67.5t-30.5 30.5v8h508z" />
    <glyph glyph-name="summation" unicode="&#x2211;" horiz-adv-x="642" 
d="M597 69h10v-189h-562v8l279 392l-279 414v10h549v-189h-10q-37 76 -99.5 117.5t-159.5 47.5l-183 11l253 -375v-8l-286 -370l240 4q89 1 150 30t98 97z" />
    <glyph glyph-name="minus" unicode="&#x2212;" horiz-adv-x="629" 
d="M65 324v34h499v-34h-499z" />
    <glyph glyph-name="uni2215" unicode="&#x2215;" horiz-adv-x="387" 
d="M10 -100l319 806h48l-319 -806h-48z" />
    <glyph glyph-name="uni2219" unicode="&#x2219;" horiz-adv-x="290" 
d="M60 254q0 16 8.5 36t30 34.5t46.5 14.5q16 0 36 -8.5t34.5 -30t14.5 -46.5q0 -16 -8.5 -36t-30 -34.5t-46.5 -14.5q-16 0 -36 8.5t-34.5 30t-14.5 46.5z" />
    <glyph glyph-name="radical" unicode="&#x221a;" horiz-adv-x="679" 
d="M310 -131l-176 445q-7 15 -16.5 26.5t-34.5 18.5l-73 21v8h170l159 -414l291 809h39l-340 -914h-19z" />
    <glyph glyph-name="infinity" unicode="&#x221e;" horiz-adv-x="778" 
d="M600 206q20 0 42.5 11.5t37 40.5t14.5 64q0 25 -12 54.5t-44.5 50t-75.5 20.5q-74 0 -148 -91q60 -91 93 -115.5t55.5 -29.5t37.5 -5zM229 217q34 0 65.5 16.5t74.5 75.5q-49 76 -75 101.5t-51.5 37.5t-56.5 12q-43 0 -70.5 -29.5t-27.5 -76.5q0 -29 14.5 -60.5t51 -54
t75.5 -22.5zM577 510q63 0 102 -50t39 -130q0 -35 -9.5 -67t-28.5 -56t-47.5 -37.5t-63.5 -13.5q-50 0 -93.5 28t-96.5 109q-41 -78 -82 -107.5t-87 -29.5q-23 0 -48.5 9t-48 30.5t-38 57t-15.5 83.5q0 26 7 55t27.5 58.5t53.5 45t69 15.5q47 0 89.5 -28.5t97.5 -111.5
q45 78 86.5 109t86.5 31z" />
    <glyph glyph-name="integral" unicode="&#x222b;" horiz-adv-x="425" 
d="M114 -113q18 0 34 10t24 37.5t8 68.5v640q0 70 34 109t97 39q35 0 60.5 -15t34.5 -35.5t9 -37.5q0 -25 -15 -40.5t-37 -15.5q-20 0 -34.5 13.5t-14.5 35.5q0 17 11.5 30t29.5 18q-4 10 -16 16t-28 6q-18 0 -34 -10t-24 -37.5t-8 -68.5v-640q0 -70 -34 -109t-97 -39
q-35 0 -60.5 15t-34.5 35.5t-9 37.5q0 25 15 40.5t37 15.5q20 0 34.5 -13.5t14.5 -35.5q0 -17 -11.5 -30t-29.5 -18q4 -10 16 -16t28 -6z" />
    <glyph glyph-name="approxequal" unicode="&#x2248;" horiz-adv-x="650" 
d="M60 108v8q1 28 10.5 56.5t28 50t47.5 33.5t66 12q21 0 40 -5.5t35 -13.5t66.5 -39t93.5 -31q28 0 54 11.5t46 36.5t31 55h12v-11q-2 -29 -15 -66.5t-48 -65t-89 -27.5q-23 0 -48 8.5t-70.5 36t-69.5 36t-47 8.5q-25 0 -52.5 -9.5t-47.5 -32t-31 -51.5h-12zM60 318v8
q1 28 10.5 56.5t28 50t47.5 33.5t66 12q21 0 40 -5.5t35 -13.5t66.5 -39t93.5 -31q28 0 54 11.5t46 36.5t31 55h12v-11q-2 -29 -15 -66.5t-48 -65t-89 -27.5q-23 0 -48 8.5t-70.5 36t-69.5 36t-47 8.5q-25 0 -52.5 -9.5t-47.5 -32t-31 -51.5h-12z" />
    <glyph glyph-name="notequal" unicode="&#x2260;" horiz-adv-x="629" 
d="M564 434h-197l-84 -185h281v-34h-296l-73 -160h-37l72 160h-165v34h181l83 185h-264v34h280l72 160h38l-73 -160h182v-34z" />
    <glyph glyph-name="lessequal" unicode="&#x2264;" horiz-adv-x="629" 
d="M90 74v29h449v-29h-449zM90 319v34l449 169v-36l-410 -150l408 -151v-36z" />
    <glyph glyph-name="greaterequal" unicode="&#x2265;" horiz-adv-x="629" 
d="M539 103v-29h-449v29h449zM539 353v-34l-447 -170v36l408 151l-410 150v36z" />
    <glyph glyph-name="lozenge" unicode="&#x25ca;" horiz-adv-x="537" 
d="M245 704h44l193 -362l-194 -371h-43l-190 372zM443 342l-177 327l-171 -326l172 -337z" />
    <glyph glyph-name="glyph381" horiz-adv-x="1648" 
d="M147 0v634h196v-634h-196zM383 449v185h196v-185h-196zM619 0v634h196v-634h-196zM855 449v185h196v-185h-196zM1091 0v634h196v-634h-196zM1327 449v185h196v-185h-196zM1327 224v185h196v-185h-196z" />
    <glyph glyph-name="glyph382" 
d="M302 761q25 0 40.5 -17.5t15.5 -46.5q0 -23 -13 -54t-42.5 -60t-58.5 -42l-2 6q31 19 50.5 50.5t20.5 66.5l-16 -2q-18 0 -31.5 13.5t-13.5 34.5t14.5 36t35.5 15z" />
    <glyph glyph-name="glyph383" 
d="M298 565q-25 0 -40.5 17.5t-15.5 46.5q0 23 13 54t42.5 60t58.5 42l2 -6q-31 -19 -50.5 -50.5t-20.5 -66.5l16 2q18 0 31.5 -13.5t13.5 -34.5t-14.5 -36t-35.5 -15z" />
    </font>
</defs>
</svg>
